<mxfile host="app.diagrams.net" modified="2023-11-28T10:01:46.555Z" agent="Mozilla/5.0 (Windows NT 10.0; Win64; x64) AppleWebKit/537.36 (KHTML, like Gecko) Chrome/119.0.0.0 Safari/537.36" etag="yhG7xFzJem1zUOwbHCFg" version="22.1.4" type="device">
  <diagram name="Page-1" id="L1R9rtv99cTkdUNH3PZv">
    <mxGraphModel dx="3187" dy="2040" grid="1" gridSize="10" guides="1" tooltips="1" connect="1" arrows="1" fold="1" page="1" pageScale="1" pageWidth="827" pageHeight="1169" math="0" shadow="0">
      <root>
        <mxCell id="0" />
        <mxCell id="1" parent="0" />
        <mxCell id="wSA2hBQYsME_1oKIK_U6-1" value="" style="shape=image;verticalLabelPosition=bottom;labelBackgroundColor=default;verticalAlign=top;aspect=fixed;imageAspect=0;image=data:image/jpeg,/9j/4AAQSkZJRgABAQAAAQABAAD//gAYTUFUTEFCIEhhbmRsZSBHcmFwaGljc//+AB1NQVRMQUIsIFRoZSBNYXRoV29ya3MsIEluYy7/2wBDAAMCAgMCAgMDAwMEAwMEBQgFBQQEBQoHBwYIDAoMDAsKCwsNDhIQDQ4RDgsLEBYQERMUFRUVDA8XGBYUGBIUFRT/2wBDAQMEBAUEBQkFBQkUDQsNFBQUFBQUFBQUFBQUFBQUFBQUFBQUFBQUFBQUFBQUFBQUFBQUFBQUFBQUFBQUFBQUFBT/wAARCAHgBQADASIAAhEBAxEB/8QAHwAAAQUBAQEBAQEAAAAAAAAAAAECAwQFBgcICQoL/8QAtRAAAgEDAwIEAwUFBAQAAAF9AQIDAAQRBRIhMUEGE1FhByJxFDKBkaEII0KxwRVS0fAkM2JyggkKFhcYGRolJicoKSo0NTY3ODk6Q0RFRkdISUpTVFVWV1hZWmNkZWZnaGlqc3R1dnd4eXqDhIWGh4iJipKTlJWWl5iZmqKjpKWmp6ipqrKztLW2t7i5usLDxMXGx8jJytLT1NXW19jZ2uHi4+Tl5ufo6erx8vP09fb3+Pn6/8QAHwEAAwEBAQEBAQEBAQAAAAAAAAECAwQFBgcICQoL/8QAtREAAgECBAQDBAcFBAQAAQJ3AAECAxEEBSExBhJBUQdhcRMiMoEIFEKRobHBCSMzUvAVYnLRChYkNOEl8RcYGRomJygpKjU2Nzg5OkNERUZHSElKU1RVVldYWVpjZGVmZ2hpanN0dXZ3eHl6goOEhYaHiImKkpOUlZaXmJmaoqOkpaanqKmqsrO0tba3uLm6wsPExcbHyMnK0tPU1dbX2Nna4uPk5ebn6Onq8vP09fb3+Pn6/9oADAMBAAIRAxEAPwD8qqKKKACiiigAp0cbSuqICzscBQMkmm19W/sv/AprIQ+NPEVoN7ru0uxuoTyCAVuiGGMY+57/ADdAMpu2rGb/AOzz8B4fBOnW/iTXoYbnX7uMSWsDbXWyiYKyvgjKzdef4QfU8e0tCpYkqCfXrV51MrlnZmYnJJOSajaMAY/lXDKfM7miVimbZcklFH4U026f3V/KrwTIODSNEARWJrEpi2Q/wj8qPsqnqn5irgjC471IEzUNnSkZ7WoGP3akfSk+xqesa+nA6Vp+Txg0piBGAOPX39Kx5ux1QgjM+yrk/J+G2oxaIkpAjHPIyorU8s5K5H50TQnaCBnackYzx3rBz6M76cL6me1lGAT5YA6kAU1bINg+WCvTp3rS8vK7TlgT6dKkitQnIIAPUj1rjlKx3U4ambHYKGwYlx2GOlIdLVN2FB2/qK1vsp3A5BJ7ZqU2mIpMjDBDnjiuSVSx6VOnfc5ySziDsUUAE46Uv9nx7QpjORxyODW1HaImeAp6gepouoChO3A5yF5zisnVOqNKxzVxY5OQgXsQBiqj2gkbcVX5eNoHNdKLUlju3An1qtNZFZeRg/7IqVVNvYnOyWiKgxGOecgVXeyXYCF684HNdFd26FUG0juQBj9KryoDtYKQFxjj9aFUD2Ry1xZKFciPvgFh3qGXTUjgUhRnbjpW/cwq0yqFzjL8dPQH9ajntGY4xtGO47U3UIdM5qTT0jP3QcjuKzp7LaGYAdfwrq7i1+YgYwOayrqLBPGT6VpGrYxnSOXkst7EhFX3PrWXd2ix53IvPqK66S0/d/dG7d29fyrDv7QmQkDpXVCpdnBOlY5S5toyckAfSqFtPc6ZfR3dlM0FxESVcDIOQQVYHhlIJDKchgSCCDXRXFrw3HNZE8PB6dewrvhU0POqUzl/il8O7XxXp934w8KWS2ssRabXfD1qmRZsSzPd2sSL8liBsXDHMTMFJKsprxKvpPS9WvvDmqRahYSiK4j4aNwTFPGfvwzICPMidcq8Z4ZSQetcT8ZPh9YrYw+NvDEJh8PX04hv9P2Bf7I1AqHeBV3E/Zm+YwSNyyqyn542r2qFbnXLLc+cxOH9m+aOx5FRRRXWeeFFFFABRRRQAUUUUAFT2NjPqV3Da20Mk9xNIsUcUSF2dmOAoA5JJIAA5NRRRtK6ogLOTgKBkk9hX1d8D/hd/wAIdYW9/qVpDJrF8iTrJIjCSyGcrGQQMN0YnsQo7VLdka04Oo7HrHwB+EPhn4PeGY9RvJodS8VahHG1w/lNI1shQHyURlUowJIbOTkAZ4NdVfRwyztLEgCMS2Nm0/TFQ6H4WvdalhS0Yy7ztLNkIDn1Gf5V3MnwY8T2ViJ1S1vEHLRW0rPIBjrtKjNeNOSU+acj6unD92oxjocbYRm1u7aQxqyRyq7YGcgEZr678FW2lahYWt5BaW7mSNTvS239gcEoP55r5aTSpoJHSVGRgSGDAjnvkV1/hHxXrXhmTbp+pSwRk/6lzuQdOingdK8/GQlWj7jPQw8XFOPc+q7vR9MvLJ2lsEiliXKXEarHKnH8LdQPxrg9RkNtMwna6uIeohvDvU+/+TXFL401LWlAvtYumUHO1G2Af0q8+tT3FsiG8M6rwDcnJx6Zr5mVKpe0j3cNhXDVu5Yv9ftUlLLDIuPlAQnaD7VQbV4ZoyJT82eCdp/Pism88+SRiZFA56dKhgDLMolwQ3cDFbLDxS3PSi+XRIddQwXkx/cxKx/iA4NVZNKjRdpUdMDpitIxhCCSAuccjA/Oop7lE4TBx3rRXWiOqN5GR9liiUsIo89DhRyazLy3ikPEak9vlHBrXuFEhy3I64qAWLTMNqlvfFWrLc9OFNW945q4svL/AIdwA+9jmqy2cYfPlqQehA6e1ddcaPJEFLD73HPWqQ0yOC4i3LmNiN2D696v2sWdsYx6GCNOBP7pQW6nFWYoYymzYEcjBG3nNdeuhohUxqCR8wIGQR70248PLOw4KqeQ6cEH/CuGVaNzX3Xoc0mmDyxmNSehOK0NOgjgOJVX2yACfar9tZXFvKUYI4Bx8/8AEPQe9XRpom2sqhldtpRhyp/LiuSrU5tC3Gy12KrW1owCN5YJPIJGR+tZmoaUiZEsI25OHAzmuqOjtbKXjcTxfxpJ99T7HHI9qmXSVnh3wzK2BwrHI+hFcKqqL3MotJ3R502kxIzAjKN90xjdj2+ntRJ4fWSIqyrG2CQ/TP04/Suj1HTI0vlkiRolX76n7pqSbTnjgO1GdTypAOR7fStJVrbM63BWRxUNkp3RSRozKeu3qPWsO/0zdMwCqFDemMCu4v7AwXlvIQq9FYnj8DVPU9MxcEruAYdVHGaca1nuRKgmee32gxksgVWHU7lFcvd6Z5XmxIgO0kcDgjtXq13ppZdrBEderAfeFcrqWnCO8KrkK4wTnjOa7KWI6XOCeGuebXuj5jYrEQCcfdrEeGfT7q2ubeSS2uraVZILmFyksEinKurDlWBGQRyCK9JubQETRH5gOn1rnbzTiXkTZ8pGeR3r06eI11PHxGG0s0eK/FP4Tp4u06+8S+HbSODWbKJ7nVtItkbE8CjLXsI55ADNNGOFH7xQE3iP56r7VuLWS1mimi2xzwESI7IGwfXBGD1IIIIIJBzmvG/jx8ObFo5fGfh6CO0tZpQNY0mJVT7FdSMxMsESKAlm+VVP7j5jOB5Zf6zA4xVV7OT16H5XnGVvDSdamvde/keHUUUV7B8sFFFFABRRRQAUUUUAFafhvw3qHizV4NN0y3e5upmACopbaM4LHHQDPJqja2sl5OkMS7pHOFUdSa+zvgT8I7bwFosOpXCpcazexB3l4IiRgpCL+I60721ZcIubsjZ+EfwtsPh3oEcKIH1O4UPdXMqgPkgZjzjO0EHAr0e2tFYcqCB6DNJbQBhk1oQwHqo4JAxXLUldHs0oJKxJa2KtyBiti009GAzGmfcdabZ2oOOCPqK3LO14GQPYkdK86pM9WlTG2emRuAGQDHYLWvFpkZZf3agAHoOtTWtsiYLnHPyuelbEFsQy5XOO46GuCdR7Hr0qRUg0yNcbEUjuCOn0NaVnaQ+ZtEYUsMYIGQa0bWxjZQyEHt/9arz2CyjLJx0BI5FcjqJnpQSWgy206J0UCJT6/KK1LbTI8qpUb/4GVevtUVvbOilo2JxwyOcY9xWnZTKf3cq+UWGcsOM+oNccpNFMpS2C21wtwturAKUkQINxGc7gK3bCGzuI9yRo4HAYgcex9GFTRoJdsUihZABg+vHUGoXtprGcTQxhzj96nQOvrjH3vesHLmXmRdTLq6cqSLKkSFD94BRk/X3q+LWCX+BUOM4K4J/+tTbB457dZYict94EjHuD7itCCIujdS684fqw9D61zvfU5576lVNLik+R0RCw4KgZPuKQ6bHA6s0aqfuvheD6H6ev1rTMTsEcKMrgjH8vrVmeJZ1jcbST3HOAfX8azcrGPtLMyhp0ScmFAjDO4qOP/r1HJYwh2AjQgn06f/WrRjha0mKMxdV+bb1I9x+tE8IcN86APkAgevT/AD7CsmylKzOYXT4ZZp5jBhU+RC69VHOR+OfyqaHS0jcoIkzywIX+E+n6VrWFttt0Aw5Q+W2enyjkipZoAsaOFX92Rnjng80Sl0N3U6HNXOlRwMzKi/LhzwMf54qpNpkUsrYgTBTOQv5/zFdZcQp5oIXGVCcj3NZxtiPlKgAPnj0I/lyKhTZcKnMjkr3SkjU4jXlMDAxjP/6qyTpaCJcQr93Bwo4ruLyy3gs21cOAB7D2rFazMMsiq2QxyB9eauM7HTGStY4O80tEuJF8scjJBHGckelY93paKcbFJUcgDk9Pzru761P2jI5AGTxyTWHe2IVixPOctj2rpjUtY6E7o861fT0h3ZRScYzj68Vyt9Z8khQoXoD/ADr0jVLPzJGLLlVQkfWuU1axYvu24JHA9q9SjVOSpTPkz9o74Ct4gil8TeHbVV1CFCbyygjx56jJMqgDl+gx1NfJEkbRMVYFWBwVIwQa/US8s2U4zg88+vtXyV+0t8FUsppPFWg2ziJiz6hawx/Kh5JlGOi+vp1r6nC4lTXJLc+DzLAum3VgtOp83UUUV6R88FFFFABRRRQAUUUUAFT2NjPqd5BaWkEtzdzusUMEKF3kdjhVVRySSQABySagr6Y+Hfhq1/Z98C2/jXW7WKf4h+ILcHwxpN0oL6ZZyLuXWCM7lkzt+zn/AHn7LUSkoK7NadN1JKKJdP02x/Zr8OPaRR22o/F7U4dl3cOqzR+F7d1UiKPIDw6ojq25v+WQOBhsmvMNrMzu7NI7sXeRyWZmPJZiepJ5JNSzXFzqF3PeXU0t3eXMjTT3Vw5eWaRiSzux5ZiSSSeSTU8VuG7HPuK4JT5ndn1eHwypqyIBGVOVwefwqwkO/jafUYqylp8xxgD0PWrEUAAI+7znr279q55TsenCjsVktt7kYBHOQa0LexMZIxjPQEYFTW9qBtZskZzwK14rckL2zxXNKodsaXQz47QEhSOnAGKtRWYIQGMbVYE/L0Ga1IrEh43AJJIyAOB/nNW5LQIk4IU/IWxkdf8AIrkdWx306NyC20+MbcKMAHoMZ5qS3sFaOQ7cDJA4xiuh0jTjLbpuB38A8Zqaz0lnkljwOFJ59PauSVZXOiNC5iWGlh5m4wOFOB1NWn0pFwOQx7CuhstPClkwu4NkkflV+fTQJRlOApI2jHNR9YFLD3ZxsmmrhwqhSW9Bz2xVpNJ8iBsKowNmcc5rqI9Edj5m0fewAo9BmpX09ZPLCqBt/eMr4B4/rk1Xt7kSw/kcTcaWiqFI7Y4/TNI2mDcDsx2HHArr20xZjvGHLfOQF6D06Gq15auHIwoUeg5IraNe5x1KPQ4yeyCE8LwcDaKryWQRchflPcryfauqubFcBTuYjkg1nS2u5+i7ewY13U6uh59Wic01oGfcVHTgY5qJ7U/3Qc/3h0rflsQrkYY9c1VntyBnKJ7EcGvQhUueVVpmQLbKYxg9wBThAq+m49OnFXFgJycAA9gOTTxb7exH867IyueXURnm3BxwDn1pGgxjjHpWh5QA4z6nNRvEM9DWykcMkZskC9cZPfpVZoVBI2jHritaSMr0yufQYqtJFznHtwK3TON7mW8K/wBwflUGzKcgD8K0nj3A9u1QtESRkEY4+WtLmUjkvFHhiPWbYyIBHeIMq3TeOeDxXl08EltK0UqGORThlYYINe6vGF7Y471ynjTwr/aluby3TZdRKSygf6xRk/iaJR5tiE7aHmVFKylTg8H3pKwNAooooAKKKKACiitjwf4T1Dxx4l07Q9Lj8y9vp1gTIO1Mnl2wCQijLMccAE9qAPS/2cPgwfid4gnvNSSeLw5YKfOnRD++mONsCN0DEHcTyVUZ6kV9xwW8VvBFBbxLb28KrHFBHnZGijCqueQAAAPpWR4F8EWPw+8J6d4e05IxDaoPNnjXH2mcgeZMfUsR+Cqo/hrf2EkcA1wVajbstiloQlCRUZGT2/KrW30Bx7imFMg5z6ciue5qiFVOKXaMj2qQDAz3pCMnOAPYVNzpiMIAPHepMccDp2pOFPAGfQd6cDv9sVm2dMFdi7RgcH8hTWGckU9Rx83Q0qRktyMCuaWh2RjqMVDkHt61OIf3QwvOcZYUBPk56dsdakVWAOGLZ7GuScup6VKNitGuzMePmDZB9qn2EuAFXZ0OP6ikmXy7hGOOflP1q3HHuUfMQd3JJ6VyzlbU9GENSFoSUX5PmA47g0/PmZDLyRnA7k44q2lucIc5xyQDzx2ps9rHGwKvn+ntXC5o9GEblYWg8wjkZHGfbtUdzHhSTlSvOO9XAFbG3JIJIJ+8M9waWSEyKxKgFuAG69655SsejGF0Y+EIVi2MEL069/yqrsLbssoJXg5/lWo8CJIoKlZOep4zxUf2TAfcFTsvIzntUc5fLdIyZLUzLgA5Azk1XFoWVwVxzgAj9a3re23O4K8Y2EtwD9Kr3Nv5bE5ODjvnFSqutjT2dtTmoLMO8xOCdxX8B6frTprUMFYLyCDVmJWikMbK4bJOWHbPFWFtGYsCxZT7VTqMhwMC6jz/AAZzyQBWZc2PmDoxI5AP9eK6e5tAr4UnA4461RuIgEyNqEk5PerVToYSpnIXsT7GxkbTisW6g65GfU4rqNQAycDB6VkToAjFjt4rrp1LHBUhdnL6hbqQAPlz17YrHuIs7gF+Xpmt+9QSMSDlBxWRexBVxXpU5XR5tSBgXcJIIGfxFHh3XovDeoXI1CyTU9D1G3Nhq9gYUd57Vj8xh3jCXCffikP3JFU8jIM16gUMRxj86yLlMtnqcdDXo0pNNM8qtTTTTPOfi58Oh8PPEkUNtO13ompwLqWj3jsjNcWMhPlNJsJCyrhkkT+CSN15xXDV9EW2k2/j/wAMXPg24WFNQjaW/wDD86RF7mW9KgGwBz/q59p2qBnz9mP9Y2fnl42iYq6lWBwQRgg+le9Sn7SNz5WtTdOVhtFFFamAUUUUAFFFdd8LvAs3xC8W22mLuSyTE99KrhWjt1YB2UnjdyFUd2ZR3oGld2R6H+zz8L/7Vvn8Q6xZCTTovltI5lBWWXOdxUjlQB36kj0r6btFZZVkYKV3Zwe4rP0fSrbSLC1s7SEQ21vGscaBRnaAAM4AycDk4res49zAkAD2FcVSpc9uhRUUke6eA4LWDSIF0sx3EcmJDEkOZEkwM5YMBgY7jPNew6Jo2rXMMbyS2UWVGUELSEfUE9a+UNCvL7T5PMsrua17HyZSv8q7e08W6vdRKsviDVI1QgFYpcK31718riqNRybR9jSmpQUYqx6N8SPAyy3yzW5gMrR5kEECoxbJ6qD+tebz6HJZTfvgZAOyrwPqK1rfXYo4wYridH+8ziXlj7+tUrnVX1ORgoO3n5u59+KijKsvdkd3s6aWr1FhYR8YVT6Kea1beGZ0yZmMfsc1m2cMcbZG4uepfk1qQs7LgoQnTIFaS12N6cmtCdLOMBS0r9O7YpTCu8bGckDowyKkgw64TLH+83NWIlwSiqcdSa5Wztj3Km2VgCwPJxzSG3LNgD5jWkq7nUbTtHOcVCmEugWXjPOayuehCXYltdGSZQ0m3/d65FalrYRRjaEwMdgKcpCxBmYR55G1qfBErtndJ5fqHxXBUk2LmnIz9UsBKoWJSCBnA54+lYstqhj+ZAw3YOBjFdk1rnDGSRlx1AXKn16f1FYuo6TPC7ttDQvzujJGfqOlZRn0Z6NCWyKEET2DYdZGQj5WTitS2tY7kbopN0Z65wcHuOnFQ6a6TQ+RKMMPlMbDBx/eFIsbaZOzQ5ZG5I6Ej1GO9c9R3v3O+3Noty/caEFgJcKQeAwH61Rt4Vi2rI4yDtDqcbh6Z/vV0ujyRanaEFVkOcYIyfy9ae+hwgmIhWzyo4z9B/hXD7S+kjj+scrcKhSgs4blEdS6HgMxI+b61BPp4sZGAV/m5BUfu2+vvVn7Jc6dIDAGWPq0M2cN67Pf2rY09rfWredNqoT1UjbtPrjsa523HfYylVcPeWsTmZ9Lt7uPcj71cbZI5CDg+vHQ+9Y09pPbTfZnCSRAZjZsg/TPrXSpb3GnXssJG5e46hl9R6mo7+JQ0cvyvGvO4/dI7g//AF6ls7Kdbldr3RzF3pcd5bncqsV6DOSMetVJtETYhUM+VyAQOK6yfTROfPswSmNxSMg5/AcGoLW1Ad45OAPmQnqB/dIqHM61WTV0eealZFAJUXeAAoQnnvXMahpf2wPcPE6lWACkV6trdgsLPhMZG4bRgk+lcxf6YskbgI4zHnax6kVvTrHVBqSuec3mnxx3DApt3rnHTmuY1XTWilLhgVOVwfXmvSdUs2uYYAq4KEHcV5ArmtY09zG/CsN3Xbg16NKtrc5atBS6HnN/poa38zgSA8g965pJG0iaWbyvtFtPE1re2JkMaX9qxHmW8hA+62Ac87WVHHzKCPRrvTMwv0ZipJI7deK47UbAqzhowQRuzjnNevh67TumfN4vCRnFwmtGfL3xr+G9t8O/FKLpdybzw/qcX2/SpGlEssdszHbBcMoCi4jwUkUDAZSRwRXndfaOteFLH4geGbvwpfRyebcs1xokttFGGh1QrtjV3YZWGYYSTBHzLA54jr451XSrvQ9TutP1C1msr61meC4triMpJDIp2ujqeVYEEEHkEV9/g8SsVTv1W5+KZlgZYGu4PboVKKKK7jygooooAKKK7H4U/D26+JPi620uHclqpWW8nBx5UAYByDg/NzgZ7kUDWp6r+zN8Jv7Tkl8VatBuskzBZ20q4EzHG9yCMMm0svuSfSvqm2gLDsB0AA4FUdG0m20fT7Wwsolhs7SNYYY1GAFHTp3PU+pJNbdrCc46g1y1J9EenRp2Jra2w3U9a0YLbC/MrcHqBxTrSAYzj3FbdnZElSTgZB2nvXBOdtT2KUCPT4HXgR5B6FxgCuhsdPeQnMuzHQR8CnWVmCMFMH0rdtLIxAkAcdVP9K8+pUvsevSpEdhpcZ4ZPMcdfMG4kevNalraGG48nkRkblB7c9qt21uG2ONq9vrWibBZVAJETgggrx+INcEqjPRgrDbe2wQAcEfrWpbqCp3rt7MpHH1qlasInMcpIkDYG4fe9xWpbHZKxI3qw/WuWTZqMiiCyMFOdnQ9cj0qwtsJkY/Lyfuv2P8ASo40ZXHHHGGGRj05qYzC3xK+xVb5Wzxj/wCvUu/Qe5YhkdIlwGkXoDn50b0z6Vbt54yAZHOPWX5T9OayVv2Mg8iKWUKckhcKR65NTxte3kbLI6Rru5EaMWA9MngflUcpViwb2HTb4yQOJkcZZIckq3qQP1rRTxHASsmyaJxwXaJgv4mqVtbC3x5O9Bj5lcZB98d6s285t3PmBk3c7lPyk+nNQ+XqKSi1qadp4lsnQZuoRk5/1g4P41qCeGaNXheJkLclCCCO9c7Pb20pM0sETr93GwMSfbii20iCY71aS0DdEtnKZ9zjvWDimc8qUGrrQ6WRi0qvgEqMcd19qaybtzQlA+3gH7p+voelYn9hR+YypdXuFGQTO3PqOtSf2A8Lq1vqF0GY4w8m9M+4PasWvMw5ILqXbAiC7mhc+UXbzQWHBzwQPxFaRiV/MjKjDL2Fc/Pc3NmUN/bBmUfLPaKWUj0cHkVr2dxHcxeZaSpID0UtkDg8D0/zxWclqROL3GSQLtV3boQWz0GD1qrPEoMhUE4GOBweP61dTa3mqM53ZZW7e9EEasjBgDh+eOprEcZcpmtbkRSrtVy3GT2zWReW5IL4AZMMWYdRg55reuIiu9VycE49gM4qjeQNIRHs+YD5gBwRziktDpgzkJ7XdcvMnzLz9OOc1l3tpiP5hyeSMYrqpbPyJTuzsYlPp7/59qwtTQgOVG0c8nnirUjui7s4jULY/vH2HLueo6CuX1S1YksVAODzXe3VqVgOdze7fSud1SwBTofnbGAOgr0Kc7GzVzzXUrXGCBnAxiuV1fTorgz28yLJDJA0csbDIZW4II+nGK7/AFsfZlZgrMScKAOp7CuUuLN9ztIP3hO4/wCH0r3KFRrU8uvSTTTPgn47/C7/AIV54mD2iS/2Re5lgcqNqEk5jyO49PTHWvMK/QH4qeA4PiF4PvtJkRBcgGWzmYA7JwDjnBIB6HHODXwVqmmzaRqFzZXK7Li3laKRfRlJB/UV9Vh6qqwT6n55jcM8PU02ZTooorpPPCiiigAoorW8K+GNQ8Z+JdL0LSovtGp6lcx2ltFnAaR2Crk9hk8nsOaA3Ox+CnhCx1jxBJr3iAonhPw+Y73UFk4N8Q42WMRIKmabDAKeiJK/IQ10fjbxfqXxC8V6n4i1Vi13fSlxDvLJax9I4Is/dijXCKvQBRWj4zk07QLWy8F6JKZdJ0Vit9cxOrx6nqQLLNdIwA3xDLJCTyI+ertnmljHUA46ke1edUqczPqcDhfZxUpLVjYVyo5A+grRtCinDn5cdKqpHtIGDtJ6jqK0beLoemP1rknNI+gp07luOAE5TJBGNoqyttuBOOnHTHFNt7ZkbqQD8wP9K17W2AmZSBhh6cVwSqHp06RFDabihUegJ9q3LG0BVdwz2xio7XT3j3Mql16fT3rpbCw89FdkZWXG7bxx6/TnrXn1K1jvjRM+2smuU2+XsfHAIxn6cVfudLSayZzu3hGXpgk4PHTpW3ZaWVlV1VgN23pnGenOOgq2ln9rvoYBH+6imDPJk4Y54X9cmvPdd33PQpUhdI05ngjbA+4pBA4GO596u2WmCOZ2xncHCnOOc8g/zrd0uwRLhodpIGJAFJ4BPT8Oasw6eJEDoGASRicrwVz/AIH2rilVOyFFGJZaSQzu6YHmEE4xjp6/WrM+mqgLoQcjYAcA8/8A6hXV2OlhvMKhlRXzyuOSo4/SmzafnI+ZcjenOMknAqFVNHQTZzyaUdrDG0AADg8k4qB7BFfnD/uiTtHAyc812NhYiWBjJukdwZCR0AHAFUHsSZnt3jJRFDBiOoGR179DVxq3MJUUcxa2Jj3KOQwIyOvb9Kzbmy3ueTsIzkcV3f8AZyBZQcozZLqrYG0ckfmaybnTTJKRhV6EddmOwwRXVCrqefVo2OLutOVIuVVZDycVmCy5xjJ3YX5e1dVdaaN8rSCKRtxVXPAXnqCazJLUqjszkIPlUgcn2r1adS549anY5q4txGGU8jJyccVktbNcOXYZQE7QP51vXsTbgF2yOxwqgnC+5+lRtaCJAMjheSTXqUp2VzxK0O5gm228lSD2B9KZsK9ueprQliLHIyBnJLVE0fUEEemRXfCT3PGqxKJhA64zTXiOfarjIOwP4Uxos+3Oa6os8uasjPkjORx7VWlh/M9605IyRnH1qtLGF+vpit4PQ4nsZhiGeT17Yqu8Y5AGPetOSEYwwHHXiq0kQJAwcD/OK2TuYNGa6demM9QKieMAds+grReAjNQvAc555B61qmYtXPKviB4Z+wz/ANo26HypW/eKF4Vjk5+hri69/vrCK9tpbeZQ8cilWHsa8S8QaRJoepzWsgOFYlGP8S9jUSLi76GbRRRUFhRRRQAV9l/sf/DIeHvDlz4xv4LiDVdUDW1mJV2gWfy5kXIzl2BAI4KqezV8v/C7wJd/EjxtpmhWkUsiTyhrmSJN3kW6nMkh9Aq55PGcDvX6QaXYQadp1nZWymK1tII7aCPskaKFRR7AACuetPljbuBZVOOTSqvqRUm0gDJGAMYPejb+VedcshIwe31NMZue1SttPP8A9emlA3TOfakaELfL2GPpTCcCnuBk/MxPfPNMJxj6UmzdbgpyBkHPfik+6cHg+h4oHzEe1KSQeeazZ2U2SoMsRzT0bIwR16ZqurbCOSPephIpyCFOeQQK5J7noU0PhJVyoyRu4NTcqxIPfOfWq6Lg8N83YU9mKqNxIGR+Vc0tz0KasTtEtzH8g3MOV+o7UQSBQu5TnqcDP506KVYojsADZzkdRUa7kmKBQQ5LLx39K4X2PTirovRtscOOdzc46D8KS7JkkIIUAZJ2jtS4Hl8Ahg20gAZP0qW9UOynHqM8Zrim9T0qSurFNVVpJGDAfL8oHODnirSvkkcM33tx6dqrRRcSA4IK5OBzV2NlEZXeOzbUOePSuWb1PRplO8gM21jw3HIHHQ1EsAIAbBIGefUVclDSrvDY+bAUe1IsaHBbk8gHsD261hKR0xVmMMe5Ryqspzyap3SK7btmF3kZA9+2eorUeBTbktgZXggd6r7PMUqFV9rbmcjge+ayuUk2c7qNodhlH+sVsk+qD2oM+yFQgycd61biy+0owRgoKk4HcH/9dZ0UaFdvJaPjr1wcVqpXRLjoUZ+dxIYkcfjWdKjFSuxCSerVu33liP5gYwePmA61h6hdRWqlgy7QMAuflP09acXcXJoYF/CFdtxGeuK5+/CuzDdz69BWxetJdljDGS3XzJshT9O9Yc1rfYbPkbyeCQTXo07dTzqsbOxlXC7ckDIrE1CQdO/61r3UThysrYkxyFPy/hWRdQqrbsAY7V6FNnl1UYF5lt2AR7kYrJulJzkv9RW5e9cED6ntWNcggk5B6njpXqUn1PGqoy3MltKk0E0sFxGweKaJ9rxuDlWUjkMCAQeoIHpWV8YPB8mp6HY/ESwtbldN1C6OmavPM4bbrCxiSUjuqTIwlXOcnzQPuYGpODnI5+lbPgy3tNfn1HwjqST3dv4ltzY2McUm2O31XObG4IPAxJ+5ZsZEdxLivVoy5ZHz+Kp80fQ+d6Ktappl3ouo3Vhf28tnfWsrwXFtOhSSKRSVZGU8hgQQQehFVa9Q8UKKKKACvrn9n7wWfDPgpbq6ski1HUpPPMrx4lEOBsTOMgHlsd8g88V87/CbwYfHnjjTtLZbg2pkWS6a2QM6QgguwzwCFzyePr0P37onhO2MUMUMTw20arHEJeVRFACgsOOAAOvQVy16qpqzPQwlLnfMY1taFsHGfpWxZ2BUrlGB/lXp/gHwPofiOZtPvrQxyKm9LyxkYKcHG0ksw3d8YxVzxf8ACa78MtvtFm1OykUkeUjPJEvPLgLjAA614csZT5uS+p9DTo8ruzzqyhwWCkHJ6CtIM0MarvIBPNPjto4Ycxj5s4bgAiolVpHOSNq+tZ8/MetBcq0LdsWfh+FHPBrbtGjIAHGDnPGKyrQHAI6EdeK0YIgpDAL2yDxWDOyLNiBQcOHxg8nHH0q7G5myBwg6j1rNt5h3IG0/dU5rRsUK9MdeSKwktLnbSZfh/dRlsYAHYVNbFtrYbIPp61GQGGF5JPSpoEXdsAwD2HrXM1odUWS2G55m4BPPWo7uPE2On1FSqDBJG5BAzt5qaeNyyyYRlIwc88Vi97nbTdmVIy6kDyzIO3oRV2C+8hyDvi77COPypkKNbtsJjKvypYHGfTOeKtXFpJHGqyx7lJ4ZPmx9eK55Wvqd0WpOzLEN2t0disFz6kdfar0iedYFGIBB4CdzjuK52WJIo+GhYejNhwfal0/UxC6r5+X7KXyD+Getcc6fVHUqN9Ylm5sUmkR0KrLsx8w4B/pToEeJhb3UK+YFwCp6/wC76/pVqRRMpkRWVxyY+n4fSo50Nzboyl12nKv/ABIfT2//AF1zt6WN+Z2SYWrvpriWF/JzyY5cqG+h/vVvabqEWokgkeeh3KJOoP8AhUFpeRXFkIbvasg48wjAY+zVQudOWO9t3kEex8fvUwwH1yK45pT9TjnardS0Z1F9Et5YOsYCSLglRwc+1c7HBLZ3EckJKSscEgcN6gjvV6PS5jvmhuWMg4AdvT0FVZpLq6tg+6ESwybmMXyNkeoOc/nWEVbS5z0vcXKndM1orEaxbP5wCXEZ+WaPgqQPf9RWAkr2OpJDcIkZb5TsGEY+vPetjRtSklnl3SGNySHjfChj6j61B4ot47i2WWICKWNg2ehBrHVS5QotxqOnPZ/gRmKbSJ2uoLfzbM5Lxryyj/ZH9KqXEiXzNLApUnkcbcj0PvVmCdzbJvlD7hkhzlT9Md6kmtY4Xib59jj70fPzfh3rFrubJ8j13MHUjFLs3gKwHKnGQfxrnNVjGQYiJFBwxHOK7O9t40m3lvMP/TQcD6+hqjqlp50RB2mI8gRDNTzW2PVw9ZRsjzedDGJUCK5IIGVziuW1mycRYxjtn869P1Gyt0mgVkZdyjLbcd+hNc1rWmqVcDBKnPXI6muqnV6HqRmnsec3dgv2ck4JCY4H8jXF+IrMxRK642jKt7V61qtiBZPmMscccdK4HxDpbi2ldQcEHII6mvSoVtdThrQUrnm2oQCVDGwzGw257kV5B+0Z4P8A7S0/TvHlvBZ2jSyro+sQxTbp5r5E3reuh5H2iLlnJ+aaK4PGRn3u+tDHbBmGAADn0rlrjR7bX4NS0O6tLa5h1u3awjkupRElpcMQba53nhdkoTcx/wCWTTAfer6rLMX7KquzPznPcAsTRbivejqfGdFX9b0S98Oaxe6XqVvJZalYzyWtzazLteGVGKujDsQwII9RVCvvj8i2CiiigAr7b/Z8+HQ8EeCIZ7uCNdV1XbczP1ZYyo8uM8AgjJJXsSfTj5t+AHgU+OfiJZxyxh7Gwxe3IY4VlRhhDwc7mIGOMjPNfc8SbiABgenoKyqS5VY6aMLu7JreMlhgA1pWsWT059VFV7eIA5IrXtIeAOM/TNebKVtT2KUS7p8e3A28dOK6bT7VZFGcc+9Y9jCUIPqewrotMG1geVB4zXn1ZHs0oGlZWpXGMZHTNbljEpwCMcc8dD6VWtowSFJ9wa1bePyzyBz+RrzpzbPWpx0J44miGUAIJyVI6mr9uYzGBw3A4YDI9qrxbVPRTxmrKxBzuU5x61y3OgleJXjCyRq6dgw6Uz7LsIeEtE4PAz8h+oqSOQr8sgcehK8fnUpmCJgkOoGd3epuCbIlvmKlfKkMh4YY+UH6+lT29o0zGeQJK/8Ac6hajtGCqzMCS3J9M+9XBcBQSMjA60N22K9CZVWEKACUbqDztPf8KcsiFx1XjGUOAfSqoufnJZcqBnbnn60GcRvjCuvUewrJjtfc1EnXdnbudOfUYpJbyNIGRxlcZ2EcD6e9ZRvUbDK7Bl9DyR6H1pDPkgybC5GQO34+9RZlKNzQh2efn/Uk8hY2IwPf0NXCjptZJZlIbHLZrME4xtGAPvDB4U/4VYtr4JlGGM4xzWbZVrm7FNIqIQfMAP3SPmz7etakdyk0TIzbZD/CeG/I1zC3ht2DKRtbgKTzn1FXRcf2iqFj5Yz1zhgfb0781yyOSdK7ubi3SyRqmf3nQfX/AAqjc6ErSfaLSU2lxnJaLhWb/aHeqEMAW4DCeRQ3RhIT/OtZJpVYhGikQc/P8rfXI47elRdrYxlFwfulGPV2tHSLUo/s8wHyXCD9y49Ce2fQ1sWrxz7SrKyMN2RyMfWobloZnWO4iwGG3a4BVh0xWRc6e+g3L3FmGa1wTLAudoXuVHqMflU6SWhKSlpsze+zKZC2OGBJHsaoSwbprgqckMFJ9MYq1BfRXkHnRMrBsBSvSmvZKqzfNt3Kc56ZJPNYNtOzIi3F2kZVzbgJIGUMW+UH61ympWhj+Qj92zAAf0/SuwubfgKSVA464z/9brXOawM3EJyMBwCT9DSi9T0aL1OY1GEuwRU+UdQP1rmdVQx+YTjYARj+tdpeR/umdsh2OB7ehrkdajOGAACKOT06da66b1sehDU881RPtN7hcskYzjPAc/4CsDUY9pdsbmA646V1i2nmRPKCU8xmkOTjr6VzurRbchcc5PPYV7VKetjnrwS1ON1FAWIB2+p9K+W/2nvhpbQoni3TImR5JRDfQxRjaSQSJuBxkjDE9yvqa+pNYZUjKpyzHGa4zxN4atvEGlX2m3mZIbmJombOWQkEZXPAI7V7+FquElc+Wx+HVWm11R8AUVoa9pE2gazeabcAie1meFtykZKkjPPr1rPr6M+HatowooooEFe6fDHQD8PPhpd+OJ/7Nn1jXzNoujWly7farSHA+0ajEmOCOIY5AeGaXjKgjyvwL4SvPHPizS9CsI2ee+uEh3gHbEpYBpHIB2ooyzNjAAJPSvY/ip4sTxZ4nit7NIY9D8PWkWhaOsRz/odvlUdiMKXkO6V2UAMzk4Fc1afKuU9PA0Pa1LvZHHJGUjVVBAAwAegFWoc4wM++abH8+CMflVi2XzGAwMjuOteZJ6H2lOBPbWhlzwcVoWloVfyXbgjKkHtT7GHEe4DdzjAq1OchRCpdgQxGMbT6Vxzkmj1aVPuWbSAsqjPK5Kk9x7Vu2dmbhEKYUjkcfpWNDPOcH7DJkcnY4P4itvTdUiglUzW13Ap4y8RC5+ozXmVW+h7lKjdXRv6ZakRyRyquPugkY57fSt/SdP2w4B2yL8pBHGB0H0NZ1nqFpcqHgvLeZeNyF/nH4cGuo0/ZOoljmRX2YcI+SyjrjnOa8WrNnpU8PfcmsrVssqK0bYweMAfl7itLw3ZgWdyWhy0dy7FgCVbBz6c9quWlgVAKcERht7KTn2J9K0dCsmtjPaTBFaS4ViMHkOq/1B61wyqaaHZCgyePT2j1COZIS26DhV6A5yf0q1HphfT5mYOh242kYP3fT61tNEsCWREZLKdh47YPI/SpY4HuWMRZVWRgpkJ+5jqR7gCuR1GzpVMz4YD5piIZV8vD4AA3bv54/pWhfacqEMWRS0WV/DpVk6c0F2xMpZGYqGHJJHrxzwc1cKpdvMroSQjZP8OAMDH68UuciUdbmNDaIIViVBHKny7iPp0/OqcVijXc0pdGWMeTuJx82eP+BAVuXMEViElkUgM+7qDwM9PY4/lUWnB44GcDfHNI0y+WN23ceM49v51rGelzBx0ujDmsTht3C/eJAyQvYfl+tZV5aGUFF+WMjc2wfMQP6nNdbqdwqBl+d2H8Kgvg9g3pjOPzrnntz85YlTjAwcY+ldVOTZxTjdHL3NssqOFG1VPlhVySCaxruBI1ePAbGep5HbpXXXqjlPJ+VFLdck+grCvbdGctkLtXJ3njHpXrUpNniV4JnILaoLySVsAIu3PYE88VWuIRIpLDK54Hr71qpGHRiAxUyMzOFznn6elVrg4YqQQenTn8K9mDPn661MCZO+SQexqu0LEkY49f/r1pyxdWbOewzVeaIJj5cd8969KEtDwqqsZ7w4OPQVC0Z78E1oFQewqIxgdB9a7Ezx6iKAi9uO1QvHkdPrV1oiecjHqKikXbn/HNdCZxS7GdLHjqD+dV2izgd+vv+NaLIMYwOmOahaM/h/Stloc7WpntGenP4npUDQjB785rRaInnGfwqN4Plxg49MVpdmJnNEP4uv8AKuM+Ivhv+1NLN5Eo+02oLFsctGMkj8P8a714Nw56Cq8tusqsrKGQjBUjIIq1K25ns7nzZRW74y0T+wNeuIFGImPmR/7hJwPw6VhUjZO4UUVd0XSLnxBq9lplmhlvLyeO2hQD7zuwVR+JIpDPrb9jPwKmmeGtT8XTJLHqGoSNp9v5nCm2XYzsOMnc4C5B/wCWZFfSiYC9O2Kx/DHh+Pwp4c0jQo2jePS7OKy8yIALIyKAzj/ebcx92NbS9O1eVVlzSEKMDv8AnQef5U/jHNNb5ATg9McVzdbmqIyPXimN9f1p5yRjNROpyQWxx2NMtEEjBRjPHUetRbwTmpJAMjI5qJlU/eA/Kg3DeGGM0oOPU81FtVWypK45piu4OWGRjPAqGjqpssgk8Y+mKXkc9h1FQI4POcVOrgD7xzXJM9Cm7j4nGQQcCpPMbDbvmOOARxUDqBgjg9wOlCN2Ocgd655HoU9y1bzKr4YEnOOKsCAywsVYqyjKjd3FURldj5Oc4watHcQcNjI4rhqbnp0WXtOfcMk/OoxjsDx1qzIzSKpVVLq2B12/jWRDM0MgbAKtgELx83/1/wCdacF2BasqOF5yw9eledUVnc9OmN3DcioCWI2lkHHToadC6ZiAG7CjIUZOfSqU9w0akKdvPAPGTin2E7o33VAwOXHbPY+tc8kd8ZK5oZilRFAAIxnJ/wA80XKrIFRclFbIYAZyBVGaYMF2jDBsAIMfQmpLe4MbBWKsewJycnGTXM11OxO5ovdh7WOPy/LXOxmcYI9TWXORESke9lOeezc9anuHBdQHyQ2QGPBP0oA3wNhNjgbcjj8ayWhpB6mczXDNlNgQcDnBI9DWR5ot55zcMkIErAEtgetW7rUbiWQw2iF5B/rGIzFF9cd/brUEulQrbkTKLqdv45uTnuR6VrHzNGijf3wviUt1MoQZDniI/U9/wrHlsVZi0wE0gONzLwvso7Ct+eJUGFAQAcKOn0rM1CP5WbBBznr/ADreGhjL4bmXcrkHb6cDNY18QwJ3LuzyAckn/CtyaIeXkKSBxlutYV1GgmY7QAAenet4O7OKatqc/fBCCvl5PdsdK529UANGV5HQtzmulvVRCeGJbpnpXPaim7PXODhl9K9SkzyKuxz1yu0twOeaxrpQpJz+HateeRtzZ+Qeo6Vk3ABbJOew9K9WGx4tXUzJgFLZyOOp6d6oyAj5klkgcfdaJsMp7EHsR61fnwc9R7EVUlBHTGR6iu+DPHqmV8fEi1nWtL8W23nTf27bb9SuJItgbVI8Lec8gsxMcxIOSLhSQCcV5XXvSWGpeMvhv4j8L28diU07d4ojkmGLgmCJkuI42wcgwsJCoxkWwJPy14LXr0Zc0T5+rHlk0FFFafhrRn8R+INO0uOQRPe3MduJGBIXewXJA5wM5/CtvMzSu7I+9f2D/gpFB4LHiXVrHbe6rOWgMo+/aqFCcHsW8w+hGPSvtiy8KQXKLHJZWUFvEwaNUTBGPVcYP4GuA+B2nWlt4L0Wy07BtbG0itEDlt6qiKo5zx0z9c17NpWnIQpZCZF5DEkkY7Zr4DH4mdSq7O1j62lCNGnGKObu/AenCaa90oxaZqAQxloVVYpDnOXQDDHPfrWXPbeJ7ZRLcXumhSDEbWEzxiYHg/Kx2DNeoRQO+TKVwf8AaJ/GuY8dX39j2ySMzOFYFhDCZcDnOcY7e9eUqnM9dTroTvLl6Hnj/DnSPFFveXOiHULPV4s/abfUXH2XgZYA4JGSeMHFec3eh3FlK8bx+RKjESRSfL07r6j09a9b0q/sLnUkvryaSKFYizRSs0W4k/3cc/ia5v4ka7p+u+Ibe40y2JRYlR9hQbsHkld2T1616VKtNPlPWUVDQ4WG3IDBgAf9r+lW4xtYIADg9zV28gXYr7Qu4Zwq9Pw9apRLlz8wIB79TXWpcxulYvxHcioAB32jpWlDlHyrY4GcVkxyM0gyCQOPmPNX4pxEVKsSxPQ8/nQ7m6djWs2y77sBvyq55gVs/wAQ9etZULFpVKtsz+FXoXUOMjJ/vHmuaa6nTB6lySNcITwWbPSreWjiwV35XAI5/wAmqoRZztGCD0OO9W7aQMCnO4dq55HbTYQwF7Vljwx/un+Yq3aahGyJBMpQr947eTVGM+VKzo2xsn5aVlFwpcMpdeSB0Nc8ldHfFcxq3MfkASx5MLcMqg8H1FZdzaFQ0m0yxn5toGSD/hU0GosYTC4GCNowSOfpUhuHMPKgN3VuM1y+9E7aLlEr2sq4DRtwvVASCPYgGpFi3SEo8sYb7w3EjPrzUAlyi4QJKp+70LD096ibVBBKQInQg5G4dD/hWTVztUHJ+6tTVtLh4XFncSqLaR8rKoBOT2+lXdU02KAq1u8u9ecZOCff2rClu0vl+V41kbqD2/HNRjVbm2l8me7kljOdpPzL/unvXNKEm7owdCfNdad0a9lfzW77lUsq/eiD5I+gP8q0bi7juJDJFEGZ0ClVHP8A+usa08yWfft2+uB09xWgkKFxLGx3AglVU7SfcY4rJ0uY56sIqV3uRm7DK222IlQklSpXcPcGrMCy3qtcI7RMfvQvJvUj6HpVi7mjZvPhhjMu3a6+YVY/pWWVu1YzQkQEZYqxyAPwwaxlTfQxjaa2s/MBMzSlGjEK54CjAz6iqbSXkNxG0dyB82fKJJX/APXV4tHqUandtuANyO6/KW9D7Zqa0vZZmZntxmP5W8vkAjv/AJFYSj5HQp8unKJvuLq3VZbfK53liOD/APWpY7fy43RfKwPQ8VeSZFifO0K2SAD0qCa2hlaN2GG/nXDN6mCn0tY5rUbMC53MCyFcA9drZrmdS08vLllO05OMZOa7TU9rFwApQA4Dd65TUIni5y7Ak4Xrx6Cqh3Pdw8m4nN6pameDcSqOpxj1ri/FEBWAr5RKEEHjvg13d2iyhBueN1GSrcGuL8RwSvI8SS4jwWAP8jXZTlqjVU7nmd1D5lusjB9qgBg30rgdbs5Lvztj+XbkEbSOor1DUE/0GSL5l2g9R9eRXJavZqkOBjaRXv4erZ6Hi4mmne6PCv2hPBkF/pWleP8ATkWH7SY9K1yFpN0p1NUZvtRXGdlzEgk3EktKtzwABnwmvsSbRbXxd4X8aeFr248pbnTX1LS4jkCTU7RXkiUYB+Z4nuUA/iZkGR1r47r9LwNb21FN7o/Cs4wn1TFSilo9UFFA61u+CvD58VeLtG0gbsXt3FAxUE7VZgGbj0GT+FegeIfXX7OHgh/Cfw7tZ7hIxd6uwvy6j5xEygRKT6YG7/gdewwIc1Q0ywh0+1t7O1XZbW0awQrnO2NQFUfgAK2LZfWvNqT5mevShZFu2h+YZPFa1rCcgghfY1TtEwF7E1uWcAb7w4NefUlY9ejC5es4yWGV6jrW9ZQnAyuB/n2rMtIlb+EAVtWcOGXMjD6GuCpPse5SpmtY7ScNk8ccdq1oASvQbvRqy7eFRhxIQ/ocVp2zE7FcAZ6N05rgk76noxhZF1IlBA4weMH+lXEGAOufpUEM0ZRhI6hhkYZuuKcjGYEAhFHTjk/Q9qwuCRM0wLAKhdhwfT/9dQsMv/Ci9Qqn+fFThREgwCOMZUg1VmlUOMgnjFUmUkSFjEOCxGOmc0R3a8Zye2MVSuLjpzwOOTVWa4xnH1qyrXNZ73BBU9PUdvSoRdb8jcduein/ADxWU15uwOc+3NQi4Y5CkjmlymkYm00+xGI3L074qVbkvGpYlQeVzWE90fuk7s1Kl3JD1Y7SOmahqxaRti9YEIxGenXB/wD1U4XzOhCksR/Ex4HHasVbgXTYbdgdiMZNTrOY1278D7uM9awcUjWMVc6GwvBIAu4E45YnJH+Aq8L3ypEZSScbCOzf/XrmrW8McgbaDnrxWot2rkDKsQchSOnr3rmmrMcoXOoDZIKKdoGeRWzYcxkOoAyRyK5m1vx5cYBVARjpzWva3nmKvUAc89TiuSVzy60JWsa8yB0KAAqeue1QPK1vGY5CXGd8bE9R/d+tJbXZfuMDs1W/KS4GwqCD1LDj8KzvY89rl3MIwHQtWWUZ+x3L7SmeFkJyCB2zjFbkqLJAzYIOzGD3qnq9s7WMttJg7gfIlPUOBwD75796hsL/AO2afAXcCUYWUZ6MvBH5ipm+ZXNL+0XMGouSwAyOMYb+tc7qNv8AvV4Jyxxn6Hmuhum3k7m+ZuR6VjagC8q5IGFPT6f/AF6i52UdLHPamNpH3h8p+UdD71xPiO4jSGRGlUSOGKqW5Y4wAK6TxLqxgf7PbxeZdSrtQH+Bf75x/nmuRu9Fn372uS0rD5pHQMV/3TxiumnG2rPbpQ05pHPalcLZQRwCOSacxBRHEAccdT6Vx97fQMjuWIk+55En+sJ+np2rurmwS3ZtjtKx+UuzZJb1Ncxq1qpcDapYD7+BkY7V6tGSMq6TWhwl5aSu7vLzIeNo4CCsO/iwSc7V9a6+/AiLL1JySc/59K5nUQMEcZPc9q9ilJs+drrU+Sv2oPBy6d4lttetk221/GEmP/TcZyenGV2/rXiFfaHxt8JSeLvAt9bQ5+02p+2wooyzuit8oA55BI+uK+MZI2iYq4KsDgqRgg19Vhp89NXPgsbS9lWfmNooorqOA9/+Asd58O/hd468fCG3kOsxP4J04ykiWKW4QS3U8XoY4E2EjkG6TjBzXMJFhFVVAAGF7cV1fjexs9A0nwf4a0+SQRado8M+pQF22/2lcDzrgsvAEio0MJ4yPJCknbXLKjxj5NrD0c15VSfNNs+wy+iqdNX3ZImVHJAXvzViJnJ/dofx4FR28Jdwz4b0C9BWnHFu4JYY6cVwzlZn09KncmsLeaT5ZJGTA4EQwD9Sa2LO2VQvGFPGc4OfWq1rCQoIPGc4zjNblnCGbICqcdCf/rV5lWpbY9ujRJbW2MYxt3p13J1retflhVogs7nChF5IPqfSo7VRDEobkufl2LyG7Cuh8O6RFLJN9rjj851IUhQcHsuT0ryKlW2rPoaFHqLp/hi21dRNd28MsxXHKYVT9RyfxrodL8DaXdHa+nQxupwRGWBb6HNTadpwtJER/OjA+Quj/KB2rp4w1nBHIuZtrghmXcc+hA659Qa8mpXlsmexCkraGRZ+CILXedOvrrTpkYhY1mLRv6b0PB9+QeKvjW7vTtQiGt2ihzi2fULZS1oY+2/PKsDz6YJrXSX7Q4mC7d37tmAOFb344+ma1Uhjvhs3Zt3jKyh2G2Qg9MdCP54rm9pzfGbcnLqzTtzHNawtDKLmHZ5gdHJB6AFT3GOlXooDHexAKhjZjLuHGRgjHTnqT+FclP4ZutDjbUdBuBbknL2MhJt5BjLbQPutx9PpWlY+NrC5lhtrtJtLm4cw3qBGLng7SThkJJx0zzWTg946mUoc3wnQ3ZZJ1UkEAMQB7cAmpvKiV2c5IjHO7GCOmfrRCqTIC6ku7DYQRkRr6+5OT+NSapJsgbIB3grtBB+83T+dZLscUlbQyJ9mr3oZlMkEZ2KhGVPOAfTPPB64zii6cWm2PcquGC/LwSfUfh3rTSVkLqNwiDkoFAKj161QvbaIM0uV8wHlXwFx1PFbxfQxm7uxTu286TylASNCZCWHzEjOP5/nWKz73kYMrKgJKscEt9KvO5MbFcb5JD8ynnb/AIZqpfKuGIVmMYxuf5QXH8Pv6muynocNRXMi9+8Y2j+Zss3y5/P0Fc5qs0YVrOFVeSQ4LqOUB6n2OOlbeo3awW7uH+d/3cYB+8TwO/r+lZcUAtbddgzM3Mk8v8Td8dz/APWr1KWmp41ZGXdRfZrdII/lx2PHbFY1xF8x7/3iDzW5dQ4LEHrxlupPrWTcjd8ueM/nXq0nc8GutzKniDPkDgc/WoZVLknaPbHSr8gU5Xg+pxx+dU5j5p+Qbx0yOg/GvVg9jwKqKMijb6n26VC5wOatSRsSNz8f3UqIrg8KueuR1ruTPIqIpvk/w8elV5PTbir7oePeoynPTNbRkcEzPdcDoeRULrxwM8Yq86AHsfpUO3k9PxrZM5ZalQrnPbNRNFkkDB7mrhTIGPWo5IwQc8c1pcxKTw/LwMmoJohjlefWtB4+OMGoHiOOB+lVczaPNfitoIvNIiv448z2zbXKj/lmc5/IkfnXkFfTWpaemoWNzayH5Jo2ibjoCMfnXzdqVi+m39xayffhkaNj7g4ra9wp7WK1eyfsoeDIvF3xatrieVootEhOrAqcFpI3QRKOD/y0dCRxwrc143X2D+xf4Zt7XwdrviB8/a7u/Fkmf4Y4ow7Y+plA/wCAe1ZVJcsGzR6H0dECB1NWl4qGJRjgHipgPevGbuJEnbim7s55JzSdqRmKj+pqbGlxJDjr9Kru4PTt/nNS7tw44qCU5wOaEa3IpW46GoiQCfSpKhJwcUFJ2Ebj1/CmFiccgdqcWz34qPlT6e1J6nTF2Bh3XIP6GiGfDYbC565NMLEMTwR05okVSORkdaxlqjthIuCTjO4+nX+dMyc53kH61UQHoHZT7tU0m4EFgT7qOtcktD1KcrllHLDBJH0NSi4Ea5O49qpiQHoCcHp3xU+UZQxPHo3euKpuepSZMLjfE20jcRwR+dT2l5lG3AKcEEHsaokrnjIyMjHSohI2+QHkYyo9xXJKN9D0Yy1NR7kL2HBGC317UPJ5a8AFSPX/AD6VUWTjkBvl/wAmkaQBSAAvzevWuVo7IysXI5cvljkHHy1PbbXkAOckZ3L39qpxtv2c7Fxzg4zzVq0O6U7ipC+o4HIrmktDupttEzMi7VGTJ0PA4OMf5NVrm5kOyxRz5rDMjp/yzXpkHsfTP1pL++2zRx20atcvnGeQn+02O3NT2UcNrH8zgvnLSHBLv7+v0rG2l2bwdnckS2t7a1MURZI1BZyDyzdyfX61WiRrmcFtoUcK0nG4VeeHzId0o8uPcNqHhm46t7e1RTtGVKkKG2nBI4/DFZ3OuMrmVdRlmbKRqmC2ScViXwjKqGjKhjwD0+prbmhLOxYj5TkKx4+mKyL6XKgMq/e4wufxrWOhE7NGVeIMN821TycDArBvDEN3zE89z3rbuLjKleQenPcVz99G43fxc54HSu2nqeXVMHUvk3fPnJHA7Vzt2p6sevNdBex5k5AB6HPasfUQicDBHOc8V6NNnkVNTnbhPvZGRWJdDEh28dz710N2VAPqe1YN0vzZwPqa9SkzyasTJmODjqfWqcx46kdq0LgAseRj/arPlyrAj5hXoU9jxqqsavgPXrLwx488OavqsbT6PZahDLqVvni4s9225iIyAQ8LSKQeDmvLfin4PXwB8RvE3huOf7VBpeoz2sFwB8s8KuRHKvqrptcHuGBrsp1WaF42GVYEEeoIxS/tIR6ddan4H1rT2ld9U8K2BvjKBn7Xbb7KY5HXcbQPk8/vBnmvRw8rPlPFrx2Z5DX0j+wZ4BtfG/xmuJ79YXs9I02S8CTLnfKXSNFXkYb52bPPCHivm6v0c/4Jv+FrKx+FGveIXQLf3+tNarIwAbyYYYzgE9i0zdD1WnjavsaEponCQ56yR9daRJb6fbRxwFIoowFCw9vY4/rWufFyWZTc6gN8gdZB8jej5bj8AaqyXMAtmCRB5cfKCv3vxrmr3wVdeJrvfc22nQIpBLXNk0jjnjYzMAD74yDX5617R3kz6lpdT0qPW40gM0lwrqV3eUEZm/AYOaDqslxptx59u8MdwCHEkBUlSPTt9an8IaKLW3RLi2E00YCqxCsMADByVBH05+tdHq0FzJYSJDYwX8pG1LaeTYjcdzg8fnXNZRYRnThKyR5VpNrLH4hXSre7sLyzvMiVFk86UITgq2zAXjHOOtc748+DieDbtNStJpWsZSVbcpk8hiSfm+XAXjrkV6R8PdGGl6tftdWyW1/5kgQsSxAyMoG2jj0Ar0S7s4dU0+5tLyJZLe5jaN0YZBBGOc/Wto1ZQeh0zxDU0fImopNbqIzscYyDDxn8DWIhY7yAVwc/vAP6Gu/8daJDol5LawpcSRRkqjSHK4yeAeOn0rgZG8nsCQec9a9ShLmV0erzpq5KHlEiZbg9SB0+la0IJTcGJbtnsKxI2EpVtxDdgRitG2uipBGVI4zjkV0yT6FRn3Ne1IZyDg8enf1rQiGC24nA6YNZMU2HU7t2TzWhHOAAFI69xXNJHVCSNW0ZVwMZ4+Vh296lkVkdnXGe/Y/hVGJtrZJ2+maticOMNzx1rmkrnbBrceAJj82QxGQ46/jRGG3HG1JFPfgEetVUlwSoGfQ96mMrvhkG2QcHHQ+xrJnfCRK6JOuHJSfPHYGoPtUsQ2ud46bc/MB7U/zfPB+UowOCD6+1Vb1NuGXnjn0zWNj1qLvuXlu47qLy2BMmchupH1qjehmOFCsyd1PJqoZjn0Pr7Un2sxSdcgjPB61i42PYpU7O6JF4HzSuoznCgYpytHkkkMp4IY9PcelQNcFzwVIIzyarl2JO0DI/vf09ahnbyc25sxXE0aownSRVHWTO78welaA1xEkQ+aYnUjO5sBvxPWubS6lTgFCMc8EZ/Wmy6ikgEbgluyKMn/8AVWNjmlhVPdHdnVYZZI90DRS4BEigFSP51r2d3aarCYioEwGOeMj0Bry4T3Y8tUdoQvRRz+h4Fa9hd3yj/Rrpklzn541I/TBrGSZ5dfL+WN09TrrqyW0mI+5E/A3HBDev0p+mW1tewSQ5aG6QHEsb4Bx2Jrmr6fX7pB9oe2uExnMJZW/EHIqnputJYtMtwLu2cnl34j98MMgVzSpvc5nhpzpX5tfI7c2EdvtWOVpJWHzI7DAPfb6Gs+W/InMeArBeS/BHtWGPFUTvshuxcN0VAwY//XqQSXOoOTLA0Lgf6zG3j3rilS7jhhZw1qD9VzM52sAq9getYGrSBmRkb5wQpHYCtbakL+VK5MjdW3ZB9h/9eqc8SFZznK5OVNYONj06NlZHPX0Yum3BSpUEe5rkNZt8PJMHIG0r89dwYkkt8lCzLwcdfpXP6xaBoWDLuypxxmrg2md6dnY8uu7cX8axpwE5Zx0+lcvr9usPmHjIyeOlejvZBIpI+wYnaK8/8VQssV0NoCgMdoz717FCSujy8Srux53pGujwr4m0vxA0QnOl6jFqCxlN6uYpBJtK5GQduCM85xXz78f/AAzbeFPjD4rs9OtxbaLLfSXulIq7V+wznzrUjgDBhkj6DHpxXvupWiyLtIXYEzgDOa84/aivH8T2/wAPdejsTDFBoY8O3FwqEJLcWMrooz3YWslkTz3HQYr73J6tpOmflPFeGSjCsumh4LXuv7JnhpdQ8a6jq9xbrLBp9oVikkQMEndgFPPfYJDxz0rwqvsT9lnQX0n4bNeSrtfUrx50458pQEXPH95ZD3GCPevp6j5Ys/PKavJHt1uAQM+taVuCfpWdbcLWnbKScDvXkyeh7dJGtaBsDCn8a27JR6H8aybMEEErt/DrW7p43AYHPuK86pI9uhE17JOBnKge/wDjWvboiqOd2MdRWdaIOC23ON3PFa8KoWGFwRwNozXnyke5SiXYgqgBUQqR1K1aRN+3B24Pb1qCFflwMEDnngiriRg49B2FczZ3RVkTRsM7WAVuu49Gq4m1W+Yge69KpjBOGwRgY3UgUrkq7KP7vWpvcfKX2nzkEZA688VXuJ1LZwB9ahaSQD+Fj6YxVV5Mt80bgfSqSI5bBPcgdDlaoyzhvQjOTg0Ty/McHIPPSqEshHJ4HYV0RLSLD3QwBk5/pUf2wlcFTjtxVRpsg84Pp7UO4P4HpRIZcN6jEYxlcf8A66RtQkcDZ17E5xVBZSoI70K744NZuxukakN0AVO7DA5zV1LzzFPUnFYCsUIyQSecirSykHIPPasGjRQsbENyeDuwe2TWraXkjhSMMa5pZy5GeP8AaFXba6kQgKR65ziueRrY7CwuEVvmaTG3Az0Wte3unjC7y3qCGwD+tcbb3rBgQSxHPJyM966HT50YEuxGPnAB/QVwyVmctWnpc6uyud4KYPqQDk1qBnViQcdTiuVsb7D/ALsKCTgZ7H3rcS8cxfM/OTyBjiuWR49Wm07FyY/aovJYsxPOR1U+o965xZW0XWjE4VYrlu5/5a+v0IH5g1rpJLC5By3GSVGcD86z9f037db+btbf93eRjYeqt+B7+hNEH0ZNK0Xy9GXScxltu4kHBAz/AJ+tYmoAGZlZAyqhzt5OSe/5Vp6HK19p/myH97FmKUZ4Dr97+VYfiaY22lzOhYSz5WNAOSzA7QBWSVpHRSdqljk7O3Eonu8fPNK21j/DHngD2xVTUwAvylVbdtXaMc+p71vNpZtdOggLMjpEA7bupxz+tc3fzeW4IYEKcDB7+v0rpTuewnzPQw7lVRWxySSF71yetpGRuVsjPIY9Bz1rrb6VnUuTls8Y4x71yWqsGJ3YAGeR0Nd1F2ZNRXRx2ooZN21SqHnkVzWogJuYAkf7Xauo1HJ35BCj9a5e+i3M2SfoxJ/GvdpM8GvHU5674bIwv8/wr4r+MHh2fw18QdWhmwRcym8iKjjZKd4H4Zx+Ffat+vUgbuo6Zr5c/ahtdvjPS7kKiiXT1UlerMrvy3vggfQCvocFL3mj47M4JxUzxqu4+Cvh+LxF8S9Eju7U3el2c39palHgEfYrcGa4zkEcxxuBnjJAPWuHr1n4NQXOh+F/HPiUBFtXso/D6SsjE+ddvkhTjA/cQXAPIOH4BycerUlyxbPDox56iiX9d8QnxT4h1jXJY0t5tUvJr5441CqhlcvtA7AZwB2xVeNwDzyc4AzVBN2AMDB7mrkK5P17kV4jeh+gUIJWRdgHGcce4rStEVvlLHGevYVQtshcEgD1rRhkx8uOlcEnc+goo2LRFXBV8qvGDz+RresSksZYEO6cgKc59jisGwCSSZDHYBjHqa6TS1AiPEnmEghc4AFeTWdj36MDotG05Lt0lkCtKccBeVrp9P06OOQ7VVSOvGBx6Y71kWEQiVHTcSwBK8j8q3bIxhtxARcZy/r614dabZ79GJ0OmR28sJaUZfopBwfYc960bMi2iZUXMbkLnHKPxyT2rF0pgbpdrbIi3OW5PPb0FdMbUtG6kxquN2xQBke+RXnS0Z60Y20RJe2bm0QukMkjEfvApXPHtWppWmSySxTLdPEUYDYjbwB9HBHX0xVXT0+1LgvujiXABPQ+hx3ro9JtIRbNIQ6sy8HIwD2xWbkkrMzqS5FYZGt3EWSYW80CtvJTKuR/LPXjipJodL8R2H2W5t0kjSIuFkTEinp1PTvjHfvU5lYxYdij85ZUxkepNStpSSRGdSGkT/lqvUgDkEdxnFEZW1OGU7eRyuhalJ4d1OPStSlZLOQf6HdyEf6otxG7HjeACK6mBVvbgzuTIY5SsKY4IHRj+JwPasy90SPWIJrG7hVZGQsjBclDjh0PqpP4Uzwtq0j6XIJY1e8tGe0uGcli0i4G7nnJBB/OtZJSXMiKjU1zLc17hPKiznawdlGBwDmsi5JnTGQQv3S38R7/AFNaN2EdI97SDcuXbv0zt9jVC9IjhLBsMVzjOcD+lOC1OBlCLYkW6UlnxhRjPJP1GB+tZd6xLbXYFEBLDPB+o9etWXleaKBF2oMqAVBGAKx9Rnjg4ecRtndhehPocDJPrXdCLuctTYyZw11qRdlGyOPCpg9yeQPoD+dLN+6jMjIGA+QKR8x9qR7xreJp5Y38x5cpHjBKgAA4OMDryegNVjq22Y+fbXC4UhWMZkUe4IyMn6V6cF2PHqq5Xu2Z42MkqQIFJATOR9T2rAnt5Ltd29oYx90r94j6+9bktu97KJJ1aOJSSI3XaNvq3v7U2eIMWwuIx03d/wAK9GnJRsjxK8bnOnTkKkszuOm2Rs/pUcqFVCKAFAwDita4jB5PIHG4jiqUqFh2Az2r0oT7ng1oszJU2nlhn0zUDLxnJz2x61oSQ7CcLk+uOBVWRWz0P5cV3RZ5FRFJk3HJyG9ulRlMnirbR9O3+6KiZQhwK3TPNnsUnixkdD3qNkJOSO1XGUt1NRsvrWq1OSa1KbRnHeomUHJBHXoKuMhxwP8A9dROOfpWidzJ6lIrnOMZPY1G6ZHUD3NWmXc3f64zUTrjAxjPbtVIyaKMynBzjHtXhvxc0xLHxKk8S4S6iEpPHL5Ibp9B+de8yRZJzXmXxrtU/sawuNmJFuTHn2Kk/wAxW0WQtGeOV+hvwJ8NxeG/hD4UhVVWW7slv5tq4LNMS4Y+p2GMZ9AK/PIAscDk+lfpp4RsW0vwpoVhIrI9pp1tbFH6qUhVNpA4yNvasMS/csXPY30GB3+uKkAxzUUecHtThJjoQPxryyFIeXwDg/lUTNzz607dxx69ulROcnntRsWmBkz1PH5VEzjnnFDnOKjL4pmlxrnJpnDdKC+T06UlKxonca2MDIz2pCNwDA9OuDTgMEjP5UMueMZ71LdmbwItpfjJI6HNIPlJHValZQDnqTTShHXGPYVi3c7YMYhLNwoI6GpgwVehxnHFRPuB6nHpTxwvAI+tc0z0qLsRyJtJPcjG7v8AnRteOMAMXI4wR0FEmU3Dg+n1pwk3Z65JrmmrnrUnYbHMY5gHR8D2yKkeVSoMRG/IJx2U8HP6VGZGUEADOcion/ekgLjg8jrXI1c9GMrIttMYmK8c5IK0yOVJAfkCgcZrPS5d9yuSGjPOe4q9D8y7tqrn0FYSVjaMy4JXkVCjg7SMAccVbe4a1RpWOGb5UTdks3YD3JNZUTES4GU4z9amtHkuJBcuGKRn90GbgsP4+f0rkcGejTlzGlaWbopUKJLmUB5C38JPXJ7D0FXrKJElddrXE2crggqh4/LFR2kU0sT7yMvkuIj1OOmTU0EnktsVkUhsZHI6/wD1q55bHahb0XKsCPKLE98kZrPMsonEbyCMZ4Crz9eat3d9sKCQo3oFGPx5rPSXz7sOGwAM5fgis4xdjZTsV7xjDKxJ8yMdSPvVi6hMszYjOEYZy1bl5E0hB3hyPmIBrndRCW8hbaGZlyMgYU10Qj1M5VOhj3VxsUqqtuXgHFZd5Kck5Ge+f5VfuZ1DkHk9SAM/gKybqVSG2gjjoa6kjgk7rUzbuMFW3KcAZzjisLUQCmeg7D1raumGwksQAOQawL+Td0PGOvvXXTWp59R2iYd4wySeB6msO7fHBOfeta8j4bv7Vj3RIJVgfx4r1aa0PGqszp5DgggYNU3X5cnjJzirE7ck8kdjULxh1yc8jBIPFd8VY8aoylKATgAk+tXPGmj2M3wGg1MfZTqll4ma03G5Y3H2ea1EigREYEYkhmO4EHLYI6VUnJAGcY9zXMeM9Umi0xtPDf6PcTRTsP8AajEqg9cdJT2ruou8keRX2scNX6mfBOSH4OfADwKzy2oW606HUZLdV2ySNcL5xy2Rk7WUcg9Mc4r8uIIGuZ441+87BR9TX66fDb4U2GkrpSX7reSW9tFHbJOd6xIqqqoFb5cKBjgCsc0lFUlGT6mmAT5nKJ7Z8P8AxZoXxA0FLrTpxnjfCzgSRNgcMBXcaKkag28yNKRyrNggr25x1rjtE054LlJYpDHGcK0UQ2qvI6AcYr0nS7ZFVWzuZhjJAxXwc2nJ22PYqNpF+0t0iQBBgdcAVX1OYW8QKI26VxGfKO2Tnqw9xVluFAc4C8sVHGBUemzRX7tcq4lQZVOnFJu+hzRTvcxZvBEVnG11a6hfxXTEyM7TghmPOGBUg+56+9UtT8eW2ieGJp767to76MFVhLrvkcA4wMg811epTK8RB3AegxzXyR8ZrkxeL5ovJlgKk8MOWG44PGaqnS9pPlR105KS98l1XxXJrv2mS6KGTezYIAOP8a5Ga6V5CFO7OeO9Upb0GANGXRz8vzEc1UjlJYlsn3FfQUcOoLQ9B1rJJGvFNxyB74q3DM0THunfmsSG4bcCOPrVuGfOATxW/KNVjo4Jxjk8HitCK5+UBxkA5+UciuetrliuDwAetaMN4C+CcfjgmueSOqnV6HQRTbgAcKCcZJq7G+eCw54BU1jW0y9BkjGeeRVtGCkY6ex4rjkuh6dKoX5GDAY3Ag4yDjNLDcRlgHJGD2HSq6S9FbHXg02cbJTkdR2FYNHr0pXRaupVZ9y/eJwB2xUDb9pVnIQD+Gq8j7lDA8imtKGAGFH0GKyaPYosjll2k9Pr6/Woppo9mcqp7FGpZcdZACB3qlIhMhcjioaPcpMsSzhsbipB7L0qI3Kw9d78fKEXJqs0hj7sD7HtRbz7SwOQWPeueSserTdy8tw8vG0KvTLdvwH+NPW1DJjcd3XPcVWQgc/eHtxVmGQoAY2OCcdelYM0atsWoJolXZJHN5mcblAI/wAat/aPs7KDIFIPXODUMEe4kS8P13AU5YGSQFn3L2O6sWcckm9TYTU3Z1ihcMzAfMBkD8qs3WhHyC7300jEcqjYA/Af1rOt7zDoCQyjgkjmr15fKFwjMcnjIrBux5c4SUko6GabVHATyllYH706Dg+xxkfWqbare6dujM0k1uTg72JdMnnn+JR+dSTXDrICXckHowx/kUtxcQvGo3ICefmOATWMrNanZGHWSuWbGaCZGZJkmyCwKkE00BLjzQGBQ5I5rGmiWxd5oELKVw0aDt6r05+lNgvZvmksmjmhwd6ucMPX8frWEodUaKk9ZJjUlMDyBxuQkqxI/UVQuS0sm1nHlqMqSe3pWpBqEctm+4Lhs5UjODXIam5ALQvtQkk44A+lZWux25pW2MnXJUjvJPLdcBcHnvXnfiGdZI5N3y8HJJrqNVleC6b9+GWRM7t2RmvNvEty82+NJG5bb1+v6V6WHg2zkrU+5yN1KYzOFJCDIBcdq474t+KLJ/gI/ht2iN5B4oh1S2HG8LNaTRXGD1wTb22foK6jU2fyysh3IPlyo7ivGfjCimxsZV/56lP0OP5mvtcri414s/POJYp4KfyPK6/QT4b2ZsPh/wCF7Xc+YtLtsiTOQzRh2HbozEY7DFfA2k2LalqlpaKGLTzJEAoycswHHvzX6KWMIs0W3HSECMAHgY449q+trvRI/JaKu2a0DfMM1p2wJ4GPxrLg+8On4mtW1bkDp715M3oe3RRs2gPGX49jW9ZnkAj5h3DViWEgVskHHTpzW9Yu8u1kQAYH3zivOqSse9QV9DZs1CYO4bsccZrZtolyM5P+70rIssggmMheBkDgGt2whVyp3AL0yv8AKvLnJXPepx0LqxxqQNxPvVxVCAkZCnjmolt0jwBuI/vY5q0kIHJcN+NczkmboZypwcsMA8CgoSD8uc8DPX61bVEZRgDI7YqUW/3eGI68VKmik7GW6uB0OfbrVdnK5G0Vt3EHAwAR15HNZ88O1jnPocCtFNCRj3LEqcgj61k3Tkt0YgDvW3dxgKejdulY92p6cHtzW8ZGsYmW0rj1GTU29tudxJNDRnIP6U4gAc9vTtWkpJmkaY9Scjmn7xnkhRnGarbnGcEmk2szDcT6AHtWLbOlUiwZkUYyPwpFkwOMfjULRtgH5R/u9afHEzAkAH8Ki9y+SxdhmL43HgVchljwBgZHc9KzEZ0ccEfUYGKuwKHILZUfSsZOwcp0unrlflIDrz6g+1aNsxJVvuNxkbsDNYunMEQks/8AwE81tQFGEZYqxI4KYJ/E158nqYyVjo7SBUQuylt3OV/oK0rSWNiyKxfAILHp+NYlgkp5aRlcLjarVsW9pGkit8wBTBcHljnv/wDXrlb7nk1t9TZyHXgA/Pzz1FOmVZrWSP8AgYFO3cEGqUt0EcABXUdRGOR7+lOkmWWMoJtsQG55CRwKzVzyrWMawuhaXF3bgqfNCM5XoHI2v/6Dn8apalcDUNYtLcBWW2UzNxwD0UfXkmmTXdtb399NExKvGxTLYw6jGfoafEsOn6Mkqllu5ApbzcHe5HUn681tKNtT0I2TUrFbUJDmSOFE37cNnooPbj+KuP1J0i35jwUymM4A+nrXVyzfZk3ApIGGWOOST1JOa5PXCjOZAxU4wQoyMemKinuejR7HN3O5xneNo44OT+Nctq7qgJYhQO7H69K6S6ieTfhpETk4GFz+lc1qSoHYeSoc/wAQGT+Zr06T1OmqtDktSuS7nG4j/Z/xrmNSaSI/8skXrtGT/hXU6kDvLAc4ztx0rl9Ri3ZLHJHavbpM8Gur3OcvfOfJ+Xbzx0rwD9pzSFbS9I1UPiRZjalNoOQQzg7uvrxX0JeHKfKCABnJ6V4V+03g+ENNxz/xMB/6LevewbvNHymYpeyZ81V7joGpxWP7PumaMGuUudR8S3OqPE24RPFBbxwxOB0J3zXAyM/dxxXh1e8+NNMj0Pw18NbOJZ4yfC8d5KJscyT3dzLuAH8JQx4zzx9K9bEO0Dw8BHmro5qNgOAcZ9ODVqMAOOTz6VUQjpyD3xVyDLkDNeTJdD7yitS/FnAI5Ge9adskhAJAIJ4A71nREA4OcZxxWrZlUIOSPavPmz6DDq5q2cRB4THY7R0rqbJdsCkAliMYJ9RXN2L7gAd4B5JKnBrdsXw6htzKB1UHNeTWuz6CgtDstGkkhKCQr0Bzt6dO5NdLHaidDIpLxg59fxrj9PvmZArriMdyfmxXTaZdrHkKWRSMAd/zrw6id7o9ik+VmxaYQ8MSR7dPf2Fbcd7LcQEblVVGGfuB7H+tc5GzkE73ZX4B64rS03DYRSwTOG2AAe+a4po9aEk0dJp0rCHybQOXL8Ep2x1OK17G5bywrvukLZZSehHXFYUe2ADaz4ABDIece5GK1bdVljIJIk25BGcP+R6n0rBrUmpFSRu26wTlnJZ2HzjBBPHb/PtVuOcRyRiV5GxgqgOV69MZ9ax7CWGC4jTZsXAG7/H0rVhltY8yfPNtJAwNwB9RSPLqpLQtaugv7YFA8c6sPLmDABD6ev19a4yCRtA8ShX2iC/Agm64F0D6n+8o4PeukE6TXJWZXZF5GASo5wOPrWT4v02HU7B0h2IyEZfO0pjo/H93r9M1100tmc8XyvlZaupGn+QBiN2fkJIyaq6kknkMoaMtsKhecjPHbp6VF4au21GydZlCXVpIILhmblmAHzAj+EgZH407UkxhQ4Qqd7Ki44H6k9KajyysYzetjndW1SSybyLdYp7mQGFAFJAPqfYe3rWQNHhjIaZpZrtufOLEbST/AAnjaAf8mtIJ9o1q4ukj/dRRrbBc4JOd7Hjr/DVh0JV3kZlDcbC33fb/AD6V6EXy2sclTYyEsUeT9225SMNKzF3YehY849qWa1MgVlVdqkEDoeO9aCQqxcQyHPQuzHNQyFlb/VqpI4Qjj6+tbxm7nmVFczLmIhlViuByqqME47VVuIOAHYJ/vdPy9K0pEMcuzh3PzAquQP65qo5dcrtG7OSTksPr/hXdTZ5NaN9jInj3LyQVHQjv9KpzRl1wAwHHyjrW29r8u51YEd+h/WqcsIJJ+6oOSQK9GnJHh1oq5iyxYAGOPeqskecnHI7VpywhmwoLZOdwHFV3hQcDJPqa9GMjxKqMyWEgnp9BUDqMmr80XUHA9hUDqNpAUZ9lrqR5UlqUmX/OKhZeCBn8atyRnJFRMvHUdc1dzjkinIMDORn3qF4z1BHpzVx068ZPpUTpgkEH8K0MGU5Izk7uc+lQkAH8KutFnscCoGiO7sPUmtOYgpsnTjmvM/jgNvh6xHJ/0vOf+ANXqTpgHIrzH46DHhuxOCP9M7/7jVrB3ZklqeW+B9MOs+M9B08HBur+3gGRn70ir/Wv02u9v2+52/dMrEfTJxX5xfBRA/xi8DAjK/27Y5+n2hM1+jAcuxP948n696wxb2FMniGRjIH1pOnfj0oXgevuafwAQR1rzyFoR7jn/PWo5M475HpTmPJAFRM3J/oaL2HzIYTjv+ZqAnP9KkZgoOahY5PpWiKTAvjJpgmA6nn0prkHrTQME9xQzWJOWDEf5FOHTue3NM4x1JFLnb3/AArJnZAeD83GMexpXGDjI/CmhwTzTXwV/WueW53QVgPGCT1pP4s8/wAqVI+AOuen0phQnIx27iueWp30hSAVIyc560108tgcHH+zTlZSCvKt0wRQ4LYBBA6cc1yydmexT7kLfKjEAq3v3pkTFW2cdM7s4p82IyFOcY5zioVIMmcgf3cHFczOpMhm3RXYYglJBsJxwatRSAIVBIY9/fNVb6ZSgO37mCDnqQabJdchosqW+fjpj0FS0aRkkW55GUiLPEhEW7Pr1P5CthmjitIEhAKEqka9hj29uK5I3Ms1yN3yiNeDjAH+RW1Z3YZgxJJQbUBPHbLY9TWUodTqpV4rQ6Vbp4oSm0Y6centTI87C6sB3BYYqrHfKIQC64IAO7HWnHEibZCVRj8u0gZHbPtXnuNj16U1IrXMhZgAQ3O0kEHmpkt4ydrgsSvAHT65qJohlgqjOc/KO1LLe+SmNrgZ/iqwk3fQhvAI1cAuqD+7g1zWozqY2IUsAT8pFXb7VGfMWQFPTJ5Pua568uiVYAjG7A9a1gRJ9SpdOpG4YGR90HkVk3DsUbqvHO3I/OrbyZLAMSKz7rAX5mDDqQK6Yo45NbmfPJtUgkfh1rGvCzDjb35NatyRndkYA7Cse7bIyQOR6V1Q3OGpJWMa7IBOcZ7461h3Y3OR2zWxePyeSD79RWHcocH0z1r0aSseTWZn3ABJwM5PNRSEc8j8almAPsOnvVKc/McnI9ua74nj1WRTlTgKRx71ynjZf9AgPfzew9q6h8beABn8M1zHjjnT4BnP73r+Brtor94jyK2xB8J7JNT+KHg+zlSKWK51izhZJ/8AVsGnQEN/s88+2a/ZjTPKTU5zHHH5COyokePlGeAABxjsK/HD4KX39mfGPwNeBWkNtrllMFT7xKzocD8q/WfwT4jj1CKK5jiKJN8xRhyDx615uc3ajY7su1Uj2rSo0kKTZKJtxsIGCD611NlIm1VRdyY45ytcTpGpQsE80xpwGHmNwP14rp/7TjWEyR7pgFziAbs8dsda+IlKzO6adyr41DJpMs8dz9mMY37Y2ADAZODkdPUVP4L1gXPh+2J2IdmCsRBXPsRWLqHia0SxnnuoJ4o7eI7/ADrQbs4zxnn8OK8Th8cXMH2p7W7vEheVmSNp2hKZ6EIGx+HINVCLmvdRpGHNDlZ9B+LPHFn4Z09prhiWIPlxpncxAPpnA96+SfF3ix/EniW7vm8zbLIfkdy+0ZPHNX/FDeKvF7wNEmpXqAiAXE0DugYk8b1GAO+BXPaz4e1fwVqEUWtWLW7SoHjmVGKOD6FgD2PGK9rB0VH3pPUj4JJEl1L5sA2oqqB2U5zWbu56fnVi8v8Aaqsg/h+YAcVlyzhwc4Un0r1aSZvUlFbFxJWBHPTvVqG4YsMn8ayQ24ZLAj61agcr0J/Gt+QwU3c6C1kAHDH3BrRhmJ4ZVOONpGTWJbSbQMsCMZ960YrhXzjoTjjjmuaS1OqnJmzFMFIKPgnt2NXUmYcFufesS3kQEHkH14q9HPsfODjHQjFcskerRm2a0UjgAErj0BNSFmzj5FGeCQaoRT+ZkqDxweakWbew5HH97oa5JLU9/DzuXJfkC4fdn06VDvU4yW59AKieVgR8ox69qfu3YIAYHoRzWDPdoyIXVX5wxxzg0xpRGGyo/wCBCnySiIn5tvb5D/SqjlZGGc785wegrFnr05WEYi5Ck/u1H94daUQ5PBA+vanCJN2RkL1GacCPMbOAPbvXPJ9D1Kc7Dospzhdw45HUVato0Z8jn644qnsBl3puA7g84qc3IQtkZI9ODXPLU6+e+xe+1G33AjP0OaRrxZflCsOO1ZzXalsMCQezVBJcsVIT5UPXOC1Zj5FubFrOyuwRl25yTICQPyIq7JOABhxn+8i/41zMV5hgNuMfrUy6jniNELgcHacCsXFMmVFSdzZuY2ljBkZjnnnjP5VLYW0VuxIDYPU4GayIbu6nO3eqkf3Fx/MmrCvIQTJdSbvTAwB+Vc81ZEOnLl5TVmKShir5x3zwKwdUVbZZZrVwhdSkozhHB6n2b3q1JfrLbiP5mA5yDgH8jWTqN7vVV5VAQMLWCXQKdJrRlQalcW9oot7e4lhCgMZbfcuPXcrfrisHU9US6t3jjIRnJDKuMYrrF1cWkDorDJXkDoa87aRbbWbmNgEhdjKuQCMk9B7e1bU4J6nLOpaTMHXrTMYmjAEeNr4PQ9zXnOuXcP2txGThDgKO59a9F8TThrSYx9juKA8HrXl84MEbs/8AESw5zXp0I9WebVxLlozmtSuny6lCFPJVhxXknxccHSbMANj7QTg9vlNes6jIJXYqNyfxMeTmvKfi95a6RZhDz9o5/wC+TX1eWP8AfxPhuIpXwM/kcZ8NbcXXxD8MRHo+q2qn6GVa+/YyDK7dAWJH518HfB6Fpvin4VCEApqUEmT6K4Y/oK+64XwBn86+nxL2Pyiga9ucsP5VqW+Aecj9axLdyCOv0zWvaPnbuGDn0xXlVNj3aHY6PSx5uG284yBXQ2WQRkAH2zXOac445ZQOgU4FdBZlg67SBn0ryarPoaC0OnsmZgCBn2xWvDbFtsiYjYdSBxn3rDtFk+6Wxnk9jW1alCq+Y8jewPX8K8ibsezBaFyO6ZcRsCMHl15FXbaWJgCZgpJxtztqqqxgDaSB7MDVqORViO/kY6uRgmudy7G6Vy5FPDGSWkiwehcjJ/HNS/bIpZAV2ccfuhkVnq6vtCpGpHzBgv8AOraySBV+VScYx3rO9huBIbmNSBvVeMYY4xUFwQc7RuHbBzmm72YMGOVJ5B5571FcqiJ8nyMf4l4zx3pi5EZ10uDnAGc9PWsq5j8s54bA9K0rmUjIc5UcBl/may7qTexGR0POa6IybOuEGUmYbcADPfFQsw24OfwNLIxVjtA9OTUXnHOSv0wK2Uux2xhbccpWPDAZyOncUbm3Ak4b3oSQAnPAPHyjmlcYPYjPXH8qhyOhRQ5WJzu+UepqRVx82Qv1qIgsoAUjjvUkAwecj2PWs3ImUUhScucE/wDAqt2+93wc8dgCahQ7H7j2q1ASWG3K+/pWEpGXwmlp+9SyjGCOMmug01XjlRpDxnCjtisWzt2BDK4yeMnkVr229w5Dh9v90ZI9hzXHNtnPPVWN2C4QTqxLlnG3g4IroIZ1Rdpbdu4IyPQc9a5jT4fMljMjsyjoFbqPWtYxbmBDzqnbBx+B9q5HvY8WtDWxLdTiDHlnL/dAz0pk0jeWsEQAjIDMPVqrXsZEow8kgz1ABwPrikt52jmccYDZw3GRgc10U9EcttEULy0Ly/Z2Vo0AMhYcA5z8v86ia7a3iCSL5owcFvmC+uPStK+1eIXHluoYkY+XHB5wP51kX0hdiyLkJGXwRyfQCt3qdabaSaKVxcyNvZVDAce4/oKxtSeWRCGjwT+vtVlS0kDMzmLcclTx+FZd44kZgXO/nqeAPpWGzO6kjGvZTBGVYHn8jXJ6jIGdycDqcDiujvzhCC2/PcHNcrqcrgsFX5SM5A5/l1rupdzomtDA1IoQS2cDjnGa5W8CndlgOuM+ldJex+YC3GMkAMcn61zl+wUncAPoBXtUT5+uzn7wcEKOD0NeFftNfL4R0zgf8f46f9c3r3G+YsT1/A4rwz9phseEdN6n/Tx/6Levfwf8RHyuYv8AdM+ba9w8b3txcT6DDcTG4az0LTLdSz7iqi0jYL90YA3Yx29T1Ph9ew+KFuLfxHeWlwyme08q0OxmZR5cMaYBJzj5a9bEvRHk5Yr1WUV5bGBjuR3NXLc4AI6VVi5bnkevY1Zj+U8YFeXI+2oo0YmGOBzjqelatkMkDGQepArHtwSePzJrXs1AOABgcc1wVD6DD6HQ2XG0AAnH4VuWMDnll6nIrD0/OVJAHpx+ldVYKvkx4IJ44HWvFrH0VFF+3iO1E6AnJNdHp0YAHIyBnjqf/rVmWiqwwAST2dRWlHPhFCjayjGBxXmytsetGLsbEXEiDIC9fWtGCMth9jjse2f0rEgchQC4BbruYVrW0jADlsfU8/WuSa1OuBsWgcw8F41U7TwTj6itW1uZIWVlYyqFA3H/AD1qjpN4lvGVKk7schjgn6VovYyP8yOyg8lVJHPfiuR2vZnQpKS1Ltrby3Dvj5u4AOQT2B4rWhWdiI2CIc5IDZ6e1Z+my7tql5nZRhgmCf5cVdWOcTh1QyRsT8rKA2OO44J9uPrSZ59V6vQ05LOJ7JHlihLKuPu8nr19utRPapBbiIKJtw+ZVHAXuMf0pbjUFW1QybLYYAxPmMnHoeQc+xpzSLtO5AXbiME9fTHtVxueNOo0cvEf7F8TwTSDZBdE2BiQcBvvxNgdsfLn8Ks6zIJLa5vCmFhjZgucbio/xqj4qinbUtMMq+RtuYTIScFRkgMfTBbrV86e+qZjaQHTbOUJJ5b7mdwAcEY+5gjNdvLopMmU9OYp6Lov2e1XepDuvnSnrmVsHj6f0rPvLNGkwZ28sHkEkEnvxiulubguWRN8dt0JRcFvYe3Ymsa/to2OURod3QlSoPsT6frTjK7J3MpUALLGpkyepB2j69P50j25aYqSpLA8qSCPYkdvarCQtGSPLSRj02tlR75pJI1iI3bTkg7YkZ1/TArrijkqIrNGqFAgDyj5S2cD8PWqzQBCx2OXOWztBA96v3EDYaQCXyxwu0Y5+mRVKcLcMUZfJx0+Xkn3PpXXB6nl1UZ9yRkBM7s46cZqhJbsRyc85HGB+NbT2sFunyklzkEx4/nVC5B6Ebh7dRXfTZ4NdGVPATyduT0waoyx7ifbrWoyBuIxj0JP9aq3EL5ziP0yST+tejB6nhVUZM0ZHYjPb1qs6Dbg5P4VoTR7OuMn3qtMnpXZB6Hk1Nyi3T61BJGcCrbLz/FUTJkkntW1zgk7MpsmcY5+hqMpnPBX6irrLyMZ/KmOmCcVVznepRMeOnNRshO6rvl88HFRyRlBxj8eKoyM2VN2cDPNeXfHgY8NWB/6ex/6A1etyJkeleVfHxceGrDt/pn/ALI1dVJ6kHnvwS/5LB4K5IP9s2hGP+uq1+iyHPJ4r86PgrgfGDwRk7R/bdkCc4/5bpX6JlsE8jrjrWOL3RNToWEkVBgnrzSeaG6mq0shxio4mIIPH4V51iC2z57YHFRu3NHXvmmkgn2qhkZPGDzmoXUg46n0qVzzx6VE4wM07giFunFNJxTm5pjjIHPvxRc2ih4JB6nHtTllAYZ5H61XJBxTl+WoudcGW42Bzzx0Bpd3JAx6VVWTavy5zS7trYIPPtXMd8X0LquABz+NQG4weh54pqsQAOv9KHiLkEn0/wD1Vi9zvgyUnIBUhePvE00uu3oofvQuMEAn0+tJs5ZnK9TXJPc9WmyCQNvDfJgjGAMmqkgMTE/K3uwqxdTngKAF9qpzSuIyvJyc8+lZcrOhybK7B5ZFQB8Yz8oyK3dJ0ITSFXcrtGF2j58EZ79h0qppDNHKWLrjnr69q7WG3WEW8ix8o6oWA524Oc+1ctWo17qPQwlKM9ZGVB4UgDuVd33DJ8wg49unH0rmdZgbTbwxOzIDyCvGQa9Xhit1gmeKVHB67Wzhsc/jXmnjsJJqEGSWdcgjA7E4OawpVXKVmb4mlGKUoj9IY3UQDYcL6nittIgnzjfIvOF6kD2rmNJd4nAGRk4+Tn9K2nuxCApkHB6UTV2a0pcqQrXbQyseMdMe1Zl/fmJt+4Op/hPOPwp2oXu1iUBIPfNYV7c7zgHPfFR8R1puxDcuJJC+T68ECsm5zI5AxgDPBq9M/wAnHLHj2qjOWRs7lDE9u1bw2M5K2hQkRgSMjJFU7gHPzbenNatxESu77x67icisq5O3JPzDpj+taJ3OWcbIzpUbcecEj1rEvcgnIJ+lbE8rAE5HsR3rHvXJYtg49q6obnnTaSMO65DZ5XHNZFw4CnnGRWnqEpzn7pPtWDcyj5sAn8K9SCueNWqWZXk9c4weo4qlMMZ54FSyScMM7ec1A7b1Nd8VqeLVnfYgLAnPX8a5rxxk6fBkn/W9/oa6JhuB5zjjmud8aknTrfP/AD1/pXVRX7xHnzehU+FjSL8SfC3kgGU6rahVJIBJlUYyOa/Ub4calfPpyARwB4vkYSSFegGTgA1+XfwkRZfij4QR8GNtYs1YEAjBmT14/Ov1Q8EWE2l2SQSJBHKHJcFeW9c9P5Vx5tbkSZ6OXS5bs9J0e/1X5ArWrjhj+9kK/Sutgg1MWQbfaSB34iRHmb8SWUgfTkVzmiymNg7qokb5fk4/If4V1cEs/k/J83ykDB6H64r4Sqtdj2nU8hbG51WS2uI5dOglWHO4SXM0SuPbzEZefZq8O1LWPN8YSwXmzw7BK3l3A27hsDfNgruyffivWPG/iefQdFn3R7pXXauMfKcH5sDk4x2r53vNSN9fzS+dLNLMxLlQzu2TyFTOWPt3rfCwc7uxcZR6o9V8b6l4fvdCh+z3msNZ24XZbQ2RNnK4Hy7mQBlB9R26YrzLx14jjvrSw0/7GloIV3fNGUHJPA3fMR/vHNR654meHSINPWLxJEsQ2/8AE1je1t+/SPew69OlcQ7OHaaUmRj7E/rXs4XDNPmZhWqQfuxRo3F2HUD5YwBjCDj+dVRISBhs1S87LE8n6mlafLc4z9a9uMbHDKSZejcqT0P0q5BKMj+feslG3AZI9vpVqCQE9elXYw5rG/b3GVwTx1FXYJAeTjkcEmsSCTgbSR9Kv20vPzMDk5rnnFWOynPubEMuQCGIxVyGR5D8zKM/3qyFlKYwT6cVdS4LAA5xXJJHrUZGpHKFJyCwPHFTx3K7cDv14rJ3sMnIA7inJc5wM5x3zXNKFz3KNQ0zPjnIAB5A4p4uhwRgN6nrWUs4OS2Mk9RR9pQDkke5rlnE92jUuaE93vJO7gcVAboE5LYI98Vnz3A2/KxPTrVKW5Ckcj5j1Nc7hdaHr06vKb8F9vJXlv8AfqYyqDxwcdjzWPZ3QVD3JHrVsTc7mOQOoJrlnDU9SnUNO3uBFGQN3/AqVpcKxc8k5wOaymuQwxk49R1qRpN8Kbc9cE98VzOKOuMhXJlbeFUY6ACnkNhRgnIHPoaabuK2IBYc9c4zUS6zAQSW2Y6EnAqWW6rexO0LEAAgn34xT0tWgkUs2AR1xwP1rPTXo3mbIIHQFec1aiv1kLDDdwMHvWbNqdWRqwylD8qlscFh3ppfzOQvzdSFOKpLdBiq/OFAwTn+lTw3gjyGikdPpk/rXJJnandXQs85iQhlUyH7oQ9KypYi0rFj85HTnGfer93OZmBEfle2MH9DVG8McSjmRWA5IPWsxTlyxuV50MZCuhLf3lXIFYus+H2kInH3iOgGNw/xrRt52uLmQLIfL4BB4z+NdiYojHGhKOQmWBPatISSZ8ri6r57HhfiPw/NHHmPeS+fkfqOvWvNNeV0j2gElchgc8V7xrl1bXmpSho2R1JAYn5cA9B/hXifihvLvbzykwolbBHTGTXq0pXPIqTcWjg7q6KEqw8sAccYry/4uOH0uzOAMz9hj+E16bqk63B+dAHJ9e9eVfFQsNPtQTkeecZPsa+my3+OmfM5+74GfyMz4HQmb4q+HQG2bbnfncV4VWJGcHrjGO+cV9wRcAHI/Cvh/wCCMvk/FPw8cIc3O0b+2VI496+2oTnFfSYh6o/L6L0sa1qPQ5JrWgOMZByPWsu0xgHgY4rTjYBQQevSvKqPQ9uhodBYNyOv/Aq6iwwQOST2O3iuSsn+ZTg8DoK6XT7jfwMk+56V5FY+kw7udRYgEAKe+Se30rXtwgIwAT3J6CsSxYyfxbTnsuARWzahpDtLBvoMV49Tc9ynJGpbByRjJGcZ7Vais2YszBRycZ5xVSBwpPzbh7citH7QqoBuAY+nY1ySlqauXYkitsSlQccZBNSXSiBQu4k/lTE3soIIKgE5Iz/k1FcE7CTJxt+VW61ne446sEPzMwZcE7QPX3qneqI5AF6Z5z/OpvKkcZHyKOgP86jki3hgQ0jYwD1x/hVp2N1EoTxl+AByCD9KzL2Lyfu52k4x2Fa4AQkbgT3A/rWfeou5QCCxcdOlaRkdcNzJkiyOBmqwjJJwpz7VryWuWxuHTqOhqJoAoIUD+taqZ03KscC85H408x88NtxxzSuNgDZDdPpTGlY4x8vtUuTYyeONAfmPFSS+XsBU5/rVRASOuefSpGJKkZXP1rJyYWuSB1HYZJ71Yswxc5QgE4JAqpbxl8Drz1rVht5MrtUgnjA/wrOUkiJLQ3LJIyoUMvB+XBrRsrF/MwDiMEktjtnqPeq+m2TCMEvx78Vt2tu68Bhjrgc1wSk9jzpy5dCXToFSfZhjjJ4H6mtkgKmOFH9/ofw96rxx7Z0cPlSADg5H1q0ykBwpGc5BA/KuZu55NWXMyGW2VVJG7d2z1rMuYXmdmQfMqkHHoK193mlSQChXJ571h61etYsbO1IkvLlSqqDzGp4Ln0A9fWuinJmME3JWOXCsbKaRwwYu91G7fxFc4z6jFaKtHc20f/PN1D4b3AqeWzDWEkCs5ihgaFHY43PjBA9RmsvSmZ7C2K4wsK7s+wwf5VtOpdaHpO0o37Fe+hKeYsCgjPKg/qDWJPtZCNoSQDnzBzXS3BVVYjPXkgGuc1W085iVk7ZBBwcfX+lZQnc6aTOcvlAZsLvQkjntXM6gGjc4MYUckjqP8a372doJyjE7c5BH16H3rmtWmCyu0ZAJ6DjBr06RVXaxganJhcghhz3rl9RlwCuHI6nuK3NQnILclQTnbmudvbgFWAODXt0j5+u7XMG/2kfLnHqa8O/aYIHhLTcf8/4/9FvXt1782SDjP9014d+0qf8AikdN7/6eOc/9M3r6DBfxEfK5i/3TPnJV3MBnGT1Ne0eOLJrLx54jtpZfPeHUJo2l3lw5DY3BiATkAcnrXjdtL5M8cmxX2sDtcZB+tfQfxliCfFvxcwjiiWTUHmCQnKAOFfC+gG7Ar08U9jzsr/is5nTtOa/l2Lj1JxzW5J4XkjiLI+4gZIPJpPCDxCV0bBY9M/hXYzmNYg/yjbySOM14059z7CFRxkkjg7aNg5HII9a1LMHpkZ+tV7gpJdybdq8njFXbNCCG6D1Fcc3dH1OHV7M2rDAdeFwccqMmur060JCkk7T04rl7AgYJBz9O1dXpau2SCQOwAOfrXjYiVkfV4SKdrnUWFkj4DDY+3duIyK0oLHzHQbWOD1xxVKyyADvzgdCep9PrW9ZhSc+Zt7YLjmvFlN3PcdJJXKZhWMkfuwegLdR71atAyjLMfUHnGPan36oZgBjpwAQM+5p0UZiZAzKrHlQOePai5zbGzpcojdWUKcnBZjlu3A9BW3Fcb4whccnd15FYMciySKWLg7gGIUgf/rrfsktj91v3ir2I4Ncktzbpc2oLRYPJGMl8bmU4Jz6YrbhhiWHncu1sBiMc9h9KwYb1XhLOxyF+6RnJx2HetlLySK1gUW878Abgo+bv0LA1i2zyMQ5FTVPOGFuTHJEuRsBJB+uag0+NlZ35kBDLCitkxY7j6dAKl8QGZrOKRbedEZhuJCYGex+am6VOEyzW8pby8bQUOMnn+L2Fd9L4TxqjM7VrGOWO4Yku8kaooZj5nmZJH4/4UltHJYQXMM7somkaYyKMnLcY3d8Aenat6WWCeNWZgFjO4qwyVP8AtemM9az7/wAqa2UIFm80BlTgnnsa6lK6sJytEy0vXKmOFAUjGN8nPHsPwpiLFcLvK3Mj9MqSUx7gHpSrvW8nSFdpQeX+8GMEZz2609J5JAYmkEZ4AKcZPck1D8iqbuRQrHZvukhDD7qbgrED1G7PPpVS93TSnYJSh4Gcd/zq+trIS4k+Zc+uajlUxoWG/AyBuUn/APVW8XbUVRLcovG/lFCrsMjl1yRx26VSmjAKnzGAIy2/OPzNakcDzriRiWbkg9Pp0zSNAAoAiVhnpt3H+tdkJJaM8isYlwqlmdFL56MOP1FUZ7QkkudwrZuQrLtV9oH8LHA/LFZkkeM/OgzwSGr0KbPArmZKpjB8tRjpjH+FUZsvyRt+nFX7hGXq+7noD/SqckeeSMj616MWeHVM2RApOO1VJFPOCRV+UEdh1qnINxOQPxFdcTyapVY5IwO9Mdchc469qncHpnHHao/L2962WhwS7ELLzmoypJ71YdBgUhHGDWiZxvcqsuQeCMVBJGMnkVdZcjgdBVeT5lI7jmqRm2Upe9eT/tALjwxp/T/j97f7jV63Lyp4yD6V5L+0CCPC2n5/5/R/6Leuij8RHU8n+HGoDSviD4ZvWOFttUtZic4xtlVuv4V+k12QLmUIcqHYAg9s1+XMMrQSpIhKujBlI7EV+mPhq+bVfDekX5IIvLKC5BBznzI1fOf+BUsZtFinorl5vmFAGKPzppOTXm3MVoPD59qCc5zTMZ7EiimWDLznJ/GoWyy+1SdSPamOeR70rmiRC3B55zTHbjNPf5ieAMVG3HWg6IrqQlsk5z+VPBIHbikdBkn2pV6e1ZNnRFWH7iDnCj604uQMY4NMwSOOe1O4I4JPPNZM64j4iRkk8VM8mdvPPGMCoFbcD2FJvyTjgjr6g1hI9GnsSpkY6/yp7KXPQgdx61GsgQHZn6mlaVgrAHAxyO9csmelTIJ41iUkhmYevNQNEvI/vHPTmpZ43L7hkjHRaiYFnYZwcZx2rG5utSUSJEn7snIbk7hngf8A6/0rqdM11RaFJMK4XA3nr71xJDpzkAH+FTgUy637YJRIyrvAKhsEDnkisJw5tDuo1fZvyPRhr9rDppKsqkgHbkBmbHT61wniO5W/uE+UAgDdgY59P1qncXGdrnzHdWwXzuOKI4jO24j5cjBA5/Gs40+R3N61ZVdEXdM3Qxn5gqqMEmrIKSIGJVm96ktgERfl3AYJBqSRY9jEJhic84rGT1OinHYyr10+YfePuM4rIulBkPIC+wzWzqIVBnkHvnvWBcvhmPGfQHNOLudcipNK8Y+bkE9s4og8px8xJ+nP501phLzyR/tVXJAY/OqDoADitjGUx2pTGNiFLKoHHOKwJ7sF1G3I6GtK5YOmGOc9ycmsiaEBid3A7VojB6kNwR29c8Vi37bUPQj1zWy7qkbKM5xzkZrB1F9wKjI+hrop7nHWso6GBeDeSB2P5Vi3Y5IGc+/Stm7JIIJwPrWVcsRycA+g7161LQ+crq5lSqVft9RxmoWOWPXirkwH1+lU5V+bPeu6Ox409GRuQ/rn2rmPG7L9jtlBJLSE4+g/+vXTH5gd2T9ayPFnhi6ufC9z4hDAWVleW1gwOSS86XEg5xjgW54znkV1UP4iOGo7o5Dw1qD6T4i02+ibZJbXUUyt6FXBB/Sv1s0O9LMZgGeJ2LBsBWYE5yMYr8gAcfWv1g+GWovf/DjwlfSSCQ3WjWc3zN94tAhPtnORx3BrkzeLcIs7sBJJtHtGhXDqgJVNrcqG3bgP1ya3hq32OCUfPwDtG0gE+xPFeUW2uy2gUec6kH5Qrb/z7/lV+/8AErT2qRxsiPjA3DD7vp2/Gvip022e3FxaI/GH2nUHlnupd0pBCxpIHKr6HA4+ma89QwPMglRLdw+wTvMcr9RyfyrppbeS7jmaOGbUX2nc0aI6IR/eOOMVa+H+mW81/MmoaLc3hdTsJg8yIqcYGCAAfcdM110pKnE6Iu72IfD1hquu29+s2vNJo0ds8S21tK3zMvTgp0xnkg15HqttJa3syKWKqxGDyevfpXtPxCOleB7OU6bpdnpOp3qtH5pBeby264xyOR6ke1eIyLmSQtISzHOT05r1MFJyvPocmISbsQoB0IB9SacvB4wee9NQYUng0EYOefrivYR5siZD0yfpU8bbT0FVQTu6fnUsZJIHp0+tMyNSF8dRj3q7E/QZ6Vlo/A5Bx6VchkAA5HPrWctjaL1NaKQAg59quJOSMgnH0rIhmGeuOxq1HOc4zgCuWS6HqUps0/tAbseeOTTDJk4BxVVZwRnOFBxkmnLL8w2kEj3rnZ7lGV3qWy+CwyfXmo2JOeQMdfWoZJV+XnHfFL9oAIAxz1GKwke5SkiQjf8AQ1XKAHPHvmpBJk4BIHv6UjNkfLgnP3j1Ncj0Z7dLVFmECNQSQeOx/nUqyLIvEmD7VVVwQpPUd6k87yzuHy9s965Jnq0tCQMV5JHHc+lLBOzlQvUCoMF2JZjt9qdDFtLNhuegB61hI9FfCGoRyPGTkY7E1z000sMpG4dfXiupRMlsszK2T1yay77S9xYqysOT7ipTXUSlZmXHcOV5zntWxpkjyFV43fWswWDKw2hsVuaZYsnzbiGI+7nBrnnodykbMIwEHJHBP1qb7RHC7Zdt+cDAzzTLVXLEfNkDqDUMrBASzAYJGcED8+lebPVnVT1HTXeWJIc9ic4rKv77zUZQjkZwACP1qee6VkOEkaLvheD+NRSKJACkLqo6EgfqajYKlkhmmRpBHIssTPvXAGejdiag17xM0emyFGMMqIwYLwePeqd5eTxozCN16rkEf41wfifVjb2s37uaZ5gY/MbhQTmumlDmZ8niNKjbNDXdZt5NOjdWDTyqGRQwyCRwa8r1/Ul5jmiMbA8sBwT7Guj1CV4tPidF+dEGT3PFcFq+qCWVg6FlP416dKF2eVUfM9DF1JMFigwvU15X8UnLWFqCOPOJHHtXo17dqcoskw9FIrzL4jw3U1rFN5TNbQyqry4JCvIHKqT6kRvx7Gvqstjaqj5LPZN4OSfkY/wocp8T/Ce1tpbV7Vc5PQyqD3HHNfdMWUkK9wcH86/PrQdQ/snWrC+yy/ZriObKHDDawOR78V+gct/DqV5PdW4k+zTyNLEJV2tsY5XI7cEV9Bieh+bUX0NO1kK4A4zWrafPgnsetYcEgCjsa1LeQYBVsHpwa8ioe3Rep0WnSZG3IyDgZ7iul0wLG2BnOck965PT2HmDaQOMV0tlKFI2k5HfNeVW2PosO9jr7GfgZ5QDnb6Vs22HYZGxfTvXOaa5YqFB69cfSuosAoCnjPqTzXiVVZnuw2Na1QIFyFYDHy+tasKRjAdDj0ArPtoDIVIbHu5wpFXBLIreWuZH6cA7R9a4ZalavqS3BWBMI3zE/cU5NRRwMy7mjdmY49l/OrVskdihklZWldeucnPXgUruz/6uGUe8hxmslLojaF1oQSWhbBc8DjaBkfjVWdf3rKXAUjonqa0Xt55Yv3hSNTwRHnP4k1CbEWyZTCrjJLDJA+tLmtudEH3MqVPKYMflXpg9TVSSyEqsxzk9vStGeGaTloiQT8uTjj1xSCFDIyjcXxyD2rTmOlOxjeQ0bYkBDAcEA8jtUcsCkDP/AI73rVvbWRhvjbJTjAHUeg96W2swYTIQxX3PI9h70e0Lvpc557NgeenpUbW4xjPtXVyWBePCq+T3Ixj2rPk03ynKrnOSeaFUuNVLmHHAwAJQj6jirKWJcBiq5B7itiHTGZd3AI7VbgsEjfbu56tnqBUuoU6iMyC0CKFKbGHcda2bO1EgUgEYGSSKfb6abmTOSwU8Bh1rZtrLyikRAVXbkdsVzTmjCpVSRDY2MqKrhQQPu88fX6Vv21oJEDOBuznipILXy3T5MIBgYq/Gm0HCnOcCuOU7njVqvMIsCrhQB9AOvvVuK1jQOmPTP5U+3t2ZmY53Y4Oai1G7g0q3e5uWEUeOp6movd2R5rk5Oy3MTXNQj0ayJCh7hmKRwgcyMegx6VlWmmPZ28txdHzNTuiFMnXYW/hXuFHpVqyhk1a/fWb2MxxohFvER91Ou8g9GNXVSSV0uJ8AY+SIfwg9yP73vW/Nyqx2p8i5evUp/ZBb26RgYRRx71xMUd6jX32aWDy0nmVUlQkn5s4yOgrv7ttsZbrg4riBm3ubyPdz5xkHH8Lj/HNKEjrwruncy/7VW5Ug/JIvDxnqpHH5elZl7KZZR0ZCOh7Ve1WyeSUT27olwo2ktna6+h/GuckvZPtEkcqiKZRu29Qw9V9q6orm2PS5Va8Stq0UciNyRk44/hri9TyiklgVB2hj1B7Z/wAa6y+mWSNjlSRwwY8iuU1V9jOVO4EcgjP416dBdDkqy0sc5qLh42DAbsnt3rlL8FHJ71vapLsyUIKHordvpXOX9wr8EbWx34r3aOh8/XlozHuZEJyOoJBFeI/tJsG8J6aRx/pw/wDRb17PeSAkkHn2rxT9o7dJ4V09sfKt8AWAOMmN+P0r3sGv3iPl8c/3TPnevpr43aO9h4g8NXkhZm1fwpouqmR+TI0tjEXYk/eJZWye5zXzLX0r8TNRt9d8G/CHU7Lz3jHg6PTp2nJK/aLa7uI3VT6BTGcdt1enil7qZ5uXStWOJs53gbejBXHQjqa2f7auJ4gkjZI/EVgwgMOmDWhbYOB39e1eJOKuff0IqTTZcgXe2SeSc1qQOV/hAz+BrPhG1gQcgcHHatOCLeeOnfmuSfY+koLQ29OZdy8HJxyT0rrtKmxtw3P0rkbCIKR3Oa6jTpGUDHBPHXj6141dX0Pew02jsdOBJ4zk9cEVq8xRqcBs+2MGuc05ymCrsM9cdDXQW0qCMs+dxGOTn6V401bU96NZ2JnZZtp2IHxj5R1NXIIX4UhecDJAOPzqu7gA54b+HipbOQyKWdDtyQSOmfaoM3Js6DT4ViYKQGfGDlc4rakhRAg2RlcAsGUYP4VkaaWAVAy9CFOOfxroY0UR/vHAbGcj0/GuSb1Ku0tR9kkEcieXHsRiGbIwFP4e9dhbxD7Khw3yqCcc9q5pVjmjOxXOw5YqoKkdx0/nXTWbKlrBtHysAuf7vFZSZ5eKd0ild6at9drFvDQ7cgFuAfoaqvpn2UkKqrIpIBHAPqv9a24vLiWfEYZgS424J2+n4US23miOVfu98jP411U5tI8Kq7Wscfq928Yt4ixQPKu9SOqgEkY98VBpyLa3dzbSOJH3G7gwPl8pj291Y/hxWrrUkN9rMFv9xLSM3U5XGRwVCj/a5JwfSsi/tvsOo6ZKN+2dHtVyeUduVU/jxXapaWNlrCxNcWaq7Yd5JGB5cA8n1PX0qhAnkykTI0ZB+QP9w/jW5Mq5iaRNrkfwg9fT29KgdFnIDudox8r8jPv7cVEZdxwTRWK+Y6+WuT1KnoR/Wm3NuyYysUABAORlifYGkeJ7ZT5biU5zn72PYHOR9KJLtbqFUKsJEILcYJreJM9diKZJAFBbJH94nGPT/wCtVGVWVvlTAA6BiuatT7p1+VHcqOdyZbiqwnkjcgqwGM9OtdkEeVW0KcsQUAFRjvzmqEyISSOxJ28VpTSBucEhucDrWZcRgcgOoAznHNejTPn6y1MydS5O7HTIHTFUZEwpyF569T/StCaN8nByR0LHqKz58nqenJ4r0YHiVTPuIzk4AUDggDFVXyFzx+Iq1PMDkd+9UJJCc9xmuuJ5FTcY55/OhfwppcMTnv8AzoBB44roPPm7Mc2CMdc0xhx2/Gl3babx64+tWckmRMMZ6kVA5PqOPQVYbqcc1XcEED8cVaMJalSf7p6YryL9oIf8Utp3/X6P/Rb167PgctxXkf7QZ/4pbTx2+3D/ANFvXRR+IlbngVfoV8C/EKeJfhH4XmVw72tmthJg52tF8gH/AHyF/Ovz1r7A/Y28VQ3Xg3WfD7tKb2zvftibvu+TIiqQO/DR5/4GPWrxUb079hz+E+gyCKa3+cVJ/wDrpCMmvHbsc6ZHznuPxpWzihiVHAyKSmaoQsR3qKTGRkZ/CnO+Bk8/SmBgx5JOfWk3Y3iNc5AAzj+tQsu41KRjHf0yaYwwTzmsjoirkYGOtBBI4/On8A8/SmsAp4PT1qTrSIySOAASOM04KCQc5zzxSNhmHUD0zQzkNgce9S2bxRMBlTyQo7CnbAo+YY78Cmx/KBk8jpT5H3fMfr/9auds9GmMwWbAGPpQ+AwJBI9R/KlJAHQ/TvShg/IxjtiuVyO+Ai42nAbOeB7VGVIyV6+/UGpFkG8EH6n/AApqys8ZwFORjfjnmuZs646lCQkMWbhU459vQVNZWn2uXMmA7H5RIeFHb9aJImmulQcqgDMQcfN2H4cn8q1NNiSJzvYqTwMmspz5Vc6oxuyrNpux8GMhDwxb+dJp8Y2tHwGj46dR2NajfvXMbD5emGHGPSobu3lh2yR4cquSeuU7r7n0/GuZVL6M3UFcbDC7RsxI47sP0pXi8x9xjKqBnkcfUVbtc3NruTlCuR+VRXBMcaEnJxism9TtpqyMLVDvKhtx7DNc9cxHc2FyexxXQX4ZpFZ9xckcZrNliIJYcc4zjpXRB2QpNtmJLHy3bv8AjVCeM8kGtq6hOD0IJPzA1mTRkE/d/wCA1vFnPPYz5Gyec9MetUJm2cEe/Iq7LxuOO+M1nTy7tx9K3SON1GUL2Ty0JBrDvJOue9X75xkgHnNY104II549K66cTiqVWULhyykDkZrMuc9DkDGMdM1bmYoxIrPuJN1ejBXZ5FaVylLk4HI9vSq7Hcx7n19KnlYjjv2qAnPXj6nFdcNjyZPUjIycng+1dZ451uz0v9knSdGeBBq+ueOLvUvN2/P9ks7OO3Tn+6Zbm4x2+Q9DkVx00yxxSSHO2NSxPbAGa1f2otQ02LVvAfhvTbd7V/DnhSxstRjkQIx1CUyXd0SB1IkuSuTzhFB6V3Yde8cEzxWvvP8AZc8e32r/AAm0ezRVmbTDNZFpnbja+9RwD8oWReK+DK+lf2SPihf6Bb634at4Y5o3YakglUsAfliccHuDH/3zVY2l7Wi1Y0w8+Sdz7Bm1NrmJftEsYY46MQi++cgD8TWzoJg1G8s0+32bK5DNZo6yO+MdRu6c8mvOR4g8QawQLLSYbZ+89rA8Zx7kkj9Ku2OkeJbOF7lvERtCD8yC+cOM9RhBmvlZ0GlroexGqrnsXirx5b+BtKks9Pijmv3BEdvGo2ICOrdPyryc/EvxPZRvHBqA09JMkrbRJu57bsEj8KuaH8OLrxBdRsdWmWMkNLMDy+cZCswbP1IrqNW+Clv9kxpV5ex3Kj/mISI0T/iqZBzjsKypwoUtKju2aupU3R5fdeIJ7uZ5Z5ZriZvvSzyFmJ+pqg9wzNkevrVnWtAvNFvJYLqFo5EYg4Xg89j3FZ+NpHGee5r2acYKPunO6sm7ssh2ByenpS+ZyMhvwphwRkcfQ0+LPHBPv1xWt0Q1cmIA61JHkA4yB6D0quchs4wDUwOB2qnqibFqN8gdQDzzVlJC/AyPciqUR+uf96p1Y5HOe/WpZcUXYSDwST9KtedxgZ/Gs4S7SBz+dTpICpJOD0xWclfU7aTsXVmUr7Zp6XJRs9PX6VTVwcEVIeAdp/HOa5Zas9ikywJiWPPXjk0R3KKcHPrgHtVEyl13cD3JoQkKWwRnuelYyXU9qjK2pd+1noGLD/aOanTc6naSAecdB/OsdJWV+hPOenar9rKHYdTn0rinGx71GTZdMoXjIx3I/wAahlu2+bHC89etNd1ZmOGbH90ZqNHAIU7FyepHauSR7VFl6IlQrOdxHb/Cr0cpkAJGO1YsMpRsZ3ZbGc8VbjldUG4twexrkmz2YRukarDDRtHkn7pFOMBZt20n1GKqWt2pIByW9avrP+82nIXGc9K5rl+za6CxwRDjCkjtj+dPs1IDFm79jkVDcvlFZXG8egHSmQ3MccP7x1Vs4OH25/DNYSbsdEKbaNNJBGuXVirZGFGar3EyhCQctnAUiqc+oJBjafN3D5QpLHNVZdUw6F4pgevCE8Vxyep2wg7G7ZQB8hwMYznpg1HJL9kmKszSq3GSMgVVh1GeRWkihSMfwtMCSfwFQXss91aCSefaVOcQjbn6nk1ztt7nDWu3qZev3SbZEj3bC20HHVvT6V5v4gtoZ9RSJ5GPlfO7SEkZ9MV2+uXQjt42GFiUlyUHYA+9cbIyGyEjLunnlaZgfTHH6YrtoOyueDiUlc57Vr2BYmiUNIoH3lFcDqXlE71xjqe3HNdlrEudzeUhjzjgVwOsFiWjyiqTwQeTXs4fVnhT5Y7HN6ncFZCyKeD1NHxBu9Jtv2b7ZVSJtd1Xxg+WJBcW1nZKBgYztMl+/OeTH7GqOpyGJpCWJC5YjPGBmsv9omTTNPuvBGg6XNJMNO8O289+xdWje9u3e7kZMdcRzwRknn91g8AV9hlsPfufE8QVUqCh3Z4/X394VuYtQ8B+Db6JxJ9q0S0LspyPMRPKf8d0bZr4Br64/Zl1T+0vhbNDJcRyT6ZqTwLEZcusMiK6AJ2XeJjnplq9rEq8Lo+ApOzPYIJA2AF/E1q2wU4JUH61jwHngVpQSHhR064rxqj0PYos3LfDFShCnH8I4rdsbx4yokBC5GfpXP2MmR1/Cty0YOe59c15lXax9Dh5nZabc7ijKQEOME11unsqxqxKqnXJHU15valoyPKdg4YfJniuo0++mmeJZ0EPQLuHyg14taF9j6KiuZWO2iu3lQBcoo6u/Fa9g5WMrFGZN3Jlfp+HrWLpka+Yu9vOAGQoGRXU2qhlT5MKBwK8eo7aGk2o7C2um7QDsbzN3MhX5j9KurYhictu57nLfiaUX6oh6EgfwngfWo3lknjZixVAOSMj8B6mudyZkpzehFdyLFtQbfM9Bz+JNMS1aaZWLHZgDphSc/rV6z08RsH8uMs6g7MZwPU+9T3EqQhQI2eU8KAP1A9Kzcjb2ltEZ95arxHlS5bPXoMd6o3FpAwXnzJSQFYdB+P9K05DsQIq7mY/NzyfalSx2uXkAGTj2HtRzM2hUtuzF8tonAljWfGAqw/4VFlbdt+0nc2PLUcDPf69q6ApGG+WNVBOCwAHFU77SY4IRMrlGaQbQTyefSjmubKrFuzKFxMxQKsbK7cDA5H+fWoTaMzruTkcBcck+9aenqEMnmDNwB8uOmOxq2ImJyik4HLHkn6Uuew3LldkZDWixBQvMv8AFkcCpoNMN0wYsA/rWvp+lNO7cMP9phzWkNLVCPLwzkDnP6ms3O2phLEKOhm2UAXdkbNnG4qME1atbXz5HdXJQfLlfWtaKx2KIwARjc5Hc1YhtI4IRldobpkd/SsXO5588QmU4oWUqhMhRf4gf0NaEEQDLjaR29au2lsqRgsASeTj1rA1vVPtsrWOmASTsdjzoPlhHQ8j+L2qUuY4lN1ZWQup+IjDMLOwj+03rjlRysfuxHSqMekNPMtzq8r3s68pbxglE9CF/qa1dH0pNOHlWkQkkx+8uJP4m7knqTWna2n2UlmPmSMckn+Q9qd0tEDqRpq0Pv6mQVa8Kotu9vGpBcyLt3AdsU+52mRg6Z/iGB29K1Llhsc4wSDg+hrMuUYKrADj5jt/Ws5SIjJyMi7lERKbR7cdK4fWsWt9FcYJ84mBl6Y5JU/p+tdrqG0ks3cZ/wDrVxHiZyy2uCRi6X+uDW1Pc9rCsrXDo+GCggD5gvY1y+vWSXUYJZkdeQ8Zwwramk8rk5CliCwGBmsXVJ96SqDgAk11wunod6bi9DitUF7ZyEtsuYz91l+Vse46GuT1HUp4mcTQPjnBQ7sex9K6zVrvcyqW5AwMHgj3965PVnJLHviveodE0efXmmczdapGXKMTFz/GMA/nWJqM24E4J9+xrY1VxJDhgD9a5W5eWLcI2DJngMTkV71JaHgV5JlG9kCjhtvfFefftCtpafA7T3ecf25c+JSsVuPvC3htTuf6F51H4V21ziTczN0ySB2rwn9p/Ukk8WaJpMSvGNN0uPzgz5DTTO8zMB/CdkkaEHn939K9zBxvUPl8dNKFjxmvpfw5bJq/7G+namZIXudC8bzaaYlH7xILqyWVCfYyW8uPcHrXzRXuv7NkbeKvD3xO8JTXUMdsfD8niG2t53AEl5YsHXYD1fyZLkYAyRntmvSxEeamzy8LLkrRZjwnIyOhrQiBXNZ1s4bqMAjIPoK0YV4J3E8ewr56bvqfpeHeiZpWpLn3I7Gtexj8yRVyGUc8Vk2ScDfnbgcmtu3OwqwBI/z0rzqrsfR0HoatnDhlIO31z0ro7FCHVdvGAM4xWJY7cJhgQD0Zq37aHnIyPXB615FVns0ma9oWjOWznGcYrcsjvU7tqnr0zWJAEkjUHaCCAMd66LTtyKdwIDeoyB7V5lSWh6tMsLE0hUfM56EljWxpVozq6s+FByMNx0FN0+33PtYgZ74q/bxyQSsNu7oWyvb61yync7YRbL1hbLbJvYMWJ6jkV0+nQxyxln2t0Cg4LY9azLGxNx5eQOAHyB2966a20yJdjiNW2jJyec+3FccpGdWaSGaXYXB8wHYis24lhyRitWxiOfKQNtDB23D6A/hRbqsKjzWZXkThgOAO2T+dXLW2eNi3LhkOCSeDnoPeknc8mrUve4lxafZ7iMoVMbEhgOpyOn6dMVQ1nUxotiZVHmzORFBF1aSU/dXqOM9fYVuTOohb7Q6oFTe4dsEYrk9LUa/qMutToBp1mjQWqyHKlhy1x/QN7e1dEHc4Ix503Iks9DksbGBSfPvru5E94xORkYZgOPujAAFV/F9iJ9GuH3BJbf8A0mMjHDryD/Ot+xRp5vtEqsjeVmOIgEhOpJ98/kKq6vZi4gnikYLDNGVO7jAIIPUe9WqnvEppTSONOp3ws472e0iaKZFcvESXUMMk7ccDr34pVuUuYjIJ8hxncvT6f/Wp2mXUgthBIy5t5DaFQTlgv3XP1BpbjTfLEstq5gMgyYygaInPJwOQfcGu+NnudLVh0SBoo1kVT6svp0qO5tEEpMYKMnGV9PWobe6aBkiuF8u4VsbW+44BIyhPP4VoG4izhlYDdghl6H6+laL3WcNRmc8UkbFyQBjqM4b64qK5KT7WTCqeeuMVZmlMD7txaPB4Y8474rOMClmKuyA/ODnGM/jXbDXU8is2U5maJ8LtzyDuHy/nWfdTrhuUQ4yQSOatXKOWOSpOT14z75rMu50UkFGGPXGPrXoQPBrO5Xmk81SdygDv3rNl6nHFWZLnJIjUNxz2wKqE5U+YxJ/uqcfpXfFWPGq6mfc5JJBG3ufWqkn3vQVcnGO4I7YqlMd4zwCPWu2D0PJqbkT5I4xgU1WweCR+lNZgBnpmm7ucGug86b1J1Y//AFzQe5qISZPXp70u446n8KtI4mDdKry4I7Cpi5xyPzqCQ4H9aswZVn6+n0ryT9oUD/hFdPIOf9NH/ot69anbGBknPevFv2htURbfSdM43s7XRx2Ayo/rXTSd5Exd5HiFerfs1eNNT8JfFCxttMj0+STXCmkudSV3ijWSVD5gVXXLjb8oJwScd68pq5o2qz6Fq9lqVqxS6s50uImBwVdGDKfzArtklJNM3ep+nLbfMk2n5dxwDwcUgwT0rH8MeII/FXhrSNaRoz/aNpHdssZyEdlBZPba25fwrWJ39gK+blvZnGtHYCM00jHr+AozgEg49KYx3cA1NzWJFIMnv+NNKkE8HvTiwYnPAHcUM35d/epZ0RIyM0084yfenOQTk9aj6g1J0wD6EYoBAGSKRxhcZBPtSLyu4gZI4xUHXFDi4GB3P5UKuRlseuRTfuH5jz60FtyjBPrz0rJs7KY48nj7o4zmmebhzk49vWmM/GATg+vamoAz5xz61lr1OqOhI8jTPghgBxinMQoxz69abENrtn1p07hOWz09K5pM7IgrKMjB3HrjrSSyeTDlTlydqp3JqNi9wf8AnlnjA4JpIEIuxg52R7vmORkn/wCtXPLQ74aaFuyt/LRt3Ls29zngnvVyNgmM8+mPWqyZ39WznOQanyd2CCODg4IFcU9dTugWuNwdup4IzV0qsgK5I4BX0BqlEmSnBwf7x5q7jDA4xjggVxNnZGKRnrOdOuAcEW8kuSFOCkh9v7hqW6ZZHVhGUyckkf54ouZBKzl1BQ/IwH93PUe4qpHduLpbaY5IT925/iXsSf73rVb6nV0RFeLHI5OOegJHBrHmUNwSeP4VNdBcxh4yeoHT2rFvolUEgEMe3f8ACtIyJauYlxGzMQCD3/Csm6iYBsgbT3AxW5MdnK9PU81l3hDKWU5J4x3rqjLU5pxRjSqWhOcAjjjvWLdDaCOABW1I20kH5Sx6+9YmoAR5G7IPcV1w3POqJWujDvGUZGCeayLqUAnqR6DrWpeHAbJPSsK6fDEcA9jivRpK55dTYoXLgZIPXjGcZrNuDx93j0q7O3JzVKfB69BXoQ3PJqsqySbiQeg9KgLEZPNPkySc8fpmoW9a60eVNnUfDHS4NW+Inh/7fYS6joNndLqWtxRpuxptt+/uyc8D9zG45wMsASM15L8TvG9x8S/iJ4m8W3caw3Ouanc6i8Kfdi82Rn2L6KoO0DsAK9Tj1G88C/CXxP4is9Qghn8SsfCEUCvibyB5dzfSKOoHFrDnkFZpVNeC16eHjyxucbCuw+EviJvDHxD0K+Mkkdv9qjhuBESC0TttcdRng5APGQK4+nwTyW0qSxO0cqMGR0OGUjoQexroaurCTs7o/R2eOFy8cV00hQn/AFbblOPwqlFJbwOwcKjnIDlgM/nXF/CrxBL4t8FaPqdu5ldIkguNzZbzkUB92CTycMN3OGBPWvSnviumyGe3jduihm2j6ZJ/lXzFRezlytHqxlfU7D4VarNDfXCyalGtueFhmmAAfI+6D0r3WzZHjQnaTwSDyDXyzo91DqupRwzWtijEcICBtGfvc9/qa9U8M/ER4LuSxu/Lkt4AFSeBAdo6ZchyoHvXi4qi3LmR2wndFv4zaTaS2iXywpG4+RsAANjJGa8NmCE5XjPvmvRvir43t9Ylg0u0PnKG82STIwTyMD2rzaRgh24wOgFd+CUlT94wlJORKFIUEYNSQswGM8HnH5VAo5GAM+5qcAKQM16AIc3zDkD8KIhgkc/jTnwyAkc9KYg3EnsapO4ItIhPG7A9zU6kKoHQVWDAsSMgDsD1qRnAxk49qhs1SRMrEAdGJ7A1ID0PNQIctxjPoaeBnuOneobOuK1LAOBnJzQXJViTkGos/PwNwB7dKC/mZAJAHpWLZ6dIcCWXGec9ADUkeACm8Bs9WPSqwJ804yfrRJLsbcSCfesWezR7Fpo0gXmZmkzxsIP8qhWRA7ZTPfarHP6mo0uD5ykKevTGKsArKMIB5meOnNcknoe7RGiUHGxdoxj5ieKmSeQMMNkjgL1H+NVnR4GwQ4BHP1qVJgHAU7T/AHu9ckz3aDViwm4cFUB3HOGxVtJ8pg/KAc5zn+grOJaOUEsxB6liTxViK4CrywJ9q4p6ns0dkXopQJN24knoSfl/GtJ7lgoDHeWAGF6AVihTsBXJOenWp7e5ljYqVBHYnovtXHLU9I2VJEJUkADkYHNWZb2CKEACPcBwCO9Y5vUQjOWOOwzVeW5ErZLBOwFc0k2awjdl+e781gVfcw6Z6Cott04MgCtt5OBkYqusTIPNEhUN1206eFIoAxn3t/dMnFc0jdySQ6fW5YIv3eSAfuspz9BzWdJdy6mkizvJAu07UR9pJ9c/0pyzpcvI4kYMnCiTBX8a5jxJr0kcsVpbsv2l8BmjHEY6EmpUb7HnVpRWiM/U76e6uTYiZpEjOZGboq5+7nPJqpqt3vSRoyn7uPaMnHHpT57VNPgKqxLPyzs3LE9z71zer3aRQlWfBbrk8muyEeh8xipp3M3WrsvHnnGMYXmuI1O5yzMQ2TxnHSujv5wyMUONo5z0Jrj9ZvV2HgNyRg+te7hoa2Pma1XoiTwrp1prvjLRdP1KOZtIlulbUnhUs8NkmZLqX2CQpI5J4G3mvFvib4ktPGHxE8S61p1u9ppuoalcXVpbSAAwQPIzRR4BONqFVxntXtVhrN94C+F3jPxei2rDV7eTwbYiVv3oluFWS7ljXjIS1UxMR0N6nGGr5tr7rAU+SnzPdn5rnOI9rX5OiCvRvgVql3aeMxp9rqh0oakq28koVSWUOrlVJ+6xCsARzk4715zWl4a1ybwx4h0vWLdFkuNPuoruNZBlS0bhgCO4yBXoyXMmmeAnZ3PvuBto+Vuh7mtOzfBHI/CsS21CHVLe21C0DfYr6FLy3BHIjkUOoOOMgEA+hBFaVvNhuTgV4E1q0z1ackdDbOSvBxg1sWVwRhVxmuZguRtHBY9q2dOlK8lRk151RXPdw82jsdKCr8xyWPU11dhGkoKvlwV/i5rhrC85CkbR7V1WlXmPvMBxxz2rxa0T6ChUdjrLCz8oFoZ5kA/hJ+X8a27XWpW2wXAKyjlCnAeub0y582M5cIo75rSjurZ0DSndk7UA5bHqPevImrvU9VWkrs7WwSGKFXmG92PAxnmr0SpcyB5AQgPyR9OfcVxdlPdB91uZnH8KT5IA+taj+I57Xak9sUdSP3kXzKo9frXFKDvoZulJvQ6KeYwTlIyucZZuuPoB3qAXaJMUVZZXC43J8zY9z2rNttThulPkzrJO5GWZuhP+HrWnb6npmmQGMXUUkp++VYEs3c1m1YORwWq1JLdXBL/ZZC5PXAwPpUrGbY6GHJIPL8AVXh8T2qqcsxYk5fYdoH1qS31a1uXYtPGsZbAZnAP4VnZ9ibTWrQ2DTbmZ1YyMvG0Ko4A/Grp0mBrchyZWHG5+T+HpUv8Aben2v7v7XCkZGCXcZPrinRXkN4y+RKjx44CEHHvWbbZnKpUb2sjFudOntH3R/vVHykAcgehq9ZXCxxbWQ5YhSy8qBXRxRQxwgnkkY/Gq0umWj8yhYyRuYqdualyvuJ4lSXLJEkPlCCVkIYqpwAfbipYoktrdScln5OOuTWdNpcWzdbu1uuck7sA//WqlLr9pbytHcXQLKNoAcHJ9sVFr7HMqbm/dZ00MYCbGOSwwT3qtqurW+niMuc4OFQclm7YrnH1WXVJBFYGSFcfPPKSBjvj3q7pulRecdjPdTLhTcTncB6496lRt8QnQUNan3Evn3+tyDJe2txwI4GIY/wC8f6Cp9G0/YHjGIo0lcER/xEHue9bttAtvGEXHHJ9zVTS2VvtCEEGOZw3vzn+tO/Q5pVVZqKsjSjjCfKowAOg7UjMu73qVMeWSODVZzh8gdBUt2ORakE0ZkTjpuJrLup2USrjBKYHYVfe4AjIBJPWsO+kZplLAsuOmORWVzqpptmfM2dqE7l+6c9iP/wBdcT4rVvKaePIEDrIc/wCya6+/l2RSMoIHI4rj/EWXtLmEDO5CoHrkH9a6aO57OHdpIxbi6V4TnAjcdK43Vbpo3YBye31962DdCSzj7fJtIPZgP/11yWtXIikzuzt9+xr1qMddTtnJRuZep3AZ8j72OCelcvqFyWBXI69WrR1K4DIHUle1c5qV0CCSSQcjFe7RieJXnqZGoyZB9q5y6m68jPpmtW/ugcjuOtYV857Hn+le1TR4dWdxdJtLW812z+3+YNMif7RqEkQBaO0jBkuH54+WJHPPHFfH/wATPFw8efEDxF4hWH7PFqeoT3cUHaGN5CyRgdgqkKB2AFfS3xK8UXngX4Ua3qdlLbC411m8OKkjZlWGRPMuJEAI/gVIyeRicjHIr5Cr6LBQtFyfU+WxlTmnyroFdX8LdcPh3x9od6b06fALtIri5ChvLgc7JTtbg/IzcHiuUor0GrqzOBOzuj2zWvDdz4T8Qano1xcx3s1jcvAbqEgxzBWwHQjgqw5B9CKIW3HH3fr3rrvFt3H42+G3gDxraWiwQx6cnhjUykYCm/s1G1zjqZLd4GJPJIb0rk7cKAMgkDsK+Zqrlk0z9Hy6qqlKNjUtXCqCuPpnn6VsWh38FgPrxWLbhHbP7sepb1rZs0w4KsTgc5OE/WvJq6H1VF6nQaXEYzu42k5JA/8ArV19knmIp2REdWYDJP1rj7K7idlDh0TsSCQTXS6fqYWJYw6MB0L5HFeNWue1Sd3c3VhQFdv3eB07/jXR6XbxsI94YfxbemRXO2LvLPGdqsVHyrnAJ9TXU2yvEFReZWHzA9fwxXk1H0PaptGzZusjlUjVwBtVG5Yn8K39KsEm+8pHOW45z6Vn6Jp4klj3Nsk4PoQfSumtLRXWWWRTjcVHP0rglJJnVz2ViXTLSNppVWZoV3bVSNm657r0xW6JUs2NtKwEzKGUqCA4PfP86ztJstsDyAmH95lCvGPr27Ct6wt21By0sccg3FRu4+UYwe/vzWLkjz60tdRbe127vnWQJGRggHPGeale9ttOt3nmKwwRsZCZMLhOf146VDLa/wBmJclLiSGHy2dg7AqvByeenT17Vg6bBJ4uuIr/AFMxx6RbNiGE5AuWB4dgc5B5wBVRXNr0ORwU/e6FmZ7rx5KZTv0zw8nyuzgJLcAe/QIQa27E21zb29hZFGiQrv8ALAKLGuPkGOMk44571YtbR9TmVbiDy7NORFKpXe395hjoBjAIq0yLZeaIxs2kkEYA47UOp9lHLUmrcq0GXUEckryIQshJygbCg+3t7Vk6hOEQ7xlv4Q3Vz6f59avXE8hl86MEsBnLjOV6/n71QlhW4Kvt6jcGQfNnrn/69UmYx01kcbrFmbDWrO7Qqq3bi3lXnCliSGPbIPGa14/niZkVn7MFGcN3GPw61D4lgNxpjSMrBrUiYKRydpzke2Kfag7FuYg3lugLKp5wedw9SK9FP3Uzok7q5XvrCBtsjok9u3VXXhT/AIismbRYUleJbi5hV2LokUxEeD04roTLHIsqBi3zeYjE559/frWXKfs9xGST5ZO4k/wDv+FdNKcjgqO6sYU2k+XJse8vEQngLMTx6ndmqFwlzpzFYrgTKTgC4wSfbIxg10Oov5rAq4mVerK/Cj1/l3rB1F/MGCOh6Ef5/wAivTpS5tGeRVlpYzbi+jlO11mgYHADDjP+90xVOZXbLOAyqNuM9Pzq48kbErIOoIwR8prJn3228wsXjxllPzY+npXoQVjw6vcinIGRgMPQdqoTIGJ24Jz/ABdKuO6TLlcHI69/pVS6YlTkZP8AeFd0Xc8aoyjK+DySD0APSqcwyCpBHerEpOPmPfA96qy8Hrj6GuyB5dRleTAPcVFnacU9+Seh9/WoCSD0OPeuiJ5syQS47H8KTzffH0qDeQPwpBJ9fyrU5JaE+8Z4waidyDiojMR0pkj4zyAfatEjnYSNkgDv0r5i+Meu/wBueN7oK26Oz/0RSDx8pOT+ZNfQfirXF8P+HdQ1FmCvBCzRg/xSYwo/PFfJNzcPdzyTSMWkkYuzE5JJOSa7KK3YU1fUjooorpNz61/ZC8dR3vh+/wDCszTPfWkj3sBJJUW52Ky5J4w5zgD+JjX0MJM1+eXwq8dSfDvxxp2tKC1vHII7qNQCzwMQJAM99uce+K+/7S/hv7eG5tpPMtriNZoZCMB0YZVh7EEH8a8bFUuWfMupzVVZ3Lwk47fjS7/cVX38Dml8zHtXC3cUdh7N6VGxPrjNMaXnqPxNRNJ2DAe+ag6YsWVmCHBU+1M8yQE/dHFBkBODTM4APbP4UrnRHccJpBj5Qx/2Rmka6G4jY4PQDbTBIcAgDnvSEj3/AArJs7YvUl84E8soI4wRzQ5HOW+hH8qiYjBz0qJ0XPJcHqcHisZandAs4ZiVUjHU80rAQ4P5iqy70DFXJyP4hyfrSeVJOBvZiSei9PxFZs6EtSeKZpCBGNxI5OTgVMreYznJLngZ9faiGNY0OzgAY/KpigwoA6YJI6iuWTuzvgtCPYQMe9LChWZvXAGMfWnH5NxJAUfMaitJgx3EnDtkZ7A9K5pPQ64KzLwQu5kGQD7cCiR8Zwc8kVPGAoAznjrnnNQGN/MxlWyep9a4m9TugyzbnzFB5BX8qvwSiRGB+XnHpms+2AAYFsnOcDpViRnZARjjnmuOejPRptWIZspISSzDpx0NV5REw8tzgkZiY4+RvQGrKjeVHXJzReCNlYMgA+mBRzGyaKhu2h/d3gWNiMq68I3oB7+1UZgC7ZyCR37VZvoBJAFdvOjDBgHxkcdjWNcrNZsPJuBJGxIPnclfYEdvrWqtuim9CC+iAYYGVHXPesC++Rjt+UY71tSLNcKwkm24/wCeY5/Wubv7RneQmaYkckBsZrqp6nnVJWZQurjCEsyqOetYF7dR7ifMXH1Fas8EW45jVjjrJyfrWHeQRFnwiceoFehBanBN6GVeziThWBH1rGuWxkE81fuUjBxsUn/ZGKyLlOSMsB/dDGvTpo8mo7q5Unk6cYqhNMQcAkn3qzMo3Ng559apyfKcA7vfP9a74q7PIrMikO5eSV9ulOs9PutRuobKwtZdQvriRYLe2gQvJNKx2pGijkszEAAdSRTCQWyQeOeldP4RuIfCem6t431C21WO10qJoNE1GwGF/t11JtAXJH+pUPcnHIMUXHzDPZCPNJJHl1H1ZzP7SsOmeG/FeleCdLjkjk8J2I03V3dgyz6uZHe/kUjqqysYVJwdkCZ5ryCpbu6mvbmW4uJZJ55XMkksrFmdicliTySTyTUVewlZWOZ6hRRRTEfR/wCyH47a01DVPClzcwwWk6NqFsZ3Kjz1CqyjnGWTn38oV9C61qEU0kKLcAzI2TsI2Mfzr4A8LeIZfCviLTtWhjWaSzuEnEUhIWQA8o2OcEZBx2Nfd+mX2gatpemask0ltDfW8d1GjAudjqG2kgYJBJU47qR2rx8ZSSmqnc7Kcm42R2/hW2t7EG6nsXkuH+bzbeAyAD/eUda6yK/0zw/aXN88Twow3MjQhdxI6DI9q80Tx1Y6VG0WnWrv3DHCKT6nuRWRq3iq81ph9olJQHKxocKPwrx3RnVlfodHtIxXmXdY1xtV1K5u/L8sSMSoPpmq5nMoVmznpn1NZHm7iCc/jU6XBPPA+ldyhyqyMlUNQSjpxz61KhyBzkVmxybuePwqzA4zkkD1ApPRHRFmiSWHapgowM5/nVMuHXHf9KsqVEY5z2pN2OuOw7cFHcD2NPSXeccsexzxUBfLBcjg96lC7WG484zU8xtGJOsmzgHBxjJqUgBeckDjioowCM8n6VIXMpK5OB/d7e1YNnVCJKZNqdCRjoF71WDZU4GT1zk8UPgy+XufaBz82PwoLRooCqAB3Jyf1rO56NNWY8t5Ufysc+jd6qzM7yE+Yq9+u38KUy732Rr9WNSIAjEcADqcZrFux61LUiEcgK5lkLL6YOP0qWC4aA78oQGyNww355qe2haUuB8qgffyRUDqgumBJcbcDPc1yylfQ9qi0i7JrEU0wbyVR2ABd+P1/GrIuLacjYw3Z53AbRWbCDkqMhuuD0FWLeS2CmN4Yf8AfC8/jXK9T1Kb5di9dC3NuAkyjHViAB9Biq/nxQKip5869yqlwPy7VGYbS4UrFDGN38TIpOfbjip1042ccZaaQnjAzwPoO1c0loerTq2LEF1bEMkZJdRkgHn6YqeKVVXliuTgqe9VbtImRUaWJ8rw6n5wfrnNV4rpY2WK7kdFBwBgAMPUE9a5JLQ9SlVuXHxC2XLtGecoc/hzTftlq33lniJ4UhOtE0cSEG3aZ1bkqc7QKdeXdqywxPLHGCeTIdu38TXHJnV7ZLUihuZriXbGqhcYEkwII+gFVpIRb3YjuVWXeevJJNTPq+mDKW8v2iRTjybceY35Cue8Q3t3NPCqW7WeSAJJWXeoOegBPP1rnSctiXiEW9c1kacEt7cKs5wuEH+rX+8aybmNba3IiDF3+Zmbq7epqeC2t4LeRBK0s7nLyStktnuTVCSZzCUAUshIY8nNXBdEeHXxKRm6pfSzxMJI40KjB2n0rktalEsHmIi7hzt71s3twivLuznJIHSuR1PUNu8MwXqBn0r06FN30Pm6+ITehj3+sFUK4IYcAEVzFz9ovLlY4oZLm4kYJHbwIWkkYnAVQOSSSAAOua1r24BTJIxVvwtfWvhiLVPG+qRX0VpoCFtLuIIsxT6ywY2ULE8FVKvOw6lYCP4hX0uEpc0lFI+bxuJjRpyqM4b9ofULHT9V0PwbpsF3Zjw1ZeRq9vdMDnWXO6+bA4+VgkGcZ22yDJABryKrGoahcapez3l3PLdXdxI0s087l5JHY5ZmY8kkkkk8nNV6+1hFQioo/L6k3Um5vqFFFFWZn1b+zf4wh1rwHJpE1xNLquk3B2o+Nv2J8bCO52y7wc8APGPavYIJSRjIHua+LPgz8QZ/hx43ttQWVk0+6X7DqSKM+ZaSMPMGMgZGAy56MintX2QrpG5EcqTxHDJNGwZZFPRlPQgjkEdQa8rEw5ZX7nXTlc3LebJA5OPStmzucY965eCYfX8a1Le5wQoIA9RXlVI9GezRqHY2V1jHJx35rfsboPgkgbRgZ6Vw1pdngZ5PStmK6+QfMwO4An2ryqlM+gw9TY7iw1PdlUjDgHGSeM10WnxiSTzpcB/uhV+6o+nr71xGj3IjUZY4BzjP611NtqSFeWwAMgZ5NeNWjbY9+lUurI6+KeOGNfnYE/3W5NaFvEZF86WQHIyEPp71y1hdLIyyHkDlQf5mt1bkyFVTkt1A6gf0rzZRcdjo216m5DpNtIweaNWk6naMDHufStO20a3TYRDHGOGGxRnFY0TTxRx5ZRuYcAkk1v2Dkvv3l5OMlj8orklJownOS1uW3EFpAqmLIchUjC/MxNRweF4JJWae2geVhwir8qj0PvTLh5INStmPzhlbaTwA2eP0z+db9o628PmyHcTzx1NYuckcs6k4LR7manhjT4IW3WsHmE427BVaXwokBFxZP9ilHOE4Vu/IrYWYySF25cnhVHJ9qmV+CZWBbsB0B9Knnl3M/b1F1MOCz1uRzvu4EAGOEbIHrVv/AIRy+lG6bVJd3oBgfyrahAGSTk5/Gm3Ny8MoXlmIwAKhyv0MnXk37qX3HPyeH2e6Ec19cXAwPk3YXH0FaP8AYWn2dsVFtFnt8gyf/r1MWInQkAOw5q3FHvcbuo6A/wA6lzaHOrPTUqQaTbhSwhVQeuR2q9YpHHu2KFReAB0qaQDaFwTuIHHpTwqwIBjjdWTlfc55VJT0ZZyAhJ64/KsbR5S1zfIxyfPZuPQgYq/JchyVGMAZ49ax4rg2OqSxuMJcco3bcBjH6Uk9CIR0aOh8zggcVVedWk24zwaga4DLyRwPXmsyW+VCxLYzzUqTJjBsku5TDkr0A2flWNd3pdzg42qefWm6lqRZSFfDAbv0rAl1EnzWJwwznntVxjc9ClCyuJqN/IseMhvmrmdZuwx5fqMkfnxUuq6oNuM87hz6Vy2p6gd4O7Pc5NdlOmzvguXU5yW7a3vrq3dsfMZl91JrA1y88w8YyVK9eoqTxVdhLmC4UkNv8s89Qa56/v8Ag8jHseRX0FGnomZVaplXl2WRxnkd81g31wGBGeMVYu7sK7ZJweuKwry6Aydw49DXt0oX2PErVSnez4JH4VkXUuc7fnY+vc+1Wp5+C3BJ7GsbxDr9v4J8Hax4kvYpSIoZLPTShAzqEkbCE+4jG6U46bF9Rn1aUHJ8qPDrVeVNs8W/aX8T6XqHirT9B0W4up7TRLbyb5pnUxyaizE3LxbTjyxiONSeSIgT1rxynSyvNIzyMXdjlmY5JPck02vqIRUIqKPmZPmd2FFFFWSe5/s436eK9O8U/Dy/vZY49QtH1XRLZSMSavbrmNOc/wCthM0eFGWYxCmQkgBQrK38QIxj1FeSeGPEt/4P8R6VrulTG21PTLqK9tZgeUljcOjfgyg19DfEU22q6hYeMNP8s2Hiu2GqyJakGK1u3Y/abUY4TZIGITJIR0J614+OpWfOfUZNiOVulJmHbHGADgewratiSRuKKuMcCsSxAwNwJ5zyK2YLgRtnOR0Br5uqfe0qh0NopuHUMMRnHQc1sWtq0UweOVVjQ7Qsybhn0rD0+6kz+5/GRhx9BW7YwiTiRpHJG7sFX39q8mroezRqM6XRr1w3KAXAOSdvygdsV1+hwPLN5m9g7Hl89K4fTbGWORJopM7SOX5yPT3rqND1O7sjmeJfKJycKVJ9+eP1rxqqW6PahUsj0C1VN6QxK8srDDEDOAerV0toySTQQA4SIbicdD2P1rg9G8SWQM8zTeUN2Asi4IAH/wCutzTNbiky9uXuWlYjZGM4HHVvuj868yUHc6oy5kd1FJt0xWbYwY/IAuASemeeaemox6HaCW5lSGNfl8xz8vGOB7nFcxqfiptKtYLWa2aSWQDyordldz6cA/8A1qdbWGoa1eW51Mxo23fHZo+VhTP33zwX6j/OKyUP5jF073ctizf3k3iSeI3CT2Wmuflhxtnuu4O3tGfeuz0vTVFxBPOiRJDhYreIfu4lHQ4/vDkZHA7Vn3GmxR6XI7/NJCFfzWOZDtxk7uvTNbGmSrPChkbcmAQF7rwR+YonNctkclWonC0NkXWnRbn5sCM479RTJiCjKQCC2cNzke35U24AdhICGCPgkNnjioHvPs87gDO72yB9KwPJbIJ5RFOpVsADBXHJxWftkhQFmDJkAIeqqT2z6VYvJTFMX3bkOGKjgj2pf3bJuUEBgcAjueldMdDVSsjM1LTor5nXHLRkE5HzDmsDw3I1tHcWwb95bTtGFkYfNHxtI6fn7V1MjFdrIvucDHrmuT14nS9Wt9QACRShbeYEYCZJIc/TufSu2i2/dLU+ZNML/bHL5qKBg7zjjvyP8+tNkbeolXDKp25bnjr+X+NaF6I54RL5QaRDh8AEMvfGOo7isJpVibHDxEkKv932Irvpu5yzd1cS7ZciUYYEbCAMbevXise8zJKzZI7HB7VfeZSjoeUBwQfT1rNvZTG3l4Kpng/0r0KbPHrMy7qIAEoSCOQT0P8A9eqE8JZQ4IbdyQDx/KrF5ckuybWTBJ57+tUJLhlb5c5HY55HqK9KDbR49ZlGYvA7NEAwP3o2OPxAqo12GBVgyMOx4NW7uRS3HGR345rMuiM5Jw/QMDzivRpq54tV3IJWxyMEfnVSU4HfOc0+QMOd5I9hVdxgZJLc+tdsEeTVZFIck45xUEh4yM8+tPddp+U4+nFQFwTyK6EefN9BrMR2x/KmEgDnvSuQD3GaiJOcHNbI4pPQUyZ6H/A013wDzTGbpgZ5qnqupw6Vp1ze3B/cW8bSuAcEgDOB7npWiTMGzyf49+KSz2mgwyIyDF1PsOcN8wVT9Bzg+orxmtLxDqza5rd9qDrta5meXaP4cngfgKza9GMeVWOiCsgoooqiwr64/Zi+I/8AwkHhs+Gryd5NT05S9vvyc2o2gLkk/dJPHp7Cvketjwj4ovfB2v2eq2EzRT28gbCsQHXPKtgjKnoRmsatNVINEyXMrH6HCYgAdcU7zfU1yvgzxfZ+M/DVjq1lKkqTRr5qK2Wgl2jfG3oQTn3BU963BNnvXgyi72Zx/Doy35+8mo2k56mq3m8noKZ5201DVjeLuW/Mz70GTecdqrByMnrSLPt55J9RWTOyD6lvfgHHbjnpSA8kgA+p7VWafcM8nPrSpLuOPU4rJnZAsMxBzgD/AD2pjMcgkd+Mmm7lznkYwMZp6MTg5GT+v/16wbPSgtCZSCef0HQ08MS2OgAqCKUM7s25R709ZFXc3AHXJrlcnudUdETs+EwCQOgFTxOFDEliMZJY1RaUN0CklcZqdZQqbQQWYbRxmudnXF2Ib98RbcZ3tt+WprbhRhFAHqvaq8jBrtUYgBQWOfXoKskFRn7ucYUVlJ6HVF9TRW4Xy8tjKng9s9qYrGeQ4A45wOlUVuDuIyduTnHNTLKYiduTjkYrikrHXTkTwNsnDEjg8npVx5y8ICgkbu3NZKSMGY85z2qWO4YDGGBPXH8655LQ7qcrIv8AnCNSCAp75FQTTBWIJBBPPrioLqY7RghjjGfeqLzvtOSM9BioSubKRJNOrs2Cwx0B4xWdeXKRs2Fzu6gjr9Pelub5QmNwVvY1jXl2CAuc/jWyQOpYfcXTDcd7ouOD0b8fWsa4uvmYNnkcEVLdXJxtJLj0POBWJcysXLBiQDxk11wj3OOpUTIb64AYHOMfrWBfyqzZGPftVq8kLEq2FOTisaaU/MOvHXtXp04nmTmkUbvMbFiPp9KzLlgy9x9KvXUm3IGTn0rInc5I5xnvXpU1Y8upPuVpmByTwP1qm7cnAPPTFTy8MpJPHXmqrnuOP5V3QXU8mpIdY2F1rGo2Wn2cX2i/vJ0traHdgyyuwVEH1YgVkfGXxFFDqNt4P0q7E2iaAWhle1uzNa3+o9Lq9jIO1ldlCRuACYIYAeQa6HUr2LwL4JutSkkVfEmsqbTTbKa2Je3siD518GP3WcgQxEckGduMIT4pXr4eFlzM8yb1CiiiuwyCiiigAr379mzxZ/abzeEbq5t7ZvmubCa7nKgngNAuc8kncqgdd/UtXgI61c0rUp9F1O1vrVtlzbSrNEx7MpyP1FROPPFoqLsz7zPhmaIL5s8YJOAqIW/nio7zQru1XfsDKee4J/Csz4ZfEWw+I+hxauLVYb5JBb3FoCAUkCqzOgySI9zELnnjn1Pc6hexRWMu/klTtzx2r5+U5wlyyO72UGro4zbtJBGwjtilD44Gagnn+fj8BU9vE02OHOewUk/oK6DlSu7IsQy56jpV2JhkHJP0qhGi+Zt8wbv7pOD+R5qcRmM9yfU9Kzduh2U9DSWXcwIAHFWTKX28gdO9ZKSlS3UHrkVZjlHO5jnHrWEjsg7lxZBknC+lSpMHOexqisoYAA1MXC4ABGPWs2rHZHQ0/N2L94gAdB1psE3yMcg55wDWdJMAuOcGnpcoQOSfxrFo64Ssiwk2SxyM7s/SgMZ32n7i9wOaz3uispwBz2BqzDJtUqcAdyPvGoeiO+kXYibdCwAwxwOeRTm/dhRuUc5Oe9UhcAMoLEKOij+VP3kSqWcIMgqCcE1ySR6cHYu3N6yx4QDB444qskAkcBWVnPLFhnFQXVykmFB3Nx34Bq5DKlmg2kZPVsZ4rmloepSlYlaNbYMSfm7kDHNVY1a5k/dlYx0PHJ96bLKWYk5VWOR9KbDM9tZSzJGwU5AbHBrBto9anUVrmlpl+li8gl+dewzzmrB1YTtJLI+IccIVzn26iuTjkDhpC+0Fs4qxBdNvQ4MuT8sfOPbPNYyulqd8HF6nSR3kVxICU2F+AoUAAVLcxwCfDMk6bMnd8wFZguFhUuGzK3DgDAQVTuL+S6DR2gZIUIMkh++fXHb864ZNvY641VE0JnsFJDIjZ6Iucflms+LSraSVWaK1QPyA0YLA/wBKi8mCIM65WReWkfBkI9D61OLlZYC6sFAOBu44HpWWqM6mLUdma4jhthGY40TDAAKAKxtZjNxfocng7hio3vtyrul3FTkh26n296jur5DKjhs5GDz0pUaXPK8jyKuPcXoyDUrz7M6g4UFQfm71zM+rKk02D8pO44OeTVvxVqUe1DuJYDGBXB6lqYxuQEsDXVDD6nn1MT7SN2XtR1hUd+QDiuR1TUBMzDOecU6/1NmIIHVew6VgXVwS7Hscn5RXs0KFjyZ1UtSWJLvV7610+xt5L2/uplt7a1hG6SeZyFSNB3ZmIAHcmuZ+N/iRNPmtPAmmXM7aboMsn9pAXPmW93qxYrcTx7TtMahUijbqUiDfxkV182pn4b+CJ/Fc4spdX1lJtO0LTrrzVuoEK4k1aMDA2od8MMgY/vVkIGYa+eK+vwOH9nHne7Phc1xntZezjsgooor1j58KKKKACvrb4AeNE8Y+Al024uJp/EGhDy/J2ja2nAKI3znJMblkbgAK0XvXyTXQ+A/Gl94C8T2es2DyK8LYliSQoJojw8TEfwsuQfrWVWHPGxcXZ6n3DDIQw54rQgm5zXLaB4ktPEul2+p2GRa3Ch0JYMVyASjEcblztYeoNbkE/wBD25rwpxep6NOZv29w24Ecc9a17e4+YB2LnGQoPSuYt5iox0ArStbkLxgD/a71wVI9j2aNWx2NhfMmFXGcDLHtXRWFyAu5mBI6selcHa3G1Rk8jn8a27O9LnJOPx6V5VWme9RrHf2OptztAz1Bauk068WONVQbpGwSa4DT7lNwYHJreTWY4cAHr6dTXj1abuerCopncrqCwr5jEM+cYHX6AVr2OtTRor+Rheyt3PbjNcBY3mWWSV1LgZCg8D/69btlqoaTzHYbVPCk8Zrz507HQ4Jo7a2MzFbm5kDPg7Yx0TPf61cXVvOmwGBAIVV7E+v0rkH1sS8RtkAYJJ6GrNpqJBDAZwMLt61yOD6nP7O6uzuILgIAyEbl6n+gq5Hc7ocnDN6elcpBqLcfNyO/pVz+1sfdDMx6Bf61ztM5JQbZ0KTeTGXZtzH5QM85pwOwq5OXOCfasOO/KHLcsRnnpVqPUsR+Y2OOmR39azkY8jNPdm4RiODnmr28AAg5J4A9a56C+8+UFT/+vNXzeokYzgseT7VmzOcXoac0vlwsQSSCD+tJ5gkC88bqwrjUD8gJyQ46HpUqXwMZOSoA3cnHNSL2bNVpFVuw+tc/qt7i/tFGNgLEH3ANPOrAOx3A8H8K5jXtYK3Vs+AUMnlde7DiqjFtnRQpvm1OkGqja7NxtByfXFYd7qLFgcjG0nJ9Kz7rUPLgZA3HNYl1qwQAbsjbit409TohT1NS51PEeTzuG01i3upjc4Dnk461j32tFVY59cc1iXWsDII6+ldcKLZ0cqiWNW1ULwW7njPfmuY1XVTx82CR61X1HVgbhiQOAW9utc1qWpguTuyK9WjRuzGpUsQ+Ir0yWx+ckjDD2Nc5eXxdPfFN1m/LKgGMFuf1rEurwgYB45GK9ylSsjy6lW6G3lyQpAPzfWsWe4PzZOCDg1JcXQEhLE8+prJu7nDHB69RXqU49DyKlS5JBDLqd9b2NsA1xcyCKJWYKCzcAEk8D37DJr54/aG8Y2uv+NW0rS5Y5tI0QNYR3FvLvivZlY+bdKc4IkbO04H7tYx1Br1X4pfEW3+H3hG/sIA7+Kdetfs8UcsOY7SwlB8yYNncJpNoRMDHlvIf4lr5Vr3sFR5V7R/I+exVXmfIgooor1DzwooooAK97/Z51eDxn4f1z4Z6jeJaPcltZ8O54MmqqoT7Nu9J4tyhcZMiRDjJrwSrGnajc6Tf297ZzyWt5bSrNDPCxV43U5VlI6EEAg1nUgqkHFmtKo6U1OPQ9uiWa3keOdJIZYmMckci4dHBwykdiCCOeeK0LPLyAEl8Ho3NXfEniJvihpUPjqwtTHNOVttdViuY7/ALTgKPlilzlS3O8SLk4FYdq9xGN/mRD1IBOBXydak4tqR+kYLEe2pqaO7siI1XY4Pdh1x7Vr6dcM7qgxtZs5bjP1rhbJ7yaHmUxRseTGvJrb0/Shgu19dq2Mllmwc/57V41Skluz3qNWx6ZZ3iR+UDtPOee9dNZ6hEtruBDyO/yoHyQfpXlVh/afCwXce3p5kyZcD8/pXSafoYfZLdX95IzdVSby0/AD/GvGqUUtWz14Ve7O3udVtbCzdbsATyE7VGPNLHoAOpq1pV3q9/DthY6bbEDEl7xO3QfKBkAfXvXMWenWFtcxtDCNwOS8hLt+p4rsrS7R5oFwpTuOMY4rhklHY74V0tDe0PS5bW4j2zi8unYM88qtLIq9xknhfwru9CZFidwzPI7Fi7dT0Gfzrk4L+FFYxRiEbNvyKAGY960dG1FreKNHZ+Gzke3avOneS0KqVXONjtZrmNbR8oP3jYJI5qr4e1IkPHjAhJjO/jhemPwIrMuL/zUji3AucPlOSOMf1qlbaj/Zt6WLYgnARjnAV9x6/h39qySurHKo+40dnJdAM5II3ggEe/PWqks4dEO8OWUKSx4B96pteNI2M/KTww+71qJ7ry4gm8cna+D278Ukjj5bD7u4DZXqAMNxkZHH+TRHIxQbGAI+XA6jms+4n2H5T8obB7EHHX6dKdHeN5ESDywxxkyHoe5z+NdUVdBJ2RYN48LFWUuCnKqOQM+9Zd/EmpwzRsEQsCpB7g+3eprq5U+W+dzKdpCjII7j86ovdJa3R2blLMGLYxx7/TrXVBW1Rg6ljG0nUJbCS602ZjJLBnYWyd0fQdabqDxmIuFQP3ZP8APWs/xPcCC8iv4ZMyI4jkz3UnkfypLi6EkUgyp3IQcc16sYXSkuphUqfaQ6a6Cwwsx/eYAYHoQe+KzLq5IBjOCD8pz6Uk84nt9xBJxkMo4PH61mTXAmQA4TI78YNdkI3PHqVELfBfKyvUDjmsqVmz5gUgdMoOR9atNd4JRyS+Ox4P596ybi4ETFdwIPI+bpXo01Y8itPuNnk2MWTkE5Iz1qhLKCem3Hr1omnxnk/gapySFyRn/EV6UEeNVkEknOSM1A0uSe1NeXt0qJnyTkCu2K0PIqS6A79PX9aryEZzg59qVnwR1/Co9xxx+VdCOCcuohAHfJpjcD1FLuPtTCcmtFoczaQ0sMn8q8d+OnjH5IfD9rIDyJrl0bnuBGcfmQf9mvRfGviyHwfoM1/Id0rZjt4+u6UglcjI4GMmvlzUtQn1W+nu7lzJPM7SOxPUk5NdlKF3zMmnG/vFaiiiuo6gooooAKKKKAPYf2e/igPCetvo2oTsmlag4CEsAsM5KhXJJ4XAwT9K+qluN4zuDKehByD7g/jX56A4r6Y+BHxcGs2UXhzVpgL63QJaTu2BKgwBGSTkvyceuK87E0b/ALxIxqQvqj3Tz8CkkmwMDrVAzYpDNk9vxrzWrmKkXWnwcZ4prXXTB59KotOPWmmbpzis2jrhK2hoCcZOf51LFOpUAY+nTFZAuCB1Bz705bkjpkA8nFYSj0OynO25sG6XagBHB/KpEugFPXj1rGW4PynPA6DNTJJ8pOfm/rXPOJ6MJ6GmGZscke/OKf8AaPnIbJxzj3rM+1EEDPTnFPWcjLMcZJNcslY64S6s01cBDldueCf61IkoQljgYGecis6O4DnJxgDvSXt4HRYVONx5K+nesGdEZotxP50rtn7wyMHjFXWuCoGSQP1rJjuhbgZ6AYyPTpTo7jzSTuPFYTOqMtDQMu9uCRx64FTvc5AIck98HrWWbkIoK7gO+ec01rj5SAxB+vauSSOuErI17ecMr5BCg9xUsNx5fHQ/pWEl1jo2OcmrMN0jq21jkDBzjFYyR1wqdC7dXQQlBjnn2z7VmXF7tJBPGcn1xTJbnYSWPHoe1Zd3cgsxDEH/AGutKEOhbqE15P5mWJzkZBrKkuSWYbsj1pJrrbgEkjb61lT3C7j8wX6GumEDGdW6LMl0Npx0PU5rFvrshCM7edwyaJrweWSDxk1j3dydnf69a7YQ1ON1CK7ut2RgA9cn+lZE0xyfnK+hJqa4uNynknj1rNnl5OD1r0aULHBOd9Bs8xGQPXIPesy4kIOcn04NSyyEZG6qjsCO2a74RPPqVNNCOU5OB+Zq5p+lRjTNQ17U42i8OaXt8+ZkkVLyds+XYxyLwJZAGY8grGkjjJUBm6To954gvJLazUJ5cZnubqVGMFlACA9xOVBKxpuGTgkkhQCzAHlfih8RYfEFtpnh3QWubbwppcYK27u6C+uzu82+lj3FfNcMEBxlYkij52Zb0qFLnld7HlVKnY5jxx40v/H3iO61jUFhhklIWK1tVKW9rCoxHBChJ2RIoCquTgAdetYNFFextojjCiiigAooooAKKKKAO6+EPxGufh34vtL0MW06RxHeQ4yGiYgMQP7wHIPqAewr6x1HXjq7iSGRZLNl3QyJysiHlWB7ggg5r4Ur2j4JfFKPTgvhvWHC2juWsrtskxyMVHlOxbCxEBiMDhj6McclaipP2i3RopO3Kj6L0iG2jC3FzNEPm+WN+9d/Zy2s0MKrLDuOMbWGQa4iAwn+AhmGCoX5h6jBrd0SRLNc+TJ5L8bpExj689K8OunLW56FFWsrGxrOnRPat5sal1BKOAA3Q964okxsykkLk4GeldrrGoxJpkjSOobaRGemTjjBrz1rvaCTgsaihzNWZpUtfQnMp3ZyD+NT+fnoT09azPO5/pSrON2CfwzXU0RGaNaObYqYwSfWpPN3nLEsfes2G4A6Hv3NSNNg8tisGjsjJFoTAPjq2KlinCZ9etZom+ckd6ebjC4JGfas2jqhLUvLccyOcKeRT47rAGDuA9+9ZiTHy85yDU0UxMnXjtWTR6VOasaaybAzEfN1ApjTSPIETIPUtnkCq7S/PwAe+TUMEzM8jjO4n8hXM1fU76czYiYQrkEE+jc7qmMoUhpwR32joKzreVEIZiG9z/SkutTiiBZmyey5zXFNXZ3Qqlm/vUVTgr8wxhjj8aoG/e5Co7FIk6KCeT61j3V8bmUMR3446Cprfezgg4Ujr3pOnY9GlWSWppLI80gX5SR0yMBR/jV9J00yAyZ3SZwu3qT7VgR3kscjrbkJnIJbpUBvyk2JH3vnkjoPp71zyjzaHT9ZS6m75s1+7b5TAgGdiHlvrVpbpLaIJxxgnA5Pt1rnxfxxqWV8t0wWqKbUgjAht5IzhucVySptuxm8WbN1eBtzBwd3XaeB7VUTU5duwn5B3zxWHc6kWhyCAC3rzmqR1I4JLsoB/A0lTMKmKujZuNW2OWZmIycL3rM1DWmjUOZCHY42g9BWNf6uQ2SWOWxwayb/AFHKhOpz610U6DOGVbm3LGsatJNIS7E+nzVz11dsx3AgADuaqX1+28g8nk9azLi7JyQTjvt6Zr1KVGyOWpW0J7q9O8ZOec9c8Vf8L6JYazNe6pr91/Z/hTSU+06ncmQxPcL1FlbPtZftcwDCNT0Cu5+VGNUfD3hy+8b6wun2TxW6xRm4vNQud32bTrZSBJdXDKCViTIyQCSSAAWIB4/4r/EeLWo7fwv4dkuLfwZpku+GJmZf7RugCr38yZx5rg4A/wCWaBUBOCW97CYXnab2PnsfjfZR5Y7s534i+Pr74i+JZNTut0FrGgtdPsBIzxafaJkQ20WeiIvA9TknJYk8vRRX0CSWiPkG23dhRRRTEFFFFABRRRQB7d+zj8TLXQdTk8La3N5Gi6rKv2W6ZlVLK8YqiyyO33YSOJMc4VW/hwfox1ks55IJRsmjO11znB/z3r4Fr6r+BfxUTx5o1v4V1adF8SafEsOmTylU+326kKlsP4nuAWwndlXb1VQeDEUr++jopztoz1iObOOatwXWG4OBWH88TFGV1cHDKykFSOCCOxqxHMQPXivLlFM9GnUsdPa6gvmBjyo6c962bbUVQghu1cXHKUGM1cjuyq9c1wzpJnq0qyO9tdaYEBT8vHOa07DVgkruSGPQFu1eewXxUDnHHHNaFlfs3O4k9Bz0rgqUEezRrpHpcGu4IPODx1rSg1jCphhlueDXm8GoMqnkggH35q/b6qyrGMk4FedPD9j1aeIVj1GDV94Cow28BiD3rasdUCDqeMYBry6x1RkC8nrnPTmtyDV8bP3nPcd686pQ1Or2kZI9Kg1ZpSxVtqDPWtKDUFVQxbn0rzeDVzujO8hQPu5/+vWlHrW7q/J4rhlRZDinsdy2qF2GT7k5pZtZY4QHqcAZrkjqydQ+MDA5pV1EGRGLcbawdISgr3O5tNSWBAMjb7dzUp1cTSFicKnJIPWuHGrK4yx+UHjPT60ra10XPU5Iz2rH2Jm6abO2i1Is7MW4IOPaorrWNkOwNyRjFcn/AGzsHDY4z1qjNrBdmd2w3YZ4oVHuNU0dPcayANu/24Peue1zVdq2ybiW89W2k9etYNxroZzzxjtWFf6z5mowqzEqELj6k4Hf610ww7uapRidleayVjfJBODjmudvdYIiVtxDZ4wawNQ147W2NngjkmsS51YoAA4GB0Jrsp4exi6iSN7U9aYRkBgwx69KwLjWt/cg1jXmqENkvz3ye1ZN5qW4MdyhgM8H616VPD6WOOdfoaVxqpaVyWzngVhX2oKXY5xgkdaoy6llD83J5NZVzfkswDAj616VOjY8+pWF1O+JCsDjac9ay5bwklgeDUd1c/KwJ49jWd5oCDnocV6UILY8ypVH3c56HrWdq+r23hjw9feJNUX/AEGyG2COZGMd9d8GO1yMdfvPyCEVj1wCalqNtYW81xc3UFrBEhkeWd9qgAE49ST0AGSTwBmvm/4n/Eq58eX9vHGr2ujWYKWtmHbaST80zKWIEj8biOwUdBXqYfDuo9djyK9flWm5z/i/xZqHjbxFe61qcgkvLuVpGVciOME/LHGuTtRRhVUcAAAdKxqKK91K2iPIbvqwooopiCiiigAooooA7/4LfEiH4c+K3k1KzGp+HNTh+waxZbA7yWrMCzRbjhZkwHjY9GUds16l4z8Lp4W1q0it7gXmi6jbpqOl3w/5ebR+Y93bzFHyuo+66sO1fN1e1/BT4iafe6PN8P8AxTMltpN3N5+k6s4UNpl82EXzJWPy2jAnzFHQhXHQ58/F4f2i547o9fL8Y8PPlb0Z0tpPsVFJwOOK27SYyYjTacdTjpXN6hp194a1SXTtSgeG7QjH9yRT92RG/jRhyrDhgQRWjZzMhURtlyMn1Jr5GtA+/pVVJJo7LT5FTbu3YHocCtsaqHXIyvG0Akcn864+yusptBw3U/StS2uMuoTkKQST7V5NSld6ndCtqdrp7+XFvaQbjjcWPGDW9pF3uy7SY+bauTzt4riY7wM6AgHABxxg+lbFjdYdecLt59Bg8mvOnTO+Fc9Fsb8SyFM7hnLbueBWqLsI+wHaWk3DgBdprh7C42pvMgJZN2d35Crkd+TPGpYt8oYnPTBrhlSN4VtTvba8Pmo+SQCF/Kn3d0JLKUIcO6MuCOO/FcwmoeSoZSQ2eAD36g/pVo33mMf3xyRvwx6nPesfZWZv7dHTaPrfmWcSt94xjPHOcYPf1zRLfbySH2K3BYnqcVxthqjQT3MEjqwyXU5/hJ7e4NWxqIihUEgAkcA8enSrVHUwlUSd0dB/aW0HeysGALH3FSf2jGZH7jfuAz0HpXIPqRRHjPBLZPP/ANelg1pfJIY4YHG1uuMV0KkzmnV0Okm1A7y7YO1yAD6dv51UvLpWlRjyz8YI5wax7jVhLtO/0Hrk1HdXyrkH5mHII5NdNOlY45VbFXxLOZNOkJ42/wB04HB71DDf5RQCuMDlTw3HX8ap6hcG7ieFjhZFyccD06VhW2pPbubaU7WQbVY/xL26969OnTurHI6mljclv/sjhWP7tuR7H+lZ1zcr5mQ33vQjiq11dCReAPy/lWbLdDBXqOorspwvseZVqFy4nION2R2Oc4NZ8tzvVhnPr9ailvDImMgY6gmqEkuMk49j1r0IQseRVqXLMk+0FWK4qpJKQegP1qB59w6ng96haU468+3c13xieTUmWPM3nggYHrULnA9aiMm3JBGfTNNaX3rqSPMnO7JWbd1pjNnk4/CojJu98UxmyD1GPStkcU3fQm3iqt7dw6faT3VzIsVtChkkc9gPT3oMwVSSyqijLOxwFHck9hXhHxW+JLeIbiTSdOYppsLkPIp5ncEjOQeU9B+NbwhzMxS53Y574heNJfGeuNONyWMRMdtCeMICcMRnG49z/hXK0UV3pW0R1pWVkFFFFMYUUUUAFFFFABUtpdzWNxHcW8jwzxMHjkjbDIwOQQexBqKigD6j+E3xfh8Y2cWmapKkGuwoFV3+UXajABznmQ5JI79RXpIlPOeDXwvbXMtpMssMjRSqcq6Ngg/Wvoz4V/Fy21+xt9J1SRLXVIUEaSvhY50AAUZz9/r7cV5lahy+/HYwnC+qPWvMOO1Naf5RVI3Cg4LAc9zTRcL3YD8a89oiLLnnZ9qDMCeapG5AIO4H8aZ9oUnO4D8azasjrjI0xKR1zz71KtyzAqcgdPfNZIvAv8S++GpftQH8f5muZrqdkJGwLkIuAxJJ5pwmzxuJ4xz0rIS5Redw6+tBvcDO8fnWEo3OyM9Dc+0qQBuC88DPSkS63MWzuGNorDa/AG0YBPUjinpf4AG9QoArmdNnVCasbUtwpQDv6+9MS8CKWyRk469Kymvgw++DjrUJvRGpJbIPTHWsXA6FOyN37ds2gHpmo2vQMHkk9MGsSO8DZAcDIJGTSmZWk+WTHvurJ00bqpZGyl3g9TkHJzU8F7gtz1OAa5w3mw4Eg98GpVusoPnAwccGsJU7m8Kpt3d8VypIPue1Zlzf4A75P1qlcXiv919xxzWfNebgQHXjpk9KI0rGrql+5uwq7gxOR61lXF1lMmobm7Dp99QBz8p5rLub8BcZyD15rrhTOaVUluLvAI6DtWXcXBK4zx2qK7uuSN3Ht2qjNcgKfmY/Mc4Nd9OlY45VBZpirZPTtzVGaXI6Eg9MUrXALc4655NRytuHUEEYz1rrUTjnV6lZ5AB8zcd8Grfh3w9f+LdYi0zT0USMPMnupyy29jACBJdXLgHy4I8gvJj5R6nAL9C8P3via7uobJY44bSE3F9qFxkWunwAgGedgCVQEgYALMSFVWYgHnfHPxXtF8MP4R8I2xtdIndZdS1m4RRqOpyBEDRNIoBSzDoHjtjnDYZ2dwCvpUKDm7vY8+pVD4m/EHSodHTwf4SSObTIpTLqGvyQKt3qk+FV1RwAy2QZA0cLc5O98sQE8poor2YxUVZHG3cKKKKoQUUUUAFFFFABRRRQAUUUUAe7/Bn40Xcd1b6Pq9xCqRx7ba6uDgsRjEbt0PAIBPPQZ6CveYvG82zAggPY8nbn6Zr4Pr234a/GAXzW+k69PFbyqqQ2+oSYRWA4AmbgZ/6aMe3zeo4K+GjJ8yRrGrOOzPcbrWZruYO7AjPCkkhfYc1Abslsqcis4XSAD51O4ZBDZB9MHvUqXAzwwP0rm5IrRAqkpas0Y5885B9809Zt3NZ6z7cHcMZxineepzhhg+9Q0bwdjRS4Jz6+lOEu4nPJrNjuQsvUZ9c1YSYAkblOaylE6IyuXi+MHcfpTWl82TqR64NU2lXA+dRj34qNLoRyHJUH64rLlO2Eu5q+dtGwEjNL5wi456dTxWcLtd/VcGm3F6pbqo/GsbHVCdjQkviwYDAz1waet2sMQy+B3rBFxlyd4475oeVWwxlUk+jAmo5E9DrVXlRtSaqEG4fM3QAGoYpTOTLMSAvOD0rOknhRfvgnvk8VSub8SnaCNg75rD2a6HXCt0RtQ3UcszyOTgcKAeKW71MkbUJ6c4PQVgG72rgyKy9lDYNBvHPzE4A6KOBWcqS6nR9Y8zbW7ZIid3Gc4zgn/wCtTGvAEOFyT78VhjURv4kBJGMdhQ+oRR5JdS/TOawdJ9BfWH3NR7gIDyMnsKoz6j5QJDHJGCTWXPqakjDKc9welULi6EuctlV7g9aI0erJWI7mpNqRfkNtA44OM1Wl1BWChmIVcde5rLmusABW4AxjNUrm92IQGAzx1rRUSHWbL91qZaXvn1rM1C9ZmGGPA5561Re78vqwJJ/OqF7dD+/j2zXRCijN10LPOXYk8dcVc8K+F9T8ca7FpOlKhl2ma5u52K2thbrjzLq5kAPlQR5BZzwB6kgGDw34fufFt7JbwXlnptnbr5t7qupS+Xa2MfPzyN3PB2xqC7nhVYnFZnxE+KunQaK3hHwGt5aeHHIe/wBVvkSPUdXlKoHWVk+5ah03x22WCk7mZ35HrUMM577Hk4nGqmrLcd8U/H+k2GkjwR4Ob7Ro8TpLquuSKPO1e8VcOY3wGWyDfNFEwB6O/wA5wvkVFFe5GKirI+ZnNzd5BRRRVEBRRRQAUUUUAFFFFABU1neT6fdRXNtNJb3MLrJFNC5V42ByGUjkEEAgjpUNFAH1n8LPjDB8SLFLLVZVg8W26AM+4KmoxqFG/LNlrgncWA+8BuHORXepOGRSp3AjIxXwrZXs+nXUVzbSyW9zCweKaJirxsDkMpHIIPcV9R/CX4v2Pjyzs9G1NlsfFcS+VFK7bIdRUBVQZJJ+0s2eOFfthuD51ahb3oHRCfQ9OjnLD1qzFLx8vfvWRI7W8rxTI0MyMUeKQbWVhwQR2IqZLpV7rn3Nea4djshU1NtJyQADz0q9BceWy84Ga56G6Cn/AFi5+tWkv1yMOuB1xXLKNz0aVa51EVzuUc96vQS8gFhnrXJpqKAg7wSfQ1bTVgD98D6muSVM9CFdo7aDUAoBz8o/SrkWrLu3E9scVw0eqjGTIuPTNWodSU9XUVySoXPQhXaO5j1ht33x19avprZ2LzgfzrgBqyqv+sUgejVbg1dWOTIMDjrXK8OdEcRdbnoUerguNzH6ZqSTW2MhHmYGMYBrgF1lFBHmZJ9TUg1ccfvFP/Aq5nhtdjVYhHoH9tjb98qVwcE4pF8Q4kO1gW24zXC/2wuGzImO5DVHDra7mPmDJ4zmoeGuaRr33PQW18xgguAT71Qu9fPlkK2SeOtcZPrCPz5q9fXrVObXI06yDn0aiOFT6FSrqx1E2sk/xYIrFu9UeSVpFfLR/KOfTtXPz6uJGyJAoA6E1Tl1VVXaHAGM8nGa7YYe3Q5HXN2TWfMO7f14rPutUyMluQfWudfU0yw8z+LPPpVebU1LEbx+ddMaFmcc65rXmoFiPm4xmsu5v8kYJ5OKzbjUVJ5dfwNZ8l8GfG8DHvXXCicNSt1NOa93dGxWdJd53dTj1NVJL0ZwGH0zVZrgE5yPfmuqNO2pwzqdSWW4LHmm6ZZz6pcXKJJHbWttEbm8vJ8iCzgBAaWQgcKMgYxkkgDJNJZWS31rqGoXN9b6XoumxNPd6ldSBI02jPlISQHnYZ2RD5mPoMkeCfFT433Xi+0fw/ocb6T4SjlZlh+7cX+Cdkt0QTufGMIDsTsM5Y99DDuo/I4KlflQz40fFWHxhcrpGhJJD4XtZA8TTqFmu5QMGaTHTqdqdFBxycmvLKKK92MVBcsTy23J3YUUUVRIUUUUAFFFFABRRRQAUUUUAe5/Df4k23jHSrPwl4nuBHqNogh0PWp35RRwtnM7cCHrsP8AATj7p422S40u/ntLuFra8gYxywuCGRh1Br5xr2r4b/EvTvEFiPD3i2d7e8G2PS9fkcHyTwqw3LMf9QBn5h8ye69PGxmCU7zpr5Hu4DHui1TnsdvBerEm7gnpwa0rK6KRMVwSTuOTXPalp17od79lv0aJsCSKReY54z92WNujxsOVYcEVJFeKXVNw2+pNfMVKXQ+vp1U1dM6+xvRGqltuWOcmtjT70yzKAcKOpJ69OtcWl8JCMFcLxwa19OvkGTuAHv61586WlzsVax3kWpDIVWU8cnPQVYh1JvOygA9T1rjrDUVeRm8xdgwBn69avxakvmHa+cEfTFcbo6nRGtY7tdT5UFsdjjip5NVVXQFhtI57Hr/9auPTVgz8uuBzwaSbVN8qAuF2kHlqz9hdjlWtqdTNqiiaArggy4yeuCDxUlxqMcTrt4J4HPvXIT6ih2yBkGxg3BAyM/8A16fc6qCchwxHICnn61tGiZPEeZ0zaoS7Z4OMZH+etRNqW2QbvmBXAyc//qrm21Mlx82MkZyetB1APISGUDaeT061vGjY53X7s6MakScZIwPz/wA4qKXUmIBLsD0I/wAKwJL5d+Q4P4019QVucr93pmtlSOSVfzNqfUOvJAHT3FY+r3Ali3qxDpyCe/41Vk1EdDIGwepI6VBJfoSQ20jGMV106eqOSVYnTVFaIfOCCOmeQarvebwx3Drwc1ku0XnyqFVlYbgSOn61GzRq3yMEY8jbwv4iu9U0cVWpfU0JLw5wD+ZqBp2zg+nArOa6fncUPuDimi6BO0kZH0rqjBnl1Jl5p+T6iojKSARg59e1VGuB1LD65phnGeWx+NdcYnmVJPYutMdwJzz2J4pvm8cnFU/OXP3gPcnrSG4C8k45681ujiky403GP1I4puT7fXHFVJLqNF3SSJGgGS7nAHuTXkfxE+KxuvN0zRXKw8rNdqcFuoKoQfu4xz3reEW3ocqTm9CX4sfEz7SJdE0qQGDlbm5Q/fPIKKQeV9fWvJKCc0V3Rioqx1xjyqwUUUVRQUUUUAFFFFABRRRQAUUUUAFFFFABRRRQAUUUUAFFT2Wn3GozCK2heZz2QZx7n0Fd9oHwqMgWTUpSTwRFCcDHuSP5fnWFStCkvfZ1UMNVxDtTR59b2s15II4InmkP8Ealj+QrqdJ+GOtanEJGjS0QnpOSGx64AP64r2LQ/B1pZootrZIegzEoBP1OOa6iw0qSJjuiEgzt4HNeJWzW2lNH1WF4f57Oq/uPLNI+B1nLEpuru4lkHURYVc+nQn9a7HTfhLollEFXTIpXA5a4XeSfXmu7tdMVGBaMxDOD5gwK6yx0WO6VChWUEDcQckfWvAr5lWe8mfW4bI8PD4YL8zzK38B6VFHvi0q1jYd0t1HP4CtiLw/EkUKC3RcMOQoAH6V6QnhkFcRoT64HFOfwxLFEVVVkXbvHrmvLljnJ6s92nlUYx0jY4i48LRCAGS2RweM7ARj8qx7n4eaRMCz6TZTbgSd9ujH9RXr0Ggy3loWX5F29M/8A1qYfDIjQKUy/qOhFZxxso9RyyyDWsb/I8Cv/AITeHNSjeNtLigYZ5gHlkf8AfOK47VPgDZbJDaXlzBJzjzcOo/QH9a+k9R8NG3m3rGxz2x0NZupaIJISwUbx1r06OaVo/DNnj4jI8NU+Kmvy/I+Rda+EWvaRG0kaR36DtbEl8eu0gfpmuOurO4sZTFcwSW8o52SoVP5GvsmXStyuCK5rW/B1lqpKXlpFOgyAZEBI+hxx+Fe9QzhvSorny2K4aS1oyt6nytRXqniz4OJakyaTcEEknyLhsjHPCkD+f515rqOl3ek3Bhu7eS3k5wJFIz7j1HuK9+jiKddXgz47E4OvhXarG3n0KtFFFdJxBRRRQAUV7J+ytbfDu6+I9wvxIe0XShYSG1/tByluZ9yYDkEfwb8Z4z74rzz4ipocXj3xCnhli3h5b+YWBJJzDvOzBPOMYxnnGM80Ac9RRRQAUUUUAFFFFABRRRQAUUUUAFFFFABRRRQAUUUUAFFFFABRU1pZT30ojgiaV/RRnH19K6rTPA64330uTn/VxHj8Tj+VZynGG5UYuWxyUMEtw+yKN5X/ALqKSa27HwVqN6oZlS3U9pSc/kBXeWOm29mu2CFIux2rjP1NXljIPSuOeKf2UdtPDX3OYtPhvbBFM9xLI/cJhR/I1tWXg/SrUAfY45PeUb/51uwwMydOParcVkSM7c/SvPniJvdnqUsHHsVLTw3p0a7ksbdSBniJR/Sr8WlxbcCFQO2F4rVsbYtHt28Y9K0rbTW8rITd3zXnzrvqz2KWDXRGE2kW7QDdGvzcYKis5/C+mysTJYW8n+9Cp/pXXSWDCLLqQOcVALLjOOlZqu11O36knvE4q88BaPeqQ2nxxcdYV2EflWFd/B62lVvslzPE+MjzMMv8ga9ajsMpu25/CrCWClVYAdcHFaRxtSG0iZZTSqbxPnnVfhVrmmwNMkcd4g/hgJL49cED9M1ydzaT2UpjuIZIJBzskUqfyNfXSaSsrFCjDA9OtZGv+BbO9jUXtkkykcF0BIyOxxxXZSzXW1RHmV+H3a9J/efK9FeueKPgh5SCXRp2DEkmC5bI7/dIH8/zry7U9IvdGuTb3ttJbSjOBIpG7BxkHuPcV7dHEU669xnzOIwdfCu1WNvPoVKKKK6TiCiiigAor2T9la2+Hd18R7hfiQ9oulCwkNr/AGg5S3M+5MByCP4N+M8Z98V558RU0OLx74hTwyxbw8t/MLAkk5h3nZgnnGMYzzjGeaAOeooooAKKKKACiiigAooooAKKKKACiiigAooooAKKKKACiiigAoq1pulXmsXAgs7eS4kOMiNScdsk9h7mvR9B+DZ2rLq05LZBENueMehJH8vzrOVSMN2XGEpbI8ztrSe8lEdvDJPIf4I1LH8hXSaZ8N9Y1BFd40tFPackNj6AH9a9m0zw/ZaWvl2lrFbjGCUQAn6nv+NXHt+CAOfWuZ4jsjrjhnuzy+3+FNtEi/aLmWWTuEwo/kTWhB4L0yyGPsiSD+9INx/Wu6a23Zx1qC4ssjaADkVm6z6s6Y4Zdjj30GyibKWkC/7sYH9KgmskUcIo9gK6WayMZyVyn8v/AK1VpbLIzjPvS9p5nQsN5HKT2Snqgx7is6bS4GJzDGffaK6q4tPm6fhWfc2m3PGKftBPD+Ry1xotu2f3YX/d4rPn0JQCUdgf9quqmhwOlU5ITg1oqjMJYePY5OXTZohnG8f7NVmUocMCD6GureLmoJrOOUfMgP1FbKp3OSWH7HNUVqXOjEcxN+DVmyRPE211Kn3rZNPY5ZRcdxtFFFMkKKKKACivZP2Vrb4d3XxHuF+JD2i6ULCQ2v8AaDlLcz7kwHII/g34zxn3xXnnxFTQ4vHviFPDLFvDy38wsCSTmHedmCecYxjPOMZ5oA56iiigAooooAKKKKACiiigAooooAKKKKACiiigAooooAKKKKACiprWznvZRHBE0rnsozj611Wl+AmID30mO/lxn+ZxUuSjuXGEpbI5GKJ5n2xo0jeijJrWs/Cl/dqGKCBT/wA9Mg/lXoFpo9tYpthgSP3CjJ/GrHlVg63Y6Y4d/aZx0HgiNQPOndm7hOBV6Lw1YwD/AFAf3fmugMftUbR4qPaNmqoxXQyl0m1j+7bRA+yCpPska9I1H/AavFaYUpczDkS6FE2sZGDGp/CoX0u2frbxn/gArRKcmkMdPmYuRdjGm8P2cwwYQn+5xVGfwjER+6ldW/2+RXTbKBH7VXOyXTi+hwtz4avbdSwQTD/pnyfyrNkieFtsiMjejDBr08RVHcaXb3i7ZoUf3K8irVXuZOi+h5lRXXah4FJBayk567JT/I4rl7uynsJTHcRPE/owxn6etaqSlsYSi47kNFFFUSFFFFABRXsn7K1t8O7r4j3C/Eh7RdKFhIbX+0HKW5n3JgOQR/BvxnjPvivPPiKmhxePfEKeGWLeHlv5hYEknMO87ME84xjGecYzzQBz1FFFABRRRQAUUUUAFFFFABRRRQAUUUUAFFFFABRRTo43mkWONS7scKqjJJ9BQA2uq8OeA7nVts10GtrY9FIw7dOmR0963fCPgVbXy7u+QSTn5ljPKp0PPH3hXpVlZCVVG0D3FeRicaoe7T+8+gwWWuo1Kr9xmeHPDVtYxCG3hSMADtgkjuT3rq7TR3Ur8vy9DuHFWtM0gqV3IVYdDjrXYaVpnmKoZdrDjJHBr5bEYl3u2foGDwCSSSMrTtHeJl2r05zXU6bpSXAG4AEnH/1/pWvY+H8qkgQPjkriuk0XRLaZ23pgtgjb6flXz1fFdT7bCYC9lY5+Pw4du0fOAc9M1uWXhmW0RbiBVUD76x/xDucetda/h/7MkYj3MpXowwQPrWlaWPlQjDAH2I6ehFePPFtrQ+mp5ckrmVpeniWHGA20ZynQr71sx+GrZ1RwNqNgD2b/AApljYS2163llBHIeB2ye30rtbXRZ3tDKY+SuduO/tXBUqtPRmlSnCklzHLWfhlbbzIsJsP7wZHOO/4Umo+Fk8rdGoLYD5HoK7iDTmLW8roR/wAsyG7g881ebSFkVcqG2nGF6Faw9vJO9zz51KS0PG5tCjWUGSNiN2MgZGKxte8MQwwNLHHtDZ7Yr2bUPCBeU4UrGWOF54rkdZ8PJaRTo0pMQ+b942efbiu2lidVqY+yp1dYM8NvNGCROVjyT3I4xXKahbPI5SCIMRwXI4H0r2fWfDMkoSVgYrY4xEeHYepHYe1c/qXhryzhIhDH1Hy4OPavco4ldThr4TmWiPGrzRSGO5Sz+rCsTXfB9nrFkYLq2SZSp5ZRlSR1B7H3r1i90nzDINn3M8461i3FgRG2VUD3HNexSxTVmmfO4nARlFqSuj5X8Y/C280Hfc2Ae8sgeVxmROuSQByOOv6VwtfXupabtU9/YV5H8QPhjHerJfaXGsV2PmeEcLIOSSAB948e1fXYPMlO0Kv3n5tmWRuleph18v8AI8eop00L28rxSo0ciEqyMMFSOoIptfQHxwUUUUAFFFFABRRRQAUUUUAFFFFABRRRQAUUUUAFFFFABRRSojSuqIpZ2OAoGSTQAldBonhOW/Amut0EHZcYdv8A61augeF0swtxdqJJzyqHlV6e3WuizmuSpWtpE3hSctyOysoNPiEVvGsagdQOT7n1q4qnOahUDIqzCN3FefKT3Z6VOn0J4Fy2CMA1fjtjJtwKrQxHI9K2rBdmAR6HJrjnK2x6tGjfcuabYDbh+K6HTNISSFgAC2MAVUs7f7UVwvzdMCuw0TRXiMZyNxOcH04ryK1Wy3PosNh7sy4NJEMWFUbw+0jHatOLQz5IdGK9iO1bUtn9n1GNDFlWKg8dOa7CTQ4RYkgKp+8RXk1MTy28z6Wjgk9keatpZlIUqeBjJFZN/YrbuVIwc16XLpapG4GGJjLAiuC8RxtGrtxu6fTrV0aznKx21MGoQcmjnpb4Q5VW6cYFWdMkFwwIJBzmsj7O8kmMH8q63wvobvIh24zj7w47V3VXGEbnDhqU61S1tDrdB01LuAymMNhCMkc54rN1iwaC6AkcFA3APoK73w9ok8dsjRxlh5gUgdD0NYXjHw9IuqzMUcbmYhfxNeHCunUaufR1cvfInY5X7DaOh3AM7dB2Fcl438L6bqenSx3UENxuYhQqglcgjKnsfcV2d/YPZQ/OGQkd+CaxINLfVr0Km4xg559a9OjVcXzp7Hh4rAqScJRvc+c/GfwjvtAhF5Yb72zwC0YBMsfXJIA5A9f0715/X2jrGiNbwtIuCwOCGNeK/EX4ZwahE2oaWiwXwG6WBcBJOpJAA+8Tj2P619XgszVS0av3/wCZ+c5pkEqN6mHXy/yPGKKdLE8Erxyo0ciEqyMMEH0IptfQnxWwUUUUAFFFFABRRRQAUUUUAFFFFABRRRQAUUUUAFFFFABRRT4IJLqaOGGNpZZGCoiDLMT0AHegBld94K+FF5r+y61APZWJ6KQVlfpggEcA56/pXafDv4QrpqQ6jq8az3jYKQH5kiBwRkEffBz7D9a9Vt9P28Bcj6V5lbFpe7T+89GjhebWZzmi+FrPRLVLeztkgQAAlV5Y46se5960TYFR6CtprcIR8pI9KWW3Vl+ToeQD1Fefztu7PWjQWyMOSy24wO1V2hAGMHNbwtyxOegqvNaBVzjgniq9odMMPcxza54HXrmojZMT05zithYlX7wyKYYXGWUZU/yrJ1T0KeFRiT2OEYEYPpWPLEEZoh06gentXVzQCTaVzWNqVjsfzl/h+99O9KNS5tKhy9DnbqDGTjt3rPnjDIcjkc810k9su0se/rWbPbKQemRwfpWqqGEqDRzM0ADeue1Up4dpIx71u3VttOccZ7VQlt8k4GcVvGZwzpGLLDznFQPF7VsTQAA9OlVJI+Oa2jM450jOKcVXntUnUq6hh24rRaMY6VCye1bRlY45077nNXmmPb5ZMun6iqVdZIgrIv8ATQ2XiGG7r2NdMZ33POnSa1RlUUEFSQRgjtRWxzhRRRQAUUUUAFFFFABRRRQAUUUUAFFFFABRRRQAUUUUAFFFOjjaWRURS7scBVGSTQA2uk8P+C7jVNs1zut7Y9iMO30yOnvW/wCFfAy2wS6v0Ek55WI8qnTqMda7NbcDjHFctSslpE76WGcvemZen6Nb6bCIreJUHcgcn3J71b8r8aueVSNH7VyOTZ3qCirIpmIUxkAHTpVtkxVeQdaEyWV2XnvmomAqdqharMmRMOtMIqVqYaokiI5NGypQvqKUJn8KAsQhM1IsdSrH7VMkY/GlcpIgWHNSJF7VOsftU6Re1TcqxBHDz0p11ottqkJiuYVkUjgkcr7g9jV2KHmrcMPIoUrbEyimtTyzxL8PLrSla4sg13ajqoGZE9SQByPeuQr6Ttohx3rk/G3wqTWIZL/SEWG9A3Pbj5UlwCTgAfeJx7H9a64VL6M8+pT5dUeMUU+4t5bWeSGaNopo2KvG4wykdQR2NMroMAooooAKKKKACiiigAooooAKKKKACiiigAooooAKKKKAHRxtLIqIpd2OFUDJJr0vwd4QXTAlxcKHu2GeeRH7D396qeCPCggRby5jzcOMopHCLxz04Neh2OnvuHvXjYvE/Yiz6HAYK7VSaLGn2xyAQCM8V1Ok6aWIIUe6mqemaf5gUAYOe9dfpWnoRGr/ALs7hz618tiK1j7/AAeGvZsv2Omo0CnnIGDuH8jXVeHbGFnWOYnY3RmHRu3NM0WxLwtG2HTlVOOAfWui0XTgFIbC84AI4Jr5qvW0aufe4LCbNI39L0LDBhjywAfl9Peujj0iC1HmQhME8p1wPUVBobyeUEkC7VTB4x9K27aNPM+6pVhtKgc/WvnalSTep9fCCpK9tRLeJSIVJ3Rlhw56fWtE6QkMgQxhUc8Ej19D6UsFuFAWSIrG/wAoZl6e9XBY3EDYWQTxleDknH+FczZy1KuujsRWegkXLRuuEPQgdD616P4T09mtfs9woZgAFYnqOxrD0CJ7qSNGQb4xh9/GRx09a9C03SPstus8Dh2j+bYeWK9dv+FctSfRnyOa41tcknqczNorrMvygqs4TGPet0eG4hHuXIbZnAAAFTawRLJHPbg/OwYJnkOOef5VYXUj9nVwpPmDaS3b1rBybWh4NTEVpxi4lHXNLjh04O6qqhN+cegrzmXwgmrk3V1G0cKtuSJhyT/ebI/IV6U9wNZvY0Y4srUgnn77jse20A/n9KtXX2eSFnkXguSkajk+/wD9aqhNwN8PjKmFjy9WeE6/4fE1wFEeIlxzjBxXKazpKfvXKBkVdi8d69s8U6UskYEabS7b2wf0PFeaeKLJYZxGThjjCp936mvQpVXofa4KvHFRSe55XrujR2saD77OMlUri9WsGZWCRFR05GK9f1bRxGwkDFyPm21wXiYyeYQUjQdcA8mvdw1Zuw8VhU436Hm2pacI4ycgk8ECuUvrLzHIx37Cu61S1k5bC5bnHpXO3ltg55BxX0VGpY+OxWHv0PHviL8O4tWha7tAI9RUZwOBKOeD7+hrxSaGS3leKVGjkRirIwwVI6givqq9g3M2eTnvXlnxK8EC+jfU7OPF1GMyoox5ijJJwBy3T8Pwr6/AYy1qdR6dD8zzjK961Ja9V3PJaKKK+jPiQooooAKKKKACiiigAooooAKKKKACiiigAooooAVEaV1RFLOxwFA5JruPD3h9NMjE0wDXTD8EHoPf3qv4Z0MWka3U65ncfIp/hBxz7GuhBriq1L+6jpp076scTilBpv1ozXG9TtiiVGGRVyAA49az0PNX7XqOOKykdtJXZq2UZLjIyK6SxgWQIGABPesKyBGCOgrq9MlRvLDKCeARivLrSaPosLTubWk2n2F1YrnsCB/n2rt7KRBFHIeNuBn8K5SznUybTux0HtXX2UCzwwKpyrctnpXgV5X3PsMLQt0NPdb3aJKQwAk5Jx+VWW1iIb4SC6BuHHUD3qq0Pl2z20Y3AncSOSCOKSygVVfK5bPzHr2ry5WPrKFF2SsWFieRjJCxAZdorEufCs95vDREnJxwea6uFI4kj8nksuCD79xW74ZlL6pNG0e7KFMP2ORzWLryp3cT2YYONT3ZHn2kfDKSWVHmiCRk/eI7Z+ldtpXg1LG1IWIOoJOcAn+Vd9NaxQ2u2NRkLyAOmB2qrYOkvm+Y3lrGhOAcFq4amMqVd2ejQwNClFyjETwrYokjRuoZBFv57MOP61D4gtbFLi8llAfZGyxh8H5/b/PrUq6lDGsYUFGUnc3cisbX76FpWk3Z252qT949q5I3lO52fV3d32PIfEqT3d45J3ZOAo6AdqNL0uWBeQY1x15Bz7V2Go2draRLLIytM/zMzEYHfj2rmr/WSzERI7AceZ0X8DX0NOq5xUYo+fr4OMJOUnqZerRRKj7+cnDZ5avP/EkqRsRFH5agYxjr1611WrX0zMdkaY9cmuM1gNOWaQMT7HNezhU09T47MIKzSR5b428LR6yGubdVS9UduBIPQ+/oa8wkjeGRo5FKOpKsrDBB9K+gZbaNmwTj2rgvH3hZLgNe2qAToPnVejqM89OWr7DCYm1qctj8qzbLd69Na9TzmiiivaPjgooooAKKKKACiiigAooooAKKKKACiiigAooooAfBBJdTRwwo0ssjBURBksT0AFe//DH4ZReHbdL6+RZdUkXPIyIQccD/AGvU/gPel8I/hn/ZkEWsajDm9mXMMbjIiQ4IJBHD9foD9a9htdPwBgfpXk4mvze5HY9LD0be/IZaQhQBVtAUfITn09auwWAC8LhjUyWX7wAj5h615uiPYpxkzPkUsA2z8QKrSxFc469xW88SRHBAwRVOe2UyBl/AVHNY9KNGS1M2KIOvIb296YIVZgOQR2rXez2oGUgHqKo3luQpcDaeu4HrWDqXZ60KHu3sZU0ISUjb3p1tESMEEr6AVOmJHy2cDrV5IlLboztwdwyOp9KznOyOuhT1MmayEZbaAf4sGse/gDKxA4bIIPT6V0F5OFkZSh3AgEnt/nmsy5XJwwBDdPSojJ7s6Z049Dl/I86EgDiP5Ce5xVC4syhIHJ9/SugFqYmnz9wv1/AVl3UTLMQOee1dSnqccqSauc9cqWJTA44GapSWoBzyMitu9gAfdjn+tZ1wpxnHHfPrXRGXY86pT1dzHntwCfY1TlhBHFbMqAqR3PSsyVChx+FdEWedUijMdNrEfjULpV2SLLe9QyJjnFdCZ50oFKROtVZFq/IM1UlXFbRZxTiZF/ZCbLoMOP1rJIKkgjBHaukkFZl/abgZFHzDqPWuuEujPOqU+qM6iiitjmCiiigAooooAKKKKACiiigAooooAKKKKACiiigB0cbTSLGil3YgKqjJJ9K9O8HeDU0uNbm6UPeMMgYyIx6D396g8CeEPskaX92gM7jMaMPuKcEHkcNXewQcVw1qv2UerhsP9uRDHBgdKlENW0h46UrREDpXA5Hq8uhRaMCo2jxV4xcdKhkTj0ppmbRQkFVJKuTDGapS8VtE5ZELHBqFm60+Q9qgd62SMGIxpM0wn8aVBk5NVYi5IBUqpn2pqqTjAqxGOMcVLNUIq9sVLHH7U5UHAqzHFnFSWkMSGrMUJJHFSxQHrirsUA4rJs1UCCK29RVpLbHuaswwZ6Dn6VaS329cVnzaluGhBBDjtWxZLtx61TWMDt14q/ANpAzzW0ZHNUhoct8R/hVD4xsXv9PRYdZiXIwMC4A/hb/a9D+B46fOlzbTWVzLb3ETwzxMUkjkGGVgcEEdiK+z7CXbtrz/AONXwnTxLp8mv6RCF1W3TdcQoABPGoYkgAZaTp35Ax2FehTlfQ8mpHkZ82UUUVqQFFFFABRRRQAUUUUAFFFFABRRRQAUUUUAFdL4L0EaleC5mXNvE3A/vOMH8v8A61YFnave3UUEY+aRgvTp7163ommx2dpDBGoCoAMgck9yfeuPE1fZxst2ehg6HtZ3eyNyytxlSBz6V0enwbx05Xms7TIcgcY9zXR6dasD8o5PFfKVpn3mFpbGppVqGlXf8oPQiuusbdshGGUHQ9/Y1gWFtuZeCNveux0u0eVEO4enHUCvn8RM+5wNG5raRutmypz2ZSOCOOa7PT285Y8LGVz8ygcVz2m2rgo2BgDjnn6V1un243RuUKZGRgY/E185iJI/QMDSsrs0oZHhuFdV2ggcYrptOvY8q7xyDB5AAxWTFA7xDKAjse9a2n2MwGPLE6t/CoORXlSszqxMoSjqdLdXq6rZqsdqCqD5XRcE8VNocISMQzZ2OcZcZZT6fSqumwTW06xhmijK5AbpmujisEmtzKHWafHKK3T8K5W7aHylecaUfZrYsLp0ti4IBdNwwx9PQ+1dzosqOE3ECRvlJXAA9jXN2emXEVurCQsjqAVc5HTpWt4dtJbm7ePb+9hQsOPl2+9cstUfKYySqwbb2Ld0Iba/aRI/uHc+7G0jPLCsy/viYZFtLUyAyEqVTOc9Ksa9M4uNP09EHmXUgEjrkYBJyK7vSvA9u9qiNHsXIO4cEUrqKTZ5VTE0sLCNSrrfb5Hn2lWdveW5t45Htr1FLskp27z34+tX7aLyiHZ42I+XHU574ra8feF0sY4762xHLasJAcYLKMkg+orl7+d3gSWLKRy4JKjkZGaL82xrSqrFxVSD0f4Mr6wkOHjDAu4HGASPc15j4p0Mzag8kcgkjHGc4x1rtHiV76XM8rEA5O7nHpSXUVlLaurEQy/weZgbj9a3g+Q+nwVWWDknF3PHLzTy8hVchBwQa4TxLpYWSQ4Gc9jn1r1jxNYyRSsIlTgHcynPrXneswtISHyDjjFerQm07n3lO2Ipcx5XqNpI8j/wr2Fc/eWpIbjOOMmvRtU0aVjnHUZFcpqenNb/ACsMZPIxX0VGsmeBisG1fQ4K9sidxwc+prnb+3ZgQRj8K7zUbcqSNuR71y+oQjDcjdXu0Klz4vGYa19D57+InhcaPqBvLdcWs7HcP7rnJIHoP/r1x9fQPiTR4dTsJ7eVQwdSM4B2nsR7ivBtQsZNNvZrWUYeJip4xn3Hsa+3wVf2sOV7o/Is1wf1arzRXuv8yvRRRXpHhhRRRQAUUUUAFFFFABRRRQAUUUUAFbnhjSBeT/aZRmGI8D+83H6VkWls95cxwoPmdgOnT3r0G0tUs7aOCMYVAB06n1NYVZ8qsjWEeZljvThTQKeBXnM74oevNBU0qLU6R54xmovY6oxuQIhJrTsItzDvUEVvuYVtafboCBkDnvWFSdkelh6L5i9Zw7MLzz0z/Kun0WxzKm8gIOp71kQqu0JgFuxFbWnXSsiKQVkU8nua8erJtaH1mFpJNXOlFiRKmzleoYdxXeabbpNosiqFWaP5wAOSMf41yugzoyxk5fBwM10c139jv1jjPljCnOeq9xXz1duT5T7bCUopXYttIbfYzgtuYZNXdKszJfuJCVhdjg/WrtvDayRsWxKc5HPQ4rd8N+HZdQkR2UqN+0ds+lebUqqKbPqqFHRdiFtANvLEqkMrjKbuD16Vr6PbWml3qNczfvGbACnnPoa6DVrKO00yPan+kxYO0c54rl5YTcTJcfxDHy46V5ntHNan0NCnGcbxN83Rgmk2ncGJBzz1qtLagvuUkBgSSOmT2qqs7TTKpbYMZb3roYTbwaJNPMV/dHd94AnjoPWsdjWf7mz6s5XVDFZqpZmz2QdSfYVg3kFzqUnmRxmGPgFnHzcegrooNOkvZ/tc4JlfmNSMhV7VqCyUjy8LhR2rdS5NtzaUk1aTOGOhRtGZrkGfHH705/IdK4jxGV89goO1eAq8ADmvX9VtUjhZVwSR3GRXmmu6YzXDkksDzwO1d2GqXl7zOLFUFOneCOBvd7xsDkAelczfShN65BHsea7vV7YLGcAkAY+UYrgb+0ZZmIHc19Lh5KR+f5jScDHuI45gSRg1l3dtHgqRz6nmt17Yn5gOnWsq7iZpD8o+lexTkfFYmlpqjyLxp4dOlXX2qJf9HmbnH8LnJx9K5qvatY0hNQsZoJVBV1I5HKn1HuK8cv7OTT7ya3lGHjYqTjr7j2NfTYWt7WNnuj8yzPCfV6nNFaMgoooruPGCiiigAooooAKKKKACiiigAooooAK9J+DPgD/hJdVGqXaZsLRxsXP+slBBAIxyoByfw964TQtGuPEGr2mnWykzXEixg4JCgnljjsByfYV9g+DvC0Hh3SrSxtox5MMYUkKAWPGWOO56muPE1eSPKt2dWHp88rvZGnaadiNTjJPatq1sANo25Bx26VcsdPEpRRgAmtmfTIraQeTJvjCj5iOpxz+teLa2h7UY3dzLSxGcAjPXmopLQrH97kc59K0J1MZAIzgYyKz7wurnbnY3rUNM9WkrdDOmy3HUAdutVHyW3L8/f6VcCMm8YYCq5OwnDAE8YNYy0PWpLa42e4LqsSgKelZt0zO3lk55wea0kCtktww74qNbfdgsm5D/ABY55rkbserGncz4bLcflLNgYxjmtMCPynQsq7BnI6k+lNW3mtJC0OdpH8QqxZ2sMy5J5bqO/vXPUlfU7qVPldrGPcWZLnyzvyueecH3qjLCzAKVHmj5SpHFdNNacsIRtI6gj7w71m30Ymb/AFZWRODxyalTudMqSSOZvoPLb5iAkgA2j17f59qxry2VDkZ3D72e9dFqimeApsxIBleO46YrGe2aWEOTxgFl6kHvXVB6HFOKehgXcRZWHHPQ+lZ08eYipHQc/Wugkt/vcDb2JrOlhY8HI9eOorqhI8ytT6mC9qSuc/QGqc9uEbDZro5IB5KrjnHce1Yt9C4fvjqK6YSueXWpqJi3C4mGOBiq061fkUySEd8VTuAR25rrizyZrQpOAD71UkGWOatyk8gfnVVwK6UedNFWUVWdRVuQVXcc1tE4pIxr238p9y/dP6Gq1bM8YkQqRWO6lGKnqK6ou6OCcbMSiiirMwooooAKKKKACiiigAooooAKKKKACur8B+Gv7WvPtc65toG4H95xggfT/wCtXOafYy6lew2sIzJKwUcZx7n2Fe4aHpMelWUNtEuFjUAkD7x7k+5rnrVORWW524Wj7SV3si9bwYA4rSgt+BRbQZxxWjBb4x6V4s5n0kIEHlBR06U3yMjcR9KsSAmULjjPNWvs37usr2NOW5kNCACSBVG5GAcVtvCQDn6VlXkW0GtoMwnHQxp+9Z8p6+taU4yDWZPgEjr7Cu2J5s1YqyN1qszc1NMD3/Sq5AFdKRysVee1SKTnpUYbccVLGMmmwRPFu65FTqnqzVFGDVqJD1A59azaNkTQwEgfMfXmr8EWzG8fjjioLYgjBPNXYXOcZz7CsWdMbIsQxq2NrA+vNWYRGz/fUkds1DsTZymM+gwTTdOsHNwz7Rs/2qxaOmMUaqbFA+dc+malLoBgkFuoVeSaPs0QGDGv4DmlgjRCdqgfTrWZbWo1JMsAYnA+lW4pE6kkfUYpRGAuSeacpDLgjIrRM55R7mhbS42nPFb2m3XTmuVhO18BmHoM8VqWly6EYYflXfSZ5danc8L+P3wzXwvqq67pyY0vUHPmrn/VTksxAAHCkDI9wfavI6+3dX0q18WaBeaTeqjw3MRTcVDGNiOHXP8AEDyD6ivjTxHoNz4Y1290u7Uie1laMttIDgHhhnsRgj2NdrWlzy1o+VmbRRRUlhRRRQAUUUUAFFFFABRRRQAUUU+GJp5kiT7zsFH1NAHW+BdLBL3rg5OY0BHbjJ/p+dej6fD90VgaLaLaWsMK9I1C/X3rqbBQdtfO4mpzybPq8HTVOKRvaXb5VeO9dXptucocAA8Yrn9MXAGcfjXSacCHXqc189WZ9jhLKx0dhYFgoRh05Oa63S7IDY3OwcHnv/hXP6X/AA7wdoHaurs3WQLtIUdMgcV87Xkz7nApaHR6RCsTJwSRyVI4ArpIIFkIYBgQOMjFY2iWxlkAY7VOAW7H/wCtXVR2cccqxiTc20HJPAr52s/ePuKE+WFiSyMsCcYKg5GRXTaTdiWMLgIc8n7uPxrmUmzMY8fKB/D3q3bNjMZmYOTwoPauWSuYYin7Randi6WVFhLRblGAcZP/ANetPRbbzZldnligHBdV28/4VyOnsYCHMgVx2J+Y/Su20i8eS0jXyn+zkjeQuWJ749K5ZKy0PksXB0otRL88UkDI9s0k0YcffOd34V6T4N09bwmYxvGxjG7YMAn0PtXEf2hFG0PkklRhdu0EKfT616j4bcjToGVlBbG7Z07ZH1rhquyR8Hm1WcaKVrXOZvtKjl1aOfaVNrIGwR1APJrvW1a0ghUSsIoggYSMcL+dVLbSIY73z1AkjdSgD5yxJzzmsLxFa3VrrNjYW6rLDIGmCSEjkHG0e3OcUleR87KUcbKNNvZf8OVfE+sw6xoVy+fMVt8UeccnkDFYt/pMVlo2nxMr7kVA2BkZA711cPhdpJIrrUSkMcbZSCInaD2Jz6Vk+J53dNsGJ0BOdvUDnnNNPWyPSw1WMZRpUXond/5HG6xowtmM0ETyh8GQID/SuQ12MtKXhg2RL/Eyk59uld9dXt4HRGZEVl2gupBYY7kcGuJ1eR7K6cyFbhVO7apyo9sV0wv1PssBObdpav1OC1a6kIMAWNcnJLAg/rXHXdlLcTMCFOw8BRXe+Iri01CUzeQ8TjgbcY71yskqElOjf3+hrvg7I/RsFNqF1GzOZubXMpSVd2BkEDgVy/iDS4DGWGN45wRXeahZqynALZ/jFcnrkBU4Xcw6c13UZtS0PRqqM4XZ5drVmQWGzacVxeqWuzcWHfFen61p8gOSrDPUmuH1exMhfFfT4aofD4+imnY8/v05IA4968n+J+iFTHqSKcgiKQAcY5IP9Pyr2zVLbYpDY471xXiG0F/YXVq4BEqMoOM4JHBr6rBVuSakj81zbCKrSlB79DwiipLiBrW4lhfh42KN9QcVHX2W5+WNW0YUUUUCCiiigAooooAKKKKACiinwxNPMka/edgo+poA6TwjYAK92wOTlEGO3GT/AJ966UVBZW4traKEdEULx396shea8ycuaVzvpxsgAqRBzQkeT61YitzuHFYNnZCLYqxY71KoKmrCWrEDAqYWLe9YOSPRp02RQnH48c1pWcbK65HFRQWfIJU/lWnZ27hgMH16VzTkj2KFJ3RpxwIEWVZAuOozU8d8IrgugHK4INRRruj2kKfqOaz5nKM2OvtXDy82jPoYe4ro7bQvE0VtKA/AHb/CultNVj1S9jkZ8LkZ55x6V5JbXDs4Ujv1HWut0CeQSAcj6/zrgxGHS95H0OBxDm1FnunhSxiutQRJNvkNjBPHJxXomnbNOjkt92ER9y+vpivKNC1QJYwAswZQGPPp3HvXT6DrUk+o4yWBb+PnuOv+fWvj8RTlJtn6PhlFx5TqHnlvy6732jjPOQKpwWokjKbh8uV3E9/WtiFYoWm2sgfYzqpPXjpXD6trLWcyqrfvT8xCnjr/ADrjhFydketSd00tEjea0MEMhQ/vF4Jz79qqR3kmqXUVsWLW8OHbPdvQ+tZkmtyDTd5yXc4Ve5YitXw9pc0aRZDCSQ+Y/t6/gKvl5VdnTKyV5M6JJsLtVQARy2OgqPUpkht9tu37wrkn/wDVVa8u4oiyh9uBlsnoK5i98e6fFMLeNdwztaTIP5c1EYSl8KOJQSak9Ca5u5NhJO8jsec1h3s/nZVo9hYYywxxWw0sUm1423pJyCvvWXqdxHZ7iURnPQNzXRBa2sevOygcdqOnlnPJZegIrkdQ0Y+ex24Gehr0O51BLmPEsKpz1UYrlNVYksqb8ZIBNe3QnJaM+MzClTaujk59ORVcAjPpXOXFsqyvnAxXZywlQS5IxWHqUCMrYBJPcCvZpVHc+GxdFWukcnexjBIxx615l8RdJwY79AcgiN8DjHJB/p+VerXiKucnn/arnNd01b2xngOMSIVBx0JHWvdwtX2c1I+DzPC+3pSieKUU+4ga2nkhfh42KNj1BxTK+q3PzJq2jCiiigQUUUUAFFFFABRRRQAUUVY06xl1TULazgAM1xKsKA9NzEAfqaAPa/2dfCAYXOvzK29ibaBWXjb8pZh+PGR6NX0fploAR8vSub8C+HY9E0ewsECkW0KRbsYDEAZP4nn8a7q3txGvTbxXj1E6k3I9eiuSNh8NuBIWTg+nSr2RsGR1HfsajjYbRyF+oqCZiS2xuf7vapcDup3HSxeZuGR3wahNocBmXdgA4NMiuQTtfKHrntWpFKknAIYkYHPWuKrdaHu4aN9TFeBX3HbtI/hIxVdtFR3Mm0gEcjNauoKojyoyd2AOpzVyw0a6lQb/AJcruwa45qyumetSmua0kYsOhRlUcMrZO3bnODUd5pr20ioY/wB32ZR/OukTRrqEsyxg5boB/n0ovXX5EulEXT73Ga8ybafc+ioqE0ktGckVLkqSq7R1zjiqT2qK7Kh2vjKnp+P6V0eq2cBCCMq444TuKx7tVhcEYaIZzn2z/jWad9jocOV2kthdKaN7uMSFV2kLlhwfXNVvEQiFw4VSHWUgsnCkZ6VFO5Ks64VMbvl6f/rqaO3nuYGICuzgdeTjFTtLmNre40zCvLcXB/dqemACOnt9a52aBrS4khO4lvnAx69R+f8AMV18hjSdfLR1JHzq/G0+oNYGtqV+d2Z2iO8FDkEdwf8APpXTTk9jz6kbXkYN7bsV3bQB/dHp61mTW5kjJx8yZXIrennVlVkAO/GB/s1SmVY23If3TcEehrpjJo4pQvdIyFiWSDAUbxxk1k3oVWbI5xg4rYvYjG5ki4XPIrE1CVWYAAFjwAa66er0PJrKyszAuwsMgYfxDGPes27VwAxGAetac8XzmRhuPRVH6n/69UZ/nB38+1elA+fq9UZkpyO1VWPNWrhQpwOO/FVHypzkV1RPLmQyE1Xep5DVdzya1RxzIW71n38WCHH0NaLc1BMm9GU962i7M5pq6MmigjaSD1FFdBxhRRRQAUUUUAFFFFABRRRQAUUVJa273dzFBGMySuEXPqTgUAd/8LtC3CXU3BySYowR24Jb+n516ja2+ADjj3rL8P6cum6fbWy4xFGqk468cn8TXSW8OVH514lepzSbPq8LRVOCRPa22cHHFadvaHA4yKlsLcGMDBz1zWvDZjCtnjrXlymexCncwxYr57E9jipzATuAwOOKtrEDvdh1Ymo2IYybBltvTsPc0XbBpJmNeJ5K5JHpWPcxvMCFXB9WrektDIxZm3HtuP8AKopbcLGTj5q7I6HBNX2OLubRlYhm6elZc+FYgD8q6DUlJZgOmTk1iyRBSSRgfzr0YbHj1N7GXKvOT1qq/XpV65GSTVJwSemPrXTE5ZCAYANTwnkZqANipkI6VVhJl6JgferaKWHy8D2rPiTOMEirsMnl8E5+lZtG0XYsovocAd6uQny+cZ4qpG+48DjtVyL7vGBWbRrHuWVuGk2jFaVoSFHBx6VQt40A5OTV9ZgPlXgetYSXY7IPTVl6Nsn5iMfrTsBZARjkVVjkUYydxpk18qSAAg8VjynQndF8vjH1pwkwelZy3rOwHBFXosyAEdPemtDOUbkwbDZ71ZgmI5NVA4HJFKJADkZxXRTkcdWFzesrzBHNeS/tH+FUubaz8SQBjKm20uFUcbfmKuePX5cn1UV6JHc7T3/Gk1m1TxBoN/pspG25geLJGdpIwG/A4P4V6lN8yseJXhyu6PkGip9QspdMv7mzmAE1vK0T46blJB/lUFIyCiiigAooooAKKKKACiiigArY8K2i3OqqzDiIbx9cjH+faseus8G2+LaWUD5mfb+AA/xrGtLlgzejHmqI7nTIuQe/vXR2Uf3T6c1z+mMCB610dl8w6181VZ9VROgsRuC+nSujsGCryfm6DFc1ZMQFH866Cxf5txIHHNePVR9LhZHU2TPsUnIIH8Ndfpk8cUKK2CvcHqTXE2dwkW1mkOD29vStiwuRJIG3YA6DPUV4daFz7DCVLNHf2Gpzn5oztxwBk8109helwGZmaVj8wz0rhbW9RzGiIFLABSDwDXT6bIRIFT7wGXPb3rwa0PI+8wdVNWZ1VpLvLKkZJJ6kZxVvAhlVCp3EZPNUYJzFFlSCT0yas2UnmS73O9i31Irzmds1uzf0u1+1TqwkAVAGJck8+lej6LeTyWSxtCkoQbfLT+ePWuM0y1tY7MN5vlyY3YyOfb610+hRO6rsukhQANhjyR71x1NT43MWqi16G7p9mNVZ1iRolVgiIPl3P6sK9K8FLHDaFJJzBJE5R4s8E4HT2P8ASuZ8NaZFcXEUsTKPKTOScEsOTWpqkf8AZ87bpUjNwDITu5B54rhm+b3T89x81iG6CdjtbS/F5qflJjyEUup9TnA/DrWd4/c29hZ3yErLZ3Ucu9f7v8S59CP6UeGDHa2cEjOGefGc9V4GB9KofFLUktNEWMhWjknjDDIyRu5/Soho7I+aoUv9thTgtL2/zN7UI3m02QDLg/MCBzjFcLqFtLbXMKBflkJBUnHX1rv47mObS43U7VaMFdxGRxXMeJDslgn2hcrux61MOxtgajhNwt3MeRoVt4fNCqY38vDL+tcTr9oDfSujLJuJHUFVJrs2kzOxba5lziJu31965/xBpMVrHE27YQ+G2dM4PWumGjPqsFNU6mr3PMNd0hLRS8qmPceo6H3FctcW0ZLJwpIyp7fSvTPELrf70Ee5RFtzjIBrzi4sZUdwQCAccdR/9au+m7rU/ScurupD33ZmUqbQ8ZBYgHGKwtd095IWYRMDgsQRit5iYpjwQfUVRvbqaV2VQGHPX0rpi2ndH0cU5aHmV6ZPJkSVSwAO3PauG1aAjdgYzXsV7Zq5IZV55PFee+I9LCPIV5O49Bxivdw1VNnz+Oo2PLdZhwr7wCexFcNqkWGavStetGTcCOK4XV7Q8kCvrcLNWPzvH03qeF+OtPWx1xmQYWdRJ7ZyQf5Z/Guer0P4mWf+gwTlfmSXZn2IP+ArzyvuMNPnpJn5Dj6fssRJL1Ciiiuo88KKKKACiiigAooooAK1/C9qLnUwzDIiXePrnA/z7VkV1vg6ALZSy4wzSYzjsAP8TWVR2izSCvI6FVqZIyaYvWrcKZ5ry5M9SEbjY4SGrRtoiAMqT6cU23jUsB1rXtLRuCACOuDXLUnY9SjTEtoS2OAPrWjb6eWcE8jp7VGzrAOF+b3FaGmXaq+HGVPb3rhnJ2uj26NJXsNW22uQB0HGBWzp6pKBHKqZ7EDmqYBhnLYO08irUbNyyHDGuSbuj3aFKxYutOEAJVQQxqidJEhLADJ42kVpWt47Hy2UMenTqK19M09ZiQy5yeMdRXK6jhuezSoKpZIwNN8PeZMq7QCegIrsIPCrWcSXAQtsILqo7flUsOmm3uVYEt246j2rsrECWy8uaVSCMbhy2MdCK86viJaM+kwWEila2pV0y2inaHDYHDDsCPSuxj0f7FbG4iChTyCDz+lcTaSPpt59ll2hN2Y27MM8AGuxtPMaxkk5MZBB64z7V41e6a10PrsIl21LOmXUl9c/KZGlJ4BPQdxT7vwtJc3om7NzjuPpVLwqhTU1cswcSZ/2Stdrql8ml6PcSYDyAGKEqOd7Dj+Rrim3Cdonouo4W0ucbYaOsmozSFv9HtiYlyeC4PLCuhXVfscJjjyZcYLnqB6VRZDYWEUAxvKhnJ6lj1NRB41tRjc8753MegqZPmep2xpqcbyRy3jfxEbGxdI3Inm4LZ6LzxXk7640c2SSQT1rtfiVG6+W2DgLt5/GvK5XJJTHzbs5r6bAUYulfufE55i6lLEcsdkey+AdRfU7IoZOI3ztJ7cVs+ILQsquHRSB0J5rifhrdPbRyBRncMfyrsb+6e5GNh3AdjmvLrw5K7tsfT4Wt7TBRct7HK3SMjFmZ2OcZOcVIImnQLsXnuwyaj1OO4ZX3K69eoOMf41mxXEtqwZnkUgdd2c12RjzLQ8GrVUZWexT1iKOF2jchDnIya5+5syVbDDaem3rXQ6rFJrKeYmC474x+dY0tqbVfmPzemeBXoUnZeZ81iVzSbtocrq1opXGMN61zdzGUJU844zXXaooZskgn0rnL8KrE9favaoy0PjcbBXbR4343sFstbZkGFmXzD6ZyQf5frXP13/xGtlaxgn2/Oku3PsQf6gVwFfXYefPTTPybH0vZYiSXqFFFFdJ54UUUUAFFFFABRRRQAV6N8BvD8eueO45ZkLR2MRuR6b9wVc/mT/wGvOa+iP2a9Njg8O39+UxNPd+XvxzsVVI/Vm/KonsXD4ke8aXCABjitld2AM8D3rJtXwoINaJu0SPGeccGsFCx6MNR0lxsAGcNVY3QXcSxz7VUuLncC3X3rOmuVXjcWzngGspx0PQorXQui7EcwIOM+prRhuYnUMG8uTsUODmuRafMj7n46cGtjTNQijVVJXgd8Zry6+mp9JhYuWjOj0lZJ76LefMVXDHdx3r062lsrpoYo9qOAC4OBwOTXmNjcxBopFJycZrbudXVLcSKGR15BHGfavGqy5me9SoOG6Ov1y8tLSCRkdFwCw6da851XVorq0dJB5kpbKHqRWVq3iV9TWQeZs2A7oicEn2rEgu3n3GVtgC4Ungio9moxv1OmlKTna2hYuWmSTEcknAGMetVf3r4Eibx3wfz696a2oP56iFhIFwWwMk10Vjc6cbYSM6rIQAycE++B9a5ptx3R7EIt6JnOqilygLRZGdrnjNX7K5+zx4MmxwPmx0I9q0G+z+YGezk8tl+VnAUnnrVYrDCxeMFXznbIM8Vk5XOj2L3Ktwkd7I3lhmB5BHGD9ayb/R1khdcNHjOSDzmus09oJ2/dp5bA7ipAwxPUU7W4IHhaQEw4AQgjG3POT9OKlTadjCpFNWseS+SlozRM+4qcLzyB2qvcOsZClARjPT73/16v8AiSaCSYvEhMyMVMiDKsPb8cGseKYXMLklsrkBSfmH4V6sVdXPBnLk0My6ugrMORHngHrXOavLiZAg+aQFQfTNbl6AQ2SPTNczdsxv4UByFG416FKJ4mJnfcHQIhzzxgY7CsS9O1yBmta9kA+YYBxyKx7qQStxjNd0EeFVZSlJYc1Ul45qzL8uc81TkcmuqJ5s2RO1QMcmnyGoia1RwyYxjTG5p5phq0ZGZdpsmPvzUNXL5cqre+Kp10Rd0cklZhRRRVEhRRRQAUUUUAFFFFABXU/DfS11LxGrOuVt0Mo9N2QB/PP4Vy1eqfCGxC6bc3Wwb5Jtm4j+EAH+ZNY1pcsGzqwsPaVYo7+3g2EelbtjFuA4qnFBkA461bt5DaSr3B9a+fk7n2UIWZ0FlEVXGe1atvGTGATx1NR6dCLiCPbgk46VrtZi3tjlhnHFcEmejTiznpIWlmkiTIAJ+YdAP8aztQvYNFgYM3zngjufc109jauELAZaVsjA4C1xXjHw/qMmqnZE8u4ZXaCeOa6adpPlZzVU1eSG2GqR6gWCjaR27mrk8DNCVYFFPPPU/X/Cud0fS76xvgfJdNp+bKniulv3ZIxu4OMnmuppJ2Rx2927OV1FFQsAP8K527Gc8dK39Tl+9tI61z10/wA5zzXfTR49Xcz7hSxxVNkwMGrczAZPeqp+YnP5V1pHFJohIAPrUkWNw9aa3WnJ+FUZdS5G2BwMmpkbH41VhOc54NWosHucipNky9brnGDj+VXE3DGOtU4SV6dKsod+R39ayaN4tWsXoRxkdcdatRDCfMfwFUoSUAzyKtrKpwAMVk0dMWuhJkE4Oce9V5YsSZ5wfWrR2sRnHHpVhY0kADZqGbR8ynGoUVpW254x1A9BxxTYrNA/Azg9K0EjCjJAAxWEmdCXMrIiK7VzUDlgTzV4soTiq0seee1OMjOpTIlZuMnmpY7naetVpJAh4z+NV2nOfT6V6NKZ5FamrHivxh0qPTvGDzwqVS8jE7em8khsfkD+NcPXr3xmtkuNFsrrbmWKfZu77WU/1AryGuyW9zyLcugUUUVIBRRRQAUUUUAFFFFABXf+G4RBptuB/Eoc/jzXAV6JpA8u0t1x0jUfoK5MT8KR14b4mzo7RMAFeG6/Wt7TZg2AeG6EVgWjcCteEEFXX7w9O/tXg1Fc+hoyOntZOQSfwFaX9ofZ4ixx9M1g2d0pUEfQ57Ul/dqFCg5/GvOlC7PeoTsa48SsrEdu2DV/T/EUizK/msFHbNcIZzk4qzb3Tgrg8VE6EWj3KGJcWe0+GvFjXUyxSY3FgA3tkV6TYaksbRlX5J55zXzdpGpNDPG245BB4Ney+FNRS6hilc7iQPwNfOY3DKOqPuMvxbkeo6bctLMFOWJOF9BXTaPbKjkuATknmuJ0aUF4yHZQT1FdXbXvlxBE3M+cZPWvl6sbOyPsOZ1YWTOvtprckMFHB+VB3P8AhXVWMaOokZCkrHgKNoxXCaZE9wR5mUVPmz0NdGupXNiEOfMJA2tn8Bn3rhkuiPnMXRbfLB6npNlnT44tt25coGISXocc1TvPEk0upbXdHSJNp3febnoT61x9prNyrELIjSyDZ8+fl961vD9skTXFxdkSlCeY+fcsa5+S2rPmZ4KNLmqVdWegT+L/ALfbWyW77XhUF+cBQOueetQadM/jG4utQv08yziDLHGx+UKP48H+I+vpXn73FzfXc1rYoFSRS00wz8kbH7pPr3rttBkNnYpZqoKbdxVG6rwoz+Xes3DlWh5VfBwwtO9PST+9J7/edd4Y1E33h9rIOzNBI0I3H5jtxt/MFf1qxev/AGraOVDKLaIkkj+IVzcNxJo+uYkzEk1oJlYfL8ynHPuVIH4V0NpdH+zfKZDGkrAtIeAc+/vWDVndHzdal7OftIdXdfPcwr61IMEm/Mr4lYZ5x2/Gufa/lmE6SxNKisxYHqO35YrprmMyXKAZLszRp3AHIqpqFrbW0DLyJjglkPGDwfx4rRM9WhVUbKSu2ee6gJYpH2ZRG52Mece1c7e2vmElEMbY6KMbvevRdetLcrC21gSoy4HJ4/lzXGXkeJ5JVJZVbCnqPoa6oPsfYYKvzRukcNqmnEPlQ4IPKkcj8Kx7m0O4+WG+vpXbatG97MroigE4LKOlZN5ostqzyFT83df610xkfX4fE+6lJ6nF6lbyLD80IkPQNiuL1yyCKwdShYE5YcV6fdQuIZC2HHPC9vwrjtSjjulkSR0YAnC9a76E2mXiWpQueL+ILTeWB+6PSuE1e0ChwBnFexeI9HUs23AODgHoa8x1m1KtIMbeea+vwlS6R+e4+K1PIPHliLjQr4EfcQyD6rz/AErxmvoLxfZGXSr5AOTC4/8AHTXz7X32XS5qbR+QZ3DlrRfdBRRRXrHzoUUUUAFFFFABRRRQAV6BoFuINJtgP4kDn8ea8/r0rTUMdlbKR92JR+grlxD91HRQV5FlV7AVdgX5Rjr3qqpAqeJyGrzJHs0omnbxYXIIz6VqWdyIlCsaxbe52Pkj86sfaSzjB4rknFvRns0bI3mVJ+U+Zu9WIISpGRge3asrT5mDAjqDXWWIWWEu8Yfj8RXDUbgfQYeCnqV4fmfa2W49at2qtG2Cu7PrWjaaXb3So3MWSMseB+dXIrO0SZYvPDYOC+RjH1rgnUR9FRoN2ZDp+nNI6sMZJ4NdfYaZIkJbKAheB3Nc40yWc22AlkzgM1a+jG6nuUOckEYJbjFcFVyaue7QpRTt1NE2120ZIhfKnlwvJFWojcwFDICC2MewqzdNdSpubEaKMDyz1+tV4p5UjIlBYL93Iya4G3JHu0oKLuh1xJHMoWZhkHHXn6j3rS0rWzbwtZPIWjbo+eG+vv61x9/N+/OM4PT2q/pC/alCFSWHof1HvROmnHU7qdRqVo7noHhy9WLUFjLKQWxu9j0q9rmrpPf2tiJAwjm+0Oc8HHQfnXNf2dPaQRzKX3sOWHp7+hqfRdOa6mErZkcvtBPXAxgV5soxu53Pcp06kklJHRzy+ePM35JGAM9PQUkZMaqGCtIOw9PU0y00e4gmkJx1JxyQK0Y9P8tgfvFsbiTwa5XZHeqiSscf450iXVLNm2qzY3Db268V4xd6S0NwwZcYNfUdxpImtcRIGYZyOtcNq/w9ivmaZWWFgcspxXp4TGKkuV7Hg4/Awx1pwfvI5L4a24Fw6tkKFzx9RXc6o0dnAWjVQCcF3XJBP9KNB8NQ6JuKASuy9SOPpViaQAFDDFLnOVccVzVqqq1XJbHqYeg6GGVJ7o5abVfPidJFXPPzgcfrXP6havLAJYwko6EDkiu/NrayW0ipZJ5pGDvXIHriuX1CKCyLASAg5BUH5RmuujUV7RR4eKou15M4W7Mlo4ZWMe7Jx0qvPcC4ttzkA4PPrWjq5ilbYzbV6DBziubv/wB2nl78IFyCp617dNc1rnxuIvC9tjJ1BGmYkdqw72NWXgZIODWnc3B2kKTn1rO8tgzNjdnrmvXpppHyOJkpM4/xlp6zaFeA/wAKGQfUc/0rySvbvEFu1xpl6uPvQuuB/umvEa+mwLvBo/Ns5ilWi12CiiivSPnwooooAKKKKACiiigAr6z+Eunx6V4E0ZFGDJAJ2PqX+b+tfJlfXHg5zaeHNKhJwYrSJCD7IB/Si1zSG53ttcAEcnB44qS5mOz5WJxWPbXRbAHAPr1FW2mCrg5+vrSlZHo043IZbpjwcn2FVpboM3BAx/CeKiuZtsh7j2rPuZQTjPQda5KjPUoRaepNc3gVTtGCDnmmw6irNk/K3p0rLllcEjduFQ/aVQkEck8E9a8upqe7RbTudjB4gdPLEZIxg1uxeIftEaq7YVgDlj0/WvNIpHMilJAAOSCa0E1AiHYck57dq8qpTT2PoqNaXXY6zUmhmfzEbZKo+Vx3Pv6isZ7ieQgNFvBOMxdD9RVQX3muozuA6BT2rasoUaIvGSSecr1Fcr9xHqwtUdth9skZi+WCaKcN95Uzn247Vs2E8G2LzYoVkyN2TtfryeelPhsbdbVJVWUuzfM59fY1ZS1N9IG2icINqhlBb8RjmuOc09z0qdBrVFybXLaRgBaz3UC/K7KgcKc9j0qmZtNjumly8VqVAMUw2vj+9zxitfT/AJ41gCRRNjGC4Qc9iPzFLd2SPGEFuvICttAZSOe3Wua62NJRlHVnJa5Pa2kImsryMyF+dsgPH+PvXL6n4oeSNrdneSJiCznkj1yR/OumvtOtYJPJwjqHzsZR05rndbtYYYXWCJYwTjcgxxXbTUbpHnV6klG5jakqy2pnRRtJwGTnj0P+NYN3cLEgk2kOBu+ToSO3/wBapryCeGMoXbyx8wMTEfiawtQaRAuxjMiHdz1r1KcD5qvV1C+lWRdwYbSMj3HpXL+cizXEjH5ixCg/Wrd1qW3erBghyRkcCufmnO4H1BNelSptI+exFa5YuJN6kk5+nSs6UgNjjHpQZiARyfaoJJdwzxx611qNjy5TuQzn5iex7GqklTytuPvVaQ9fWtkjim7kLmozT260w1qjkkNPNMYU88UwmqRBXul3Qt7c1nVpzjMTj2NZlbQ2OepuFFFFWZBRRRQAUUUUAFFFFABXvHw/sksfDGnqP+WkYlOPVuf614PX0T4Xg8rRNPj6FLeNSPoorhxb91I9bLleo2dRZKsiY7im3obzQqrwe+KS1/dnr7cVfi2mQb+leLbU+qU+VGz4duGiQKeoINdHNcbo9nJ8z92M88n/ACa5WwYB3dTjPHWugsWaa9t+CYlXdg9z0rF07u5arWOos9OWGCBSod2wiqDz/wDq96t3+nQWkLMxVptmXkPReOi+1SaZOLeMyyjdIw2g46LXlfxX8X3guvslrK0MBHzNGSM8kYyDUwpylLlRTqpRbZp6rqlnCzRrLECOvIyTXJaldm4dmUO244HHGK4WC4vJrn5DJIxPXkmurku5Et4w3LqoDf1r0o0eRnnTrKcexkX6nzCMqMdhzWDdxEsx3NXR3AR1Mhzk9qxL9wwIVcV30zyKzuYky4P3jUJOPXJqzOAO/NVmXniupHA9yNlyepxTlwO340hUk1IqEjBpiTJI/T+VXLeMnk8VFbwZAAGDWnBC6jGzrxnFSzWLJIIsjuRVtI1UZHH1pYLV8ckKB+tTi2HHWsWdCfUauD37VZhUenvSLbBGHHUVdtYU9CTWbNI3bEiG7HybvwqwkDZ4UircEe0DCgc9RUzo5bAzg1zNnZFeZUCFAOefY1Km1gNxOc1ObXAzjtT0twccVi2jpimVpMA8DioZmJ6dKuSxhGK4/EVXlXAbA4qEy5IzZmLNz+lVJGCgnNXZ0xk4xWfOcZ7CuunI8+pE5vx3At94Yv0bnZH5q+xXn+leHV7v4iQy6Nfp13QOv/jprwivUg7o8GvHlkFFFFWc4UUUUAFFFFABRRRQAV6NZNtCj2AxXnNegWkmQpzXJiFdI6qDs2dDZv0rYtZQAP61z1pJgCtS1feck8elePOJ7NORtK2TujOG/T8arXDSrJlh+XSpLWQKQMYFXJEEiDgEk965Hoz1qMyhCVOd3FTxuqn5eaY8JDHC4/Cp7a03kHpWbse3SbexraR80i8ZNeqeEIzborli24fc/KvN9G0ubzFZAMg8bhXdaRcXkOxQUXBHPPFeLi1zKyPqsFV5LHrWk3aRiJN2WbDEKegrttJubdHUmRAoxkk8ivGbAvJLl7ly7DpEcAeorsdK06BRHvmkJcj7z8EetfKV6K6s+2w2JuuU9Nj1q3mdkF1HGuf74BxV6PXI5/KiBaVBgkxjcRXOaRb2ojHlxx9MbmA5rctpjAvlRxBVPV1H3h7fWvHlFJ2PQlCDV0jXXUpGB+zW7Jx8rSccepxTra9vogYjchRJ98AH/Gs+LUBDclQrbV42/wB72qZ7pZ4J7hEKSDJUEcH2rKxxSpW05dGdn4Pje3sWRW8xrifaXfkHJxn8hXoVmFs7xBcJDtA2B0U9Tgj+X61wXhBWjS2hDiWSNQzDqA3HJ/Emu50+QS2LysSwS4ByeQAM4zXHU3PhMz1qyb/q5oeJNSS41DR5fLDo7i2bd6N0/UfrW1YsP7Pmt1feTICRnJRFHJrnfFECXNhG1uQm9iwkTjZJnjHoRwc0/wAI6oWs547lNl4g8hw45I6l+uSDzzWLXupo+dnR5sLGUPs9PmbFjLBdzXMk2FhgiYpzg5z2/WsO/wBOjNtLcSNMxK7lAJ+Uc4J/CughsN1knl7iZm3GNF+8DUiWF3eWEoW3hKYI2zZJyMDoKV7HPCsqU+ZPS5w0E4Zo/PSWXYP4eQR/n+VYmpWSXbSyQoYxyRtXBB7ZrubzwpErHzd8c+3dhfl/IenpWNr2mXOkLGh2SRSgAMn3se49a1UlfQ9/D4qm5r2b1Z51bxlZtsvynJDA9+al1PSxC5LcoU3LnpWprEcMmoII0OVGCSMVZaWKey8m5jBkUbUkA7dua2cup9I68vdmlvucBd6MZIS4RtrHqvT6GuF8T6QsB3pFxnDbV7+1evK0cDPHMD5ZJzxxWB4gs4JbSTYqso5wR+tdFKq4yPWhiHNOMkeA+INNV0yglBx+ANeYeINLkZmbOeTXvevWqW/mqRjqcEdRXmXiC2VVlMYDAk8Y6Gvq8HVPnMctzxDXbVXilBA6EEetfL9fW3iiFI45pB8hCknP418k1+lZQ+aEvl+p+RZ+rTh8/wBAooor3z5QKKKKACiiigAooooAK9SgRVAHbFeW16hE+VB6giuPEbI7MNuyfGTx0qxCfmHH6UlugkUjNW4rQrj09RXmSktj3qMGSRRbkJI49akjts8g1PbhcbDWnaaU8r/INwI69q5JT5dz3KVLmtYgtYnixhc/StqxnuAy7Plzx9atW+iOICcgEc81p2FisKB8LuHTivOq1Ys+kw2HasTGyn+yjzpnUEBtiHHFRQWkRfhmPPc1oOks0QXBz645/wD1VYsdNYkOF6cHNee52Wp9NSoKTVkImngR71Yk+hPFaOnXlxpT/NHuVunekWGTdhU3HvgfnWvZaLcX00eIyQMDnOBXFOat72x7lHDu/ubmpaeIP3CrHauNxGSSMH171WniuT++QfJno7Z/lXT2fhqGARxu0Q+UE7Tzu+tWJNB2kJHk4O3LDrXl+2hF+6e9HC1GtThZNImvD5oMSHupJH9KtaNDcWWoKg8ktnGDnnnpXe2nh7bIkflglhknGQKu2Hw9kvL4NBktu6p/U4qZYqNmnsbfVfZ2m3YgENwyoZo41DKMBM/1rZ8NWCwXDN5IcnkDsD6iutufBq2ukxswDTQoPMKHco49f71cql59jvAgfahPzV5nNzLQ9KGJjiqbjS1sdEmgTpbmWd1BHzELycd81Sv9KZJEEDoST03c/lVbUdeby8BwxKn5+7D396pabqpMyTMziTsd3T86hKW5z06VdJzb+RqSb7IRhmEbDg7eKike2vJhtQFiPmLetVNQuprssWlZjnIJ+8azYRNHKSNx75NNI6adFtczdmXtWaGKLZANpAPOf8K5mFZrmUqsIbB5wOtdF5LF1EoMe75gSOSKdFpRjlMiSYVuuAc1cZcqNk4xjytkENjtTbIm1dvII5/lXnXjG5srAyIB5i7jktzivR9baWC1byy7ErjDg14T4wgv7y6cCN/KJJOMjPXIr0MDDnndvQ8LNKzhSuldmFqmp28+8ws2Qcdv0rkrzVGkZkD/AIZrpZ9Cl07TZJpVIdgSqn0x1rjLTS5ru+O0MTkk4Ga+woRhZu+x+WY6vVulbVilyy9SeOhpgkKA7uBjrWne6W8EatsKliRg8VWuNOdrXJ4YHoe9daaZ4dRyMq6VXikxyGU5FfP9fQs8BgtpNwxwSfbivnqvfy/aXyPhc5d5Q+f6BRRRXrHzgUUUUAFFFFABRRRQAV9W6fcbI0VcBAAAK+Uq+lLG+3IjBsg4I57UXsb0ldna219tXBPOas/bd/BY8/lXMRXwbHze3Wr6TMy7uw9a5pzsezRhc0LlcK3zkn2NZdxM6AkjIPpUvn84Oev5VDMVkz97GcDFefOoezSpdipJcMcHG0k+lMjmJJyRuA70rIDvPJABqNgOD0HTkd645zuetShbVlvCBlBGS3XZ1qwiEPgkqMdzg1Vit5Fj85SAB6n+VX4VeRQz8gjGR2rhlI9mlHm6ElvHlleP5gD8y966HR4xP0lK5OMA9B71XGjqtrDdRZC4Ak29M+oq9b6PcxRm5hfCY+Yd8fhXBUqJ9T3KNFxs2dRpbNGqW04Zog4beASD2zXUWVhaagyxWskazE4BBAwfY/XFcp4f1CNWxPIUwrKNxwM4GPxrvfDVtZXmowQq6J5i5L8DnjGD/eJryK8uW59FhoKViLUfCtza2/neX5oQbWBHOPU8c1hyWkwkxA/7xfuhDuA+np1r186F5aIYpTI0ZIZJRkNgc/rTJNI01mSSa0VLjIQqqjcwPXIPOfQj0rhjiWtzvnhozWjPB9X0iMEm6yjnklgQW6855rkdUtkit3AkZlVsqA3P4cV7v488Jwraie2Yzxl8ED5ioGevHB9jXkmp6S7rLIWSJASNjEjtg8Yr18NWU0mfJY+k6baSPOLsJ5BKBjJnlDycVyeoMyu+FKkqevf2r0vU9GWO3EkUiqcbSrN146jFcNq1q01xtyg4xweK92jJM+OxKfVHG6hskiI74Iwe1Yy2bzhGxgZ25rptV01vtKoFAJ7ipm05IrbaFxkZORyGr1YzUY6HgSpOpN3OTl0wqvof51n3Ni8Iyw5rrGgLvnGfl/Kq89j9oVoyOccEdq0jU7nNVoJLQ5B48A8YqvIuDxWnc2zRO6sDlSQapvHx0rpTPMmjPcVGRVqSPnpUDLitUzkkiLFIc4p5HNMIqjMik5U1k1rScAmsmtoGFQKKKK0MQooooAKKKKACiiigAr6S0wiOKNeihQOK+ba+iNLkM0SFWByBiuHFK6R7GXO0pfI6a3ZHXIYZz0q3CpkkAHI71ixsYyDzit/RI2uRIw4QDJrymran0D97Q7bwH4Um1mXzDD5qE424zjpyeOlfQ3h74ENcWSyxIs87qI1VUyASM56dvWuS/Zz09L25nQIJP3YBB9CRX2Z4J0q30UQOyExkBdh7E45/QV4uJrzjPlie9h6NGOG9rNXZ8ReOvBl/4VMkN3HJAqsQyqCD36nHQ4ryDXo7TUWEdxAjCM4VQOa+y/2vYlbUCsCiONrVZWGO+5xn69K+Mb6Mm4J7jiu/CVHVhzPc8TERUGnHZmXeabb2kWLaFE452qM1z95w23BB711Mq9cg5Pp6VkX0Cu24L2r06b7nBV8jm7s7cd+MYNY9ym7JNdJdaeQvmMNqk96yL6JFb5TmuuMjgnBvc56ePBPFQsgB6GtKWIE84qtNGqY9K6OY5/ZsqCMt0q1BZM5UYOc9qfbKjyBQRmum0rThI6kgY9cVLnYpUrlOz0SQrnAAHPNbdnpf7lGwC5A4rdh0yJ4dkKsxUZZiePep7e0VGhUAbiKz57iVNoxI9IX59wJw3UetTLpzIRhN3v6V00WneYxVWUHrj+tObR5I03B169M81DmbqEuqObGnsf4QDU66UVG8FSemB1rRntniGNwZieaRbORucms3c2uk9SGGyC/ecDAzgmpeD3HoCOtW7bT3kGCufc1ONLZCMKv1Fc8mup1QvukZbIeOMDpzT/LUDG7nrxV+eycAdCKryWjIAcEj2rB6nQpW6FSSNcnJBNVJUAHXvWgbZuu1veoJYCOCtZluRjXMYKHqaypo+CDXQXEByRisu6hxniuiDOWpqc3qMYaCVSOCpGPwr5/r6J1SLbbTMeAEJ5+lfO1evQd0z5/Fq0kFFFFdJwhRRRQAUUUUAFFFFABXa6dLutoT6op/SuKrrdHmEljCfQbfyrnrK6NqT1Ogt3JxWtbSYAxWFbP0rTt5OleXNHpQkbsEuMVp202TWBBNgda0IbgADkVxTielSmbaqsmOM5q7bwLuACc1k2c44Ynjtk1rWl0pOc1xTTR7lCodRpS7Y88jbW/YgbXckbSP1rk7W/VVUBsY5J71s2F68rBF+71PvXlVYNn0eHqnZ6PdRL87YXC4GRj8a67Rr12jJIEhIwoP8IrgbFxJLGxU4XHFdlYX6RIcqpYgBR3z2/CvErwufSYeu1Y7XT79nKIcKg/dgDgZrtdKuoobMPKxG35Vz6Acfn1rzTQp2MrLKrfTHG71rs7Kb7dcRwOAUjwMqM5PGB9K8GvT1PoqdVSjY21h/dNOfvEbgCOeeg+tRWUEs+p29mp4ysjknsT0P+e1XruMWQgLY2hwSSewB6/zq/4Q017mG71LBLy5dD6A8j8K4W7K51Tr8lNzZ6J4Rt4UV2aJCTIqJxjcOP0610MM0enWWoQPEoiaQuhAGQ2M4+nP61z3hExRQK8xO8FcBicAetdTeJG2mzM8YSW4mAjwucAgAc150nqfnGMf79qWzaILG6l1COyhMXlqrGZVYctgda1/7JeIRX9uifa4mkJDjPmRjqp/ofWqWlMsepThB8tnAYx35BGfzFa1pfxS2IEjEMLd2Bf1J9ffNQ3roeRiJSUvcWn+dzf8MX8V9axrAdpjCrIj8PG+QGU46Y5rakiL5SNQu1W4HBYjiuMv/tGkahDqlgquJYI/tMcYyrDqSMdZOB16jj0roLXXTe5u7ZDJCv8AdPBXAy2PrWLXU+cxFBt+1p7P8H2f6GbqU8Sxzx3UMiTE/eYD5V7FT6Cuf8RCO9giaIESRvlS68OR6fX0rrNdtE1TRfOCbpy25GwM9+vscdK4m9hvBaQSCJHVXAYwkkqf8aqDPUwPLK0k7NM5TU7FftitcIkQZcB0yADnoc9DWNqKT23zKxeLoBjJrrdThXUbcsF2O0u1iw6HHesSNPst01tdR74cFWbGQPcGulSPtcPWfKm9Wuhxt1qTkSxFTsY55HI9q5/WXlgRmU7htzzXWeI9Naym3pmW2PII64NcnqiJdDYkhK4yR3HtXTBrRn1uGcZx5oLRnB+IbiG+jJBIbGQAeDXleuXYtJpEY43ZxmvQ/EgOlXUg6wuDjcOQa8k8YTvJdMxA2nnj8a+qwUb+h89mCSueefEG58rRdUmH8FvK2R7KTXydX0t8U9Wjs/B+plj80kZiA9S3y/1r5pr9QyiLVJvzPxnPpfv4x7IKKKK94+YCiiigAooooAKKKKACvSNNYy2Vu2eWjU/oK83r0Lw7L9p0m2K9VUIfw4/pXJiPhTOzC/HY27UEEda1oEcrzwKzrSMqwJ61rQShRhs5BrxqjPqMPElitwrDJGT0rp9CjPCncR/s1zC5d9w710WlSyRFNpOeK8+trE+jwsfeOpkCiMRoXHchu9TWFrli7gADjYaS1glntvMCliD1APFW44yP9YpwD2rxpS6H1+Hp7M2bHTPOtWZH+Y9F/CtXTvDk8yK3kvjuQMDFZeh6itrcCRoyw3bQDXd/bDd2yyWn7vcOQDyPavJrTnB2Pr8JShNIzbTRoLaR97qCRyMZOfat0bjbRwRRsin7zqvOPwqva6PcX0kaFWOcFiw5NdXp2kiwiIlwz8jO7JPt0rzKtTu7s+mo04wVmilpllJCvmvGxVehYcH61oQRtPIpcdTkBehrpbTQ4Lm12+aTIDkRd+nXFS3mmjSLBp5ljAA2qAfmB964HO7H9bhfkjuZ+naeHuV887VOML7fjXXaNpyaXOWKulqMAleC/wCJ9a4e11aS7mRVQ7SwBcj+Vd1qmrRw2dvErLlVDHPX/PFZTvex5mOVXmjD+Y0fE3jezsdJa2t7WJ1cbY4yBxwfmOO1eQX1rLcPJIqkuTk4HA+lbF5O2p33n4wo+RQe4yeR+P8AKtu202OG1mYgM4Gwg49OtaQSpo2wtOnlkLRWr3PNZoJt0QcnG8Yx6VpojJFkLlV5I9Perd5CgvUVkIQNnOOM1ZnMUMY6Y9+tbtnuyq3tZbmfaq0sgYtwTwc9K6ldEgTTxNJMSzc4zmuaRQr74iPLPP0PpWklzIqEF/lIxtByD9KzlrscmIU5tcjsMuzAMCMyMU/vY7Uz7XIIwyoAM9h2qGeZYySS3PUj0qA6mkMQj2sT2PpRY0jTbS0uSXmrWzQhLhWYnqAvP1rFv9PsbqyaWOGMmPJw68H/AOvWxbTxTkGSJGI6B14NR6zpVtfae+ybyCOdqnA/IVpCSi10OTEU3ytWPMvFNjb3rRwsyL8oXgjAFcuPDlpZSvIgO4E/cHX0/Cut1DSvs127DEhAxhxx+FU7aHdPl1CrnJGcCvo6U+WGjPz3GUuabvE4/X9LaV0lkYAqgyp9cVz13bh4sjHoK9A1qwSaV2LA8ZA7fSuG1C0kjkKjOCe3SvUoT5kfKYyHL0OP8UfuNF1GUcGO3kY/gpNfOVfRHxHu007wpqTE/M8JhHuW+X+tfO9fY5av3bZ+YZxK9ZR7IKKKK9c8EKKKKACiiigAooooAK9w8PX+/TbGTOSYUbn/AHQa8Pr03wtqnmaRa4P3ECEZ9OP6VnPY6cP8R6Hb3gIyPqa14LslV5z/AIVxdpqPP3h19a2bW8OCB8w7e1ebVZ9HQSOkkmUpknn29aSG42xuwIPFZIkeSPbxgjJNOyVjAEhAPGPavPm7nuU7IuttlIIJAzkgmkZVd8AjP14qO2CMQMn061b3RRMNoG7r0rllI9KlHmFiVxgZJUfwjOKv2nmxTsCAQFzsY9ulZslxvOQCB1OOmav6VNILpHdTt7ZGT/8Aq4rnnex6tCykd7oenrJpMqfaIiWjJ2MxGM46D0FRi3ubYQpOZFgPyZjPB/yKyn1F5ZrWIMUKHG6MAEp3B9fpW9HNFFaqWLG5EoZMnIOMDH868qSktWfUUZQloju9B0Kyn0xZGEE0WAqRjh+RwenX/CtHw1YM3mwNDCPJkG1to3kD7p5659vesDw/cXMNisbQM0cbsDInUHqa3NP123gu2keQkFVAYnnjOR9eteVUUtVue3StHXY9Es7EiaOea6u4FKgbUfK7+DwCOO4rR1a2uljjZJI5Cx3fNGDKF9ePxrkLXxMdRkt0t4JoI5CBFJORtLdgewNXtS1Y2XmSXV0xmA4XJwMHuOgH41wcsr2ZrJ299Mw/GQbJ/fzgj5P3ZChh0BIxy/vXneowJbXH2f8A4+YyC5S7zvGevHQ/l1rsL24/4SG7jkDTQwpnJDDduBzlQTwPc+orL/s5rNJf3QknkyGlk+dyPr1r1KLUFY+dxblJ+9qcHqlyIE8iK1Zo2XjMRwPfp0rgNZsHe7O+AsueNqYHf1xzXr9xo7yXGSvlxspBZF259jXI+I9K8pyN6gY3MxPy5/xr2KFVJ2R8xiaN9TyrVNPSK4Q7ZEOcew/pReaeptwwY8jBbPNdReaY93byKsROGx5h6Y7YrnZlk01zHOGdezYyB/8AXr1YT5tEeFOCpu72Zysjvb3qW5VsHocdRUgUiYkAfjU+qwC5CXMDgyqSwGeo9Kyzfl1/dkh+6n+E13Ru0eVVaV2zH1aEPezkHPOPbNZU0WCF747VuSwF+Gzk8k+tUpbYlyQp2jjPrXVGVjyHFsxJoiCciqrpWvcwkMQVI+tUJo+vFbxkck4lFlqNhVllqFxitUzlasVbjiJ/oaya1L1tsDe/FZddENjkqbhRRRWhkFFFFABRRRQAUUUUAFe9+GJDJpVg+cl4Y2/NQa8Er2vwFe/a/D9iyAsyRiM+23j+lcmIXuo9TAP940egwRrIEwpPGTxW9oc0EY2N8oY9O5rAs5pBGsZKpuHb71dDoVhsuI2zlic7jzivGfmfTeh7l+z7rsfhjW3luQY4ZcIiv16jGa+yNM8ZWEKws1xE8eQxO4YBx9a+HdGU/ZXKg7ohlXXjnFa+n3+uyv5AuplZxtMbM23NeXXoKvLmTsetQreyp+zqRuuh6P8AtB+N4/GniO6jtfLkgjQW4K45ILEkYzxzXzze6MfOkDIUZeNvTNemaNpcz3zQ3Ua/aHJ2vzgt6ZPeq+r+DpYpS8hYEtk554z24rWmo0I8sWc0oOrK7XoecP4Xb7OJCwBI+76Vj3miQQgI52Njgk4Fek32nNDCxU/dUnnivNNcncyHfklTwGrqpTlN7mFelGnujlPEMBhXarEovANchdBiT6V2mqoZI9xIwe3oa5ae3yzY5Ga9alseHX+O5ilGJ702a0Mkecn6VpfZjnG00phI4I5rZswi0jBjtWjlXbndmu50WJgiAnPTjNZMOnGaRdq5P0rr9A8O3MzBsEIB948VL1NOaMdWadlp2Y2ZmKDbuAz1qWC1bzVwpLccnpWppHlibEyRuI0JwRkEg9PpVu2DXV2CIwobnCrgCs276Eq12xbHSZDg4BJ5wK1rrw68UIZ0IZhnBzWvpUUKycLgx8kse9azsl+zF2xg7VyevHalZlJnEW/hKW+uYY4o97ysFVQO5P0rrNe8H6XoWnJaoXk1BFImPGBJ6AAdM+vP0rptM0m305be4W4RrlSCsaN09zWFrcUkk8zYD7nPzdefrXBzynPR6I3lTjFX6nBJayEMu3bjjgdaY1tIGCFSB7CupTTjG77sHIzkjoac9gMBvLyT6CnKSNIJ9zlnsflzjBHeqxtWZCK7M6TujLbMDHYVRGkMz/KAQK53NHSoM5d7YlV+lVpLTqSBXTfYfMZ4403MpPP8IpsmicEkFj6HpWfMbcrSOKubTLEDFZlzZkg/L+ddzNpJU/dA/Cs670nIPHFbxkcs0eX+LYvs/h/UpcEbLaRs/RTXzVX1B8WWXSPBOqSPwZIzAo9S3y/1r5fr3MN8Fz5zFv37BRRRXWcIUUUUAFFFFABRRRQAVv8Ah2YfZ3jzyrZx7YrAq/os4hvAD0cbfxrOavEqLszr4JK0IZMY5rIibpV2KTAHNedJHfFmxFN0FXYpc45rHhkxircU2O9csonZCVjcgnYgLkYxWpZy5PPAHvXO202SBn8a1oLjbtGeBXHOJ61GZ09kRJgE/SugsLlIWwWAbpkHtXG2d2QMrxjvWxYTmRwerYz7151SB7dGsd9Y3nnHKNhVHVjW9pl0JJN7MDt5GK4PT52wQW2qTnGetdLpt2VjiCgckHjrXj1aZ79CuekaVf8AkxmSQnpkfXsK6/RHdVhHmMJHbzCQeleb2k26SFcnaI95z2NdXoWrmCRGbMpC4AU88V4NenpofQ4atrc73xBqJks0tjKvmSIdnPzEkYA/HJrufDBfStCCtg7k2qBzj5QP/r15V4Wb+3/EM09zjyLUmONc4w+Qf/rV6Ql40cSElSEjC7R6n/OK8KvDltA9ucvb01TO8sXhij05ATlwquO5yQTj8q3p9TTUNRhiVcW8L+YXJ4O38/X+VctoxW8K3ErBSiDYi8bR61I95stJmjwvnSNEmOwz+lea1dnytWgpz81+p1Oi3HlxXs8zL+/DurDuO38v1rS0W6lLMzAALaMpVwfmxjIH9K4+S+EEsNsnzAIFIP15/lj8q3rO4mgCYOQIQrgnJBYgkVm0eXiKGjfc9TtbELpMe8CQCFWHcHHNYOr2cvhKWa5tEll0+5B3xxjc8Uh/iA/u8cjr6Vds9VENuE3ExNEqgZ5Unt9OK1NbmQ28StwSwP6fz5rmTsfExlUpVbSV03qjn7PUbPUbSAfa0kSGIZWKYDB9TjvWVfstubu3RlMTx+apHcg9c1LZeGrCS4urmW0jnbc21VjHzd8k49+tczqGn3dvqVxHYXDKHR9kN0TJGq9dqkcj9RVxSb0Z7uHpUpVGoS89du/9aF1p4Y/MilRFiuIt4J6q+PWuN84G/mjZnaMKQx7ZzWrfrq7W9vLPDaSptCfLI2R+Yrk5JdQsdWeP7IX81CQqOGPWt4xPqcFQVpWkr+q6EOrrIEmt2kIAB2EnjHavO9fuWtQsqlUMZG4jvXVazqd/dTFPJWB1UrukPH4gVwWs295BMLiR1uip3GDHB+grvox11PssLB0qd5HK+MryTUbMSrECgbliMHv0ryHXgzu6PtHUqT6V6Hr2vtOJoQmwZLbOhFeYeILv7UJSDtZeoNfXYGDjofNZhNang/x+uI7bTbO1WT97NP5hXP8ACoIP6kV4jXb/ABh1pdX8YSRo5ZLSMQHnjcCS2Pzx+FcRX6xgabp4eKe+5+F5nVVbFTktlp9wUUUV3nlhRRRQAUUUUAFFFFABXZeCLsCzmiz8yybsexA/wNcbWx4VuxbaoFY4Eq7B9cjH+fesa0eaDR0UJctRM9MtpS46Z9qu7WOCBzWbp5+cDOBXR2ssKrsYZJ78V89Udj7LDq6G2YYMCVyDxXTaaDtDOvA6HFULe2WUAxgj2rYsbWRgq4+U9gO9ebVkmfUYWNjsdFkhntfmcREDGScZrc07TY7hyWeMoo5LEciuRkYWkax7gWwOV65qaK9kJDBu3II614k4N6xZ9nhpR0udc6afHJkAlFkHyrjkD+ldB4e1SC4utv2cLESFQIefqa8we5mID7yBnAAFdh4HujHfRSy/cHUCuCvStBts+qwNROokkewWM8SQb0UbiNoDnp9K07URNCPPfYc8YHzD/wCtWbpj294YRtCAyADZgAfX8a1r6BHbylwWGFPsK+ce579Vrm5dia11pbRy8CBwDtBPJY+pNXNUsJvEMKOG2KBvdAxCjjk/rWUkAs0D5Q455PA/+vVq38QLHGYRj5x91f6+1TbqjinTakqlFarqV/7Oj0+M4bcegAPf2FZ1/cSSFQsjvKx2YJyQKsahcmWb5SCwOU2etGkadM90t0RtdWyoPtzmrWiuzsi+SPtKj1JrdEQWoCkOrAMSeorq7dfMSYkDBQ5x3zisU2c9zIknlsxaTPyg85NdNb2TWNrJ5qgF16dxUSaPGxdVNLXU8v8AEV06CQjgKSQO2a4K81y4kmIaUg/WvQdet8vcA84JxivI9d3216/yEjJ47d69PDRU3ZnvVKrpUFKJ1egeI5Fl8uQhlJxk9K7KCYMm9BkE4IPQV5BorTvKgGSMivVNN3G1VcsGwM+9TiKahLQqjU9vS52tS60bmRWwrhT91hkH61Umt985baFBP3R90VsWcQeDe0yb1bBjfqff0p88EflsRgHpwK472Eq3LKxhCNwWUHdg9M5qnLdNEJUJyp7N/St0QBsYIJ+lU9X0xoHUPFsZgHXI7HpTi9dTSU4yXKc7qEQuYhlACV+8TjHtXL6rCrqsayFTn5iK7J0aSQITn5iMHpmsK+0eU3Zd1GVbHlnqfw9K9ShO258jj6cWrnPPbJEjk/N2y3ORiuT1tQ+7y1GQewrt9R3bWjX5Rvyfb2rlNTgMbndyCe1e3h3d3Pz3H2imeDfHa5W20OytS+Jp7jzCueSqqc/hlhXiVehfHLXItX8bPDAxMdjELdvTfklv5gH/AHa89r9FwUHChG/XU/GMfUVXESa9AoooruPPCiiigAooooAKKKKACup8J3e20kiz8yvux7ED/A1y1aOg3It78Bjw42/jUyV0a0naaO/t7ogjB/HNbVpqewAc1ysMuO9XoZckYNedNXPoKUrbHaw6qCoIbAx3NK+pDPyng8muctCxGM8GrSBuRn8a4XBJnsQqSaOht9ROQQQDVqLUwZMsfc1g2kTNgMxz14rVtrFTgK3zHnBrlmoo9ajKTWhorfbuePUA9DV23vC7DccHqMdqorYMNhyGxxjFWYFEVwqfec8YB/z61yysetT5+pvwXDmSDZnzCfvHp+Fdzo+mz3Lwy3TJ5ESZVV5LEdPr1rj9OtZECPIgB6qCDg/Wux061uGsFkDSlyeIYycY9QP/ANVeVWl2PoaEXo7m3puvPaQSCEYJcuFcAjoBjPrxTrG6nNzKyskSltzlh7gHGOOaw7ezm+eR0ZSpP7sjd+lb+gTJcQ+fIh8wSKoVhgYA5OPw61wySV2j1YS/mZ2GkandXduln9hIKspExQoEbgBgc9fQ4FXr7QxKZhd6hdSXLqWQSSjYG7H6dKyLTUvOuCsTCCOcglN+Mhc8Dn6D8K6CSe2ZjLcvmaNCA45T72Pz/wAK86V0zv8AaaWiYS6etlP5O6GRmXZImAcOWxhfbjrTrsJbyhlZQAR8zORyOoB/pUthKbjULv7NucYJadxuU844Ppz27VSvYGtrmP7Q7Okkm0Hjgn0z0x61rF3djhr0/d5jO1zUBJAUt7cQNkuWYbdw6cdz/wDrrlW0h9Ud7i4JKqfubeAPp0zXdXGnR7ElOJJOAA33cZ6e5x/M1UlbyhLiEmNBvcxLkD2J/Hp9a64VOVe6eRXpc2jPNL6yEIk8oYU5Qhu+K4/WNOIifzAwDcgeg9frXoGtTxxRgKHaeTkKFGSxzkD/ABrnLnw493Fm5uJA55McbYXHp6mvXo1Las+axFG7aR5zLoG2ytZkycqC/HABHWs2+8MbiskTBZcZ3J0PsfWvVpLOKyhxLCxjC7EAXrx0rCuvDwEbMmY3yTsDfLk9selelDEng1MMmebRrib7PdQiObtkYDe4zVe9sthwq4HUCuvvtOhvIj9oTDp8oboQR7+tcxqEM9p/ELmAfxKcuo966oz5nocE6bitTnL2I8gjJ96yZouTXS3ZimQFCCMfj+NY00XLV2QkedUgY0i4zVWQVemGM1Sl4rriedNWMzUmwir3JzVCrF/IHuDj+Hiq9dsdjzZu8goooqiAooooAKKKKACiiigAr1X4P3qHTbuAtmSKXftJ/hIA/mDXlVdV8NtTXTvEipIxVblDCPTdkEfyx+NY1Y80Gjqw0+Sqme+aa3muZG5Gcc132gKjhTtCk4xkda4TSAo2ByAv3jnvXonhGaJpxNKF2IMqg9eMV4FXQ+wo67ns3w60GLVNRsLByo80q5LfUD+f9a9B1rwdBZTgKu2VWKblGOe1ecfDfW0tvEdtds6AIUALdFIIPP0r2nXdZjU295MglgkPmYjALNz1/Hmvm60pxqqx9ZhYQqUmn0PnLxTq2t2vig6daW8mwTAAqpLE5xuGK9RsXuvslrFrFsDmMLFcBTgtj7jZ716xHp2iRtp92lpbtNPEJC7qpcZ/DtWV4i0u1vrObnEDjG1OsbdpB6fWqjXUrKxs6StZHjmv6dFY3QknWOSA4+TPXvivKfFmmpcXU84RY1JyqoPlAyeK9a8R2t3Z5W9j8+BG2rcxAkAc4Lf41xOtaV5lvtDeYZDvBTlcfWvVovk1PHr0vaKx43rVksQJRsg84965WeJ42wR1PUV6HrthJCZoymRzyR0NcU8LGUq4zz3r26ctD5mvStMpLDlQANx9asfZI3IG05PHHappLbhdq4HqKswQPuGOcDPIrTmsYeyuyfStOjWYI33frjn3NbYuJUjFvG5OWwSh49MCqtivlHBQFm9R/Ktyz0ffsmMhUgnCqOanmvuRKj1J9Ms5FflfLUpjdJxxW9ZxRo0QiBc4ALqOCfrTLCwhZN0uZAByWOT+FbFqY2b93GFiQ9fX6e1Xy9TOL15WixZadI6OzsI1b+597H1Nben6bFax79wJ6Zc5punSx5AkQMDwCK3FsYBGpUEn3GcVyVKt/dR2RpxirleCQ+aGGCFXaMDimzxi4BHl45wRirjwMy7Vz64HSrENriEMpAkz93vXM7LUSUrmIujkSZEYCnswpj6UpZkVF65rrobJ7gYmi2N64px0cKqyqqn5tpNc8pHVTj0OQGluqFRnaRjFUZNMYSNCmQT/AKxx/CPT613TwjBjt4xPIesgXKL9T6+1Ot/Dw24UZycuSOp7muaU7HbCBwMGhrbk7FJHqaSfSOcgH8q799GCMcL14xiov7BJ/hJB74qFK7HPQ85l0YsD8v6Vm3eiHacLx9K9Uk8Pnafl5rMvNB4PycAeldMJWOCo7nxx+1NcRaf4e0zTg4W4nuvN2A8lFVgePqy/lXzVXsH7VHiO31z4q3NpauXh0qEWTYPy+aGZnx9CwU+614/X1OHjy00fJV5c9RsKKKK6DAKKKKACiiigAooooAKdG5ikV1+8pBFNooA6+0nEsSSDowBq7FJjFc3oV1w0BPI+ZT/St6Jq4Jxs7HXB3RpRydKtwvWZE35VbifGPauaSOqEjVt5NnNXYp+OvJrFSboM1eglzg9hXNKJ3QnY6KymPAzxWzaXPlgHOCePauUtrgqOfWtezuQ23dniuGcD1aVSx2lnexjAyTxzW1pd6Q6oSRg8nPauJgutgO0nBPati1vczLk7cgdK82pSuexSr2PR7TVCzSYYhQm0N61v6Vqj20clzyUVSQxznHWvONNvyu9WY4GTx6110GqB7KKAtky7YSB1A7mvHrUelj3aGItY9J8B6g0EMzu2XlJmx6E4Oa9Etbtnll3Nny4ww3EdvSvHdD1OGLYCcnfjcPT0+vFdrYaubh55C21BEY8HIDHrXzuJo3k2fS4fEWZ7Tp1+I7FpBlT5AIGO1Msr1ryO0gQksriR2H8Iz/OuL/4SVbXTlhL72ZAmc9OP/wBdb+g3UVvZLtbcXZSXByFXGTk14cqbjqdXLFxcup1S36/2kw6yAqMAc4DHJPtXRR6jHh9jYUlNxJGfvdq47R3W+u5ZmYqp+RWUjkfWr95cxRh44j8gfGDjIIX2rmktbHmV6EZSUOp6lb6mTp8sgwyqw+8Og29fwNdBJfNcadHJJg7gmO46A/hXk+larIbWXJIYuFw3I2nGK7KTVv8AQIogQoDmIkDHb/61ccoWPjsXgXCaSXU0jetYR3PllX2h1UITjOc5Irlbme5gnS5RkMZALlDnGeo9q0hdGdhE0oBlXIJ7npiud1OO5id4GO3cCBtztf8A+vVRR0YWilJp7sVdRF68saOTFuZefujvxWFOzpr0LK4z5e3J5HXpVqzhe2tSx+aQMVYdQGrG18y2yeeoKyR/PkdM1slrZH0eHpRVRxjs9Cn4vtFzLMm0Pgk7T1NeTa3qbiGbJDtEcHHUCvQtc8QLc6WJyyq64JGfavEtc1kvf3MmQokBAGeOp616uDpOW57SqyoUfZy3RyHiy6jmc52kk5Djg45715J451T/AIR7Tr+/Eu5IomfbI2QxwcD8eldx4nvhHMy7sqQTz2+lfN3x78X+etvocTHORcTMDwR8wVTz68/gK/Q8rwrq1Iw6fofB5zjVQoyn16ep4/fXkmoXtxdTEGWeRpXI9Scn+dQ0UV+lpW0R+Pt3d2FFFFMQUUUUAFFFFABRRRQAU+GVoJklT7yMGH1FMooA9V0icXtnFOrffUNj0rdszkqp5Pqa878EasUWSyYnIzIh9uMj+v5132m3CmQButeBiIOEmj6/BVVOCZ2uk42KN231JOM+1XrnURbKVhGOeoP9a560lMrgK+QP4Qa2UtY5hsaTLY+6K8OcVe7PsMPO60LNjcyXMgbGQDkkmttGdArqOB154NZFnaC2+UtnnjFblpbSXQ2ICM8c9TXBVavofV4Ru1mXbHF1IvC4LZK46f8A1q9A8MeHZ3mjeOEGB+7A4xxXG29g2lKHuVGeFG8kBPrXSaV4wniC29uCqFcE9Af/AK1ePiOaa9w+zwMoQ+Pc9BtCBelEkCIhwdh6e9dYjiFYzEYnQcmRzltx9T7VwOmta28Xn3M8szyjO0NtQMfb/GtdIEaMMryfOAcGQnk14E46n08oe1Svoaeo6rChdGYDPBIxk1lQu80q7AYkJwCeCfpWhD9nhlRTGk3TLlep9M10Fl4TN9B9pYeXGq7zhcnA9PzrPmUUKVanho+9oT+G9JhSzNw0ZklLbV3Dp7n2rRe1IDBEVX34JUYyPap7S8FpHDDHEY4guMt97r19uK6KfTVudH8+z2vc8ZCg5HHJrnctdT5XEYqUanNPZs5S1umiu4YiSmGDcexq/rusqGJBI+XAzwD71RttOmOrw+YrNuA5Uep+lYPinzLO9nilJJXIXa3HXirSTZ006NOvWir62GahYCeEzrhiVOdtcbrnhNJxveMgnnIrtNDu82yhyHR32kdx0/StK5tYpP3YAZc8kDkD1reM3B6HrKu6DdOaujzvSvB0UNsJ4lDYIBBIyPwrato3t/n2HA6nHArWlgSwnDRDNu5wfb3q7Ppyyx74vulefam5uTuzWWJSSVvdZiyXSBdw2rx24FY2oaqYySXwPrWtqWnm2OGCspGQV54rjdZtZhMdhJUjgZ6VcEpPU7KKhy861Nqz1iQMpB3qTj1q/qN6CglfccrhQB7Vz+iWcm1RL0PPGcVpaxKILUqJxtA4XdRyrmsh1VG17WZm3F9DBCZxMFlBzsJ5H0rnrnxE1xP94sxOdzHnNc/rWqskrjeTnPesuyvHacFuRXt0cNpzM+BzDGwT5UdPqcoeEEfK55Oa4Lxh4ij0LQ76+k2sLaJ5NrHG4gHA/E8fjXZahMGs+oDbf6V80/tD+J/KW20CNm8xyLqcg8bfmCqfx5wfRa9/LsP7aooH5XneN9jByW54tqN/LqmoXV7OQZ7iVpnI6bmJJ/U1Xoor9EStoj8obvqwooopiCiiigAooooAKKKKACljcxyK69VIIpKKAO0sZPtEEcgxhlBrStwSw61znhS6D77VvvD51J9OMj/PvXXWcOG7VxVFY9rDy5kmaVjHkBT9auiP5h61FCoUcZJ9Kv2qKyksMNjIzXmTvufQUrbEtmvllTxuyBg1qm58ogqMP14rJSM7h1GMHirsbbmAA/HFcc1qexRkkrGpHcTFD820EZwo5rS0uLodqgg7izdT3rGtm2OpZsfNjk9B61tW93HkqCvAIyO9cdRaaHrUp3auzs7CZZo0Mm0Dg7R17fpzXT6ReR2VwSZJHOwDAOcA+n415/DqS2+EfklcDbjn61sabKQGmRiygZ5PIPXH0ryqlO+57lOqlpE7CF7ZZ5JRdTneC+0EfLnsffpWjHd2duSEUhCnXjPOCR+tcoNTiiTIRTNIOcj+XNWRqEkqbUiTK4O8Dp7E+vtXM6dzrpV38LOhtL6IzfukbrwAP3nPYfSuhtIvtMkMcshV4wCYCfl7Dkd+59OK5LTsWZMrfNIoJaTaWA9/oP0xWjY6sIFnaWRjcOpKMpwSvbOe2cfrXNOLex6lFqL12OrvdSFqVtFLJ84LOPlLr0+X16GqN6wuJxJOix7VGxTgc5AHHrzzVO2vW1S0edisf2eIIuSckL7/AJnilGxnWS6JgDRhwvct2PP6CsIx5TrnJVF5Ig1a7e2jKxbW+bcMnkADv+VYt/raR2kcI8yW5mB2RRH5WY9yM9B3NLr0jQMsmwSs5EcMB+8xJOAR+p+lYcUX9nyNK/7++kOxuMrGe6L6CvQpwTV2fPYiUlKyEWJLVxNKwe9PViTtQD+FfatWxhMsKtdws6SHasiLkqDjnPas+HTXe8hfd50r9I3Odg69OwrpNJulijls5FY7mPLj5Qfp271rOVtjzOVPc5K90r7NcyxSKZYeSjA7ihzwT6VRfSUki80NwT82PbqfpnNdnqkUcEUw27s5IY4wBzXMRSHyJ1BDJucgY6c1cajaOCpSXU43VNDtTePJglP4lX7pPqR6+tcXrmnRQs7w7Y+eMcA+xrv7lN2/aSRglsnq2elclrUcfIAXOcnivUozd9WeNiKa5dDznVLZQ4IUwuTyU4BrGnEi5wysPeum1Mbp2UHIXP0zXO3q4LcY+le5Td0fN1o2Ma4J5yBWddOI42Y9hmtC4PXNYOrT5IjH1NejTV2eLWlyq5nsxZix6k5pKKK7TywooooAKKKKACiiigAooooAKltLl7K6huIyBJE4kXPqDkVFRQB9F6Jq51bTbW5jwFljVyAemRyPw6V3fhq/lQqqsRjpn14rwn4Pa8GE+kSE7gTNESeMcAr/AF/OvcNCiKyhh0A3V49eHLdH1WDrOokz1nwrdB9o3FdvvjPufevW9D1lr6wtIJzuES4yzdfT+deHeGpdrEucKyHGOvau90fUJbeNVAz0Pz968CtS5mfVYWtaJ73oFm91KhuJQkMEK7ecZHUAfnVODVlhuJo2CuNxTB5BGe9ZZ1eb+x7SRJCxfYjYPA+XOKypWlM0rZVE5YFjjNefTg23c9qrKMUmtyzqWIppFZFeFySquMqR/dIrg9S0Q2NybkAf2c5zJDGMmHnkgdlruZCt0mxmLsV+8vOMVz8lwsrm3eNw2drE9HX/AD2rrg7aClD3VI8s8baVAZ2kg2mF13KV5yK8p1GwKzHCnHtXu3jDwk0LmfT90kZX5rdjyuc/cA/lXm2q6WrylArRSr95HGCPwr06NRJI8bF4bnbOLhRkbBXIxjBrUsrNZBkgbj/CPSra6RJvLleF9a0LS1XdgELKexreVTscEMM0tSmkcUbAKp3jjkVs2EOWOcscc+w9qhigVrxllAXaOTWnZsLltsK7VAwWA5NUqtjnlQTZbtWVwY0HzYxx29zWlaJ5IGXCqODjvUulC2toXRowXbklhyTWpbW1u65ZOf4V9DQ6rlocsqcYstWNnGgjkMhLHkA10NohaPrgDH41jixkmClWAIIwTW5YlID5csiiRvU/54rKWupEVbRFtLU4LBeCOnerltpRmXzACCDnp396lsyjXAjWJuAP3jDg102m2cd4B5PGPvA8Cuac7HRCm2c/p5luJJFkXGz1HU1d8uK6kWyBZVB3TMo/8cB9T/KtSGwN9NL9nPk2wyjyqMsWH9w/1rYttEitY1ihg3DbkvjJZvUn19645TR3xp21MaLSoAoSOIqi9FAHAq7BoseScEcVt2+jgH5VYnHQjpWnZ6M3BwCfSuZu5b905FvDxdAQvy5yeOasweGDLGAFJ+or0nT/AA556DKHA9uv6Vt2vhYIAFj6eoquexxTlqeOzeFMLyufwrgPiveW/wAP/AuveILkKI9OtJbgI7BQ7KpKoCe7HCj3Ir6jufC4VT+7578V+b3/AAVB+KkGnvpHw0sGYXDlNV1CSNwF2fvEjhbB5JILkEfwxnvXXhE69ZQR5eKqeypOXU+Bdb1e48Qa1f6pdkG6vbiS5lKjALuxZsfiTVKiivtj5YKKKKACiiigAooooAKKKKACiiigB8MrQSpIvVTmuss51uIldTwwrkK0tGv/ALNL5Tn92549jWVSN1dFwlZnUK9TJLVNXp6yY4zXC0dkWaUb89auRT7SBWPHKQRmrscoODWMonVGRswybyMHgVq2kuBmuet5x0rRguOAM1yzidsJ2OktbjAGDwTitW3nAJOeR0rl45/ugEAitGC4bB69K4pwPRp1bHWWt+URyDgHBJrodOuZGMN0W+UYGB0Uev1rgUuy2yNTjcozXV6Xehrd49w2FcEV51WnZHq0qx3+kakAvJXIk79Pr1rrdL1UzxNFv4DmTBPXHpXlGgalwyO3MbkYP8WOldHYaoQwVOCUPtXjVqGrPdo4hnqtnr4kvIN7kRQgOUbkE8dRXW2GveRYFkIVrlyRtznnsK8Y0/Ui1vtJzI7BS3oK6rQtX3zJG2HEPEaE8k9jXi18Mj2KWKPbtO1VLe2tIm6kLyDgD/6/FXH1F3O5cFDcbCe4B45rz201lltogTgk5bJ4Hp1q9b6rIYXAfBklKgeuT9a8aVDqdcMRd3Z6zDd4klCFRiAMuOnHetv+0GNqjcHMavn/AGuteb6TrTGZEDblMezryOmB+ldTZ6uG05cEApgkE9P8815k6bjuRUpKaUkdDbapndIXAZSWXJ4x1xUepakLqBn3srKdytnPNcq+tiynkD/Oh5Vl6YrMufFcO5k3ELyMdeDUqk3qkZ/VoxlzM6eTVxEwcsCJRtbB7+tZWp6uklm6StgDK5PGR7GuJvfEwRyiSfIvzAk9T/WsHV/FTyxNtmDAZG1Tn/JrshhZSZrOdOlrEz/EGtpBFcw7zuRzjJ6rXk3iPVyJ3Kt8oJYZ71seJ9f33MmGwGGMnr/+uvNPEGqblf5sdSM19dg8LY8zFY3m3MTx14sttL0e61CdwBGpO0kAscHCj3J4r5I1jVJta1O5vrhiZZ3LkZJC5PAGew6Cu0+LPjk+ItS/s+2fNjaudxH/AC0lGQSDnkAdPx9q8/r9PyzCfVqfM93+R+TZvjvrVXki/dj+YUUUV7J4IUUUUAFFFFABRRRQAUUUUAFFFFAEtpdPZXMc8ZwyMD16+1eoaTfJe2sc8bZDgE85x7GvKq6HwhrYsLoWsxxbytwf7rcD8v8A61cmIp88brdHo4Kv7Kdnsz1OwuHRgVbnPUmuisJGkYbmOT3BxXK2zohHNbtjqMSEAdMd6+cqxvsfdYWra12dpaXFtAoEuZJODtTkge9dNYyyS2YmtrWON0PDy8ED6D/GvO7C5ZmZyuVLZ+orqtO1iSMCJSQhGCK8WtSfQ+xweIT0Oha4F65a4maaT7xEnCD6D/GrelOhmQnO3cFyOg5zWG06MMIwDHg5PatDSZx5oRpNigZwOfxxXmzh7p9Vhq3LJM9BFr50kZimVIlUcE8sfT6n0rs/D1tJdW6iSPGSFUEbSPc56CuL0yyE/lnzRFAAGV5OGz6geteiJex28EEEUg24BkeTkt6nI7189XdvdPs6dRyjePUvW/hoqVuHdXUzeWEX5ix/2R3rsbK7WwSVpiqRRwmJUb7y/UHv9K48a1IyJdkmNIQUhUcAEd8Vh3/iySQyRysXJJZn79etcHLKZy1MNVxelR6HceIL23uBbSWciAAhWIOPmyTXTeB9ZW1juYX2sNmC+7nPsf6V41pusJfSeWG3LnrnpXVW2rnSrEeU58zBJPXHp+PWlKnpymGKy7mo+wWp6VeFLlnctGJfIVo9n8JB4U+/9TXm2vRvqaksoM+/GQOTW/o2qoumySznzJXXA4zj5eBn6mug8G6Vbzy3F3MsZ8p/swDYI3Fc5OfqOazT9nqzyKc/7OUpyV7bHl+i6JcS3qRorAk9gePeu7fw6+mxDzTyYg5Prkda67SvD9vbGW7Y24fzCoxwQAT7exrn9d1qfUr6SOZFMaRiIbewGcfjyabqOb0CpmNTG1rU1otzidQjLxS26KuN2QSOQfrTNIvHtCbe6BjJGQJOMj1FWdVtmtbt/LJKr39ap30yX9ojyLhwNqSr2x2rZanuwtOCj0ZZuNMt76OR0lVWyflLY/KuWuNHmV8OnHYkVoWJup98aAuRyQoyfqPataGyluI40bIY8YkGKq/KdUaksM7OVzFtNL8qEuMA+/Sqmo6Ws8LrKoIYHkCvRk8O2p04skmJF++CePfFcjrkaRF0RmJGT6GiM7vQwhjVWcjxXxF4cjjZyuW544rDi0loiCFOD7V6ZqNq1xkFVIHOcVgXHkwybccjsOlfTYerJqx+fZs4KTkji/FetW3hTw/d6pfMqwW0RfazBS5A4Rc/xE8Aepr4k8Ra5ceJdcvdTujma6laQrkkICeFGewHA9hXqf7RfxRTxZrf9haZIW0nT5D5j4/1twCykgg8qAcD33dsV43X6LleFdCl7Sa96X5H4Zm+M+s1uWL92P5hRRRXtnhBRRRQAUUUUAFFFFABRRRQAUUUUAS2ly9ncxzJ95GB+vtXqOlzx31rFPCdyuAcZzg+n1rymum8E6+NOu/sk5xbzN8p/uucAH6f/WqJR5kdNCp7OR6VCoRRxmrUY3KBk1XAwoxUkZIHua8ypTPo6VW5ZDlSBu4qSO5ER55PrVVm6Ad+KRsLwBk/yrilA9WnUbNGK8DsD6HoavLMCAynHByK5yJmDckD6VaiuskDJ9zmueUD0KdbudJZXryTpvcbB1JPNbw1sxxNHEwCcr8veuJSbaRsHJ4w1adrOCg3lRt4xXJOknuejSxDi9GdTDe3FwQPMyi44DEE4/pXSaVqIZAsbFI8biH6ZGK4i1vleABSAVPU1atNWKSlQSuSRx6e1ck6V9D0aVdLU9ETWwsE0cG0mVChY9OR0/OqZvXnltyxAJVV+TrnP865aC/2wSMkhA3Erk+1XLfUkJAkfkLlCD37Vz+x5dj01iedK531nfs8DQwblhC7GJPJxxx+HetO51eDyvOuCfJgi2oz9yo4/rXB2uorbGNTJiML5juTT7e9bWJPMuhIbQMfLjH/AC0Pqfb0rldHW72OyOKvGy3Zt2t3PruoG9LlUTKQr6Ac7/br1qxIglmXLhEj5OOrN3P05/Sq1jFsRQHMTsSDt7L1I47UXN7FLcKUUmCPgtyGbHc0uuhjVkmrGrpscMDmViDIctkcBBjgf/WqFpFdpJxIcs+T2H1rLivHAkZUCqe2D/Wq1zfSGRI0fbnghemO/wDn6UcrbOFtWsLqussk7RZ8zzF2nJyAvr9axTdiJX2EheQPUDtVbVp0hlVBLuy2SAf51m32pkuWQZjC11wp6Kx5lWole7C8vcLN6sxyfWuR1O5UhjxnB5NX9Tvw6kocfL26Vyl9dloX5555r0qNM8TEVDFvpcB2J5Zia568mzu571o3lz8mM5wMEH1rCupOSc8Zr3KUT5qvO5QvpxDEzsRgfrXMyyGWRnbqTmrurXv2mXYp+RT+ZqhXrU48q1PnK0+eVkFFFFanOFFFFABRRRQAUUUUAFFFFABRRRQBb0nU5tG1K2vYDiSFw4GSA2DyD7Hoa+rPAmtwa1psN/CRJFNGPlUglDx8px3Hf3r5Ir0n4M+Pv+EZ1YaZdyFbC8cbT/zzlJABJzwCOv4e9YVqfPE7cLX9jPXZn1foyyRSndkIo3Cu9tpQtnHOo3cAc/SvONPvXW2aQHO4YJNdjpurMmlKgCsSeST2xivAq03c+xw9VHqGn6o0Wk2JLrt84MQepO3itmc/bLaEZGSP/wBX868z07VFuINjEqqMDnPGccflXWaFrA3JDI+5cAKevPvXnSpuOp70aymldmxKraeRyQdvPp+FZtyRPISjBSXyCOx+taWr3Imt49gwcgHaazJLmMKUCBG+8zECsbO1z0Yy1sQI7XeqLEDgxgA7uhOeT9K43xlpCXWozF1TzASoePr1OMGt6+mCLJKjbPlwCp5z6/SsHUryWUiVGEi5wzP1zWsLp3FJpxsziNZtrvTogFVJ1HXA+cfWsBrshwzF4nz0YEYrur1kuMs8ewk88VzV9pwSVud5bPA5rrhLucdaEX8LI7W4EzBy+VIwcHOa2dLeK3OMlSa5N45LC4XYflY8r2rRgvSWG+OUf7oB/rW6jc8qo7dDs42aXDAYUDqK29L+RVc4IPfrmuTttQn8hEgiJ3cEynGPwFdRpFre7FEkkaqw48tOn51LfKtTncOfU6vSNPxK80jbUY5wzcYq55dgZiXmhYjgGI7mH1qjp2mQbP38ktznoJWyB+HSuh0yBIY2RIQi9tqAfjXO52e4+SO1ie01SKLaI45rkjH+pjJOPftW7ptwL9h58i2VvkfuQdsjezH09h+dVrW1dWR0YtGeoz0rb06ySS4UHZ1z83Nck6iOmFKzNi1ktGXyo2RYk4VIuQMewrWtniL5EiqAuMHg/rVSyHkEIiqB0JAxXQaZbfayI/JViCBmVc8Vy2NJTVtSXT7YsxIKlfXNdVo+gG5I42rnqRz+FLpnhaOQqY08uQHPyjAP4V6P4e0T90GkUAjqMVVjycRiY04mXpfhnagHzHHqP/rVvQ6Csa8jn3FbcVskS4Ap5XApypStdnzlTFzk9DyL45eP9F+Cfwz8QeMNdnihstMtZJlieRY2uJQpKQx7iAXdgFUdya/np+JnxB1T4q+P9e8W6xIWv9XvJLp03sywhmJWJNxJCIMKo7BQK+xf+Co37YMfxs+IA+Hnhe5MngzwxcsLqYKMXupI0kbujBiHiRTtU4GSZDyCpr4Ur6jLMI8PT55/FL8jgrV5VbJ7IKKKK9o5gooooAKKKKACiiigAooooAKKKKACiiigDd0jUvNUQyH5wOCe4/xrULVx6sUYMpIIOQR2rf03UlulCSHEo/8AHq5qkLao3hPozUR+lXIpKoKasRviuVo64yNO2f5s55q+koAznFZEcgUdatwuSASfoK55ROiMjXhnYgbRz6mtG3u5FyDt596xYZsEdsVft5Qx55rmnE64TNyzYKdzEkn8hW7p14FBHfpzXMW91xtJxj9atxXJR9ykAVxzhc9CFU67T7/yb0gcblz+Nb1jdnzcbs5PrXCRXZBWRSdyndj1rXsNXBmyD17HtXBUpXPSpVtT0G21ARRl8kjOAM9/aum0XUY7dUkkz5jdzzg/4V5nZaibiVFJAjU7vrXRLqSMiqGA4wT6V5dWjfQ9CFfsenx64YwwD7iwAGD2/wAa07TXPMCRsxHlYJOeQf8APNeWWmtFQo3jauGyT6dBWrZa0HyQ+GPzFTwDXmTwx2xxNkey6JrnkzRyGTILmMHPI4roIfFSRmWEfKmMnpznPv7V4lZ+IihhG7hXycGrV14pKSttkI3ptwTzXmTwXNLVHoU8XaFrnqV/4h/dsDJlVQMpB6gdutc5c68wmaQOpT+6T261xUviXz40Xdn93gZ//XWDceJSqNG0nK56nqK1p4OxE8ZodzqniFc7txXJ4wePxrkb7xIY2c7+cngHiubvPERZWXfu4/KuZv8AXN+4F+fXNetRwduh5lXF3VjT8Qa+Z8nfhhkgivB/iv8AEtreGTSbGXN3KMTSKc+WpyCAQeG6fh+FWvib8S10hHsrOQS6g46g5EQ55PPX0H+T4ZNNJcTPLK7SSuxZnY5LE9STX2uW5cklUqLTofG5lmTadKm9erGUUUV9SfJhRRRQAUUUUAFFFFABRRRQAUUUUAFFFFABRRRQB3fg/wARfbQllcOBOowjMcbxwMZzya7KPdFIM9vSvFI5GhkV0Yo6nKspwQfWvSPCXipdXVbe5cJdoO/SQeo9/avKxNC3vx2PfwOM2pz3PRrC92xqAPzrpNKvI5Ytpwrt3HGK4qGdVwAST7Vr6eSSCGPqxJ4r56rTTR9thsTZo6G4vBbTbVbeAeo5NdT4NX7bdNJOcKqbsdAcYrz+OQyysOvvmuw8L6m0D7CV2AHJbr2rzcRTtCy3PqcHibzTb0PRpkkUoRvMZAIwCPxrq9C1ErKVcJMYo8rnJxgd/wAa4oaqbqxysflqfkUgEHOBimP4mbSP3SbSMbS4HU49a+dnRc1a2p9rQxkY630PWrzxFaw6ZHFtbzPL3ZcD7xHNcDeSrcNIUmYyOeQh4x6GsabxO948QllztUKCp6GpHuoi0bI4BOGOODWEMO6e57MMVBq0Ts9Ekjt7eFSixu3yhhxk1trc7JNrncpOMf1rz+y1UyExmXYCDtycV132y1Pkr56h3Rd2W6D0FclWm4s9SnXhUVmddLqI0zTUCPukYgqAc4+taHh/xo9jC8JyzSSeY7dyx6n6159Lrkd5PjzAqpiFFB9D1/nV+0DpIZQf3I6E1zSp6e8ZSw1GrBxnrfU9T0bxVOqXBmVHRn3IWHKn2/DNRQ6xBd3kjyBY90hkOOBgc4rkYNZU2gjQAMVHSs86gNzhHyeScHoKx9nueYsug5SaVrnV6rrVvqCTRRRpF82/cvU8Yrm5MSKArnGMlc1Bb3BmVjtG0jIYGnSK8O2VDkEZzWiVj0aNGNFcsWanhvUP7I1JJTgiRfLIIzzmvVdV0uDWtFtbm3hjE/kAnyxtKkdTx35rxpYWawnm6Mi+YpPHI5FdCvxGOneGIZLc5aRdrDPTjp19qznTlNpxPDzOi51I1abtJb+h0P8AY+o2EM+HbZyD5q5IP19K858QSztclDMpdSeGXAxzW1p3xelvUZZwHGcFc84xj1rndW1e3v7mSaEcjPDfjXTQpVIy99Hj1cW6cHzNX8jKluIYcrLH5bkYDH7jfQ18y/tK/GKDw7HP4d0WdW1i4XFzNEQVtomDAqCGysvTqOAc9xXTftC/tAweDNPk0bTJIrnxBKuAF5W0U5G9sHh/RfxPHX4rvLyfULua6upnuLmZzJLLKxZnYnJJJ6kmv0fJcrcrYistOi7+fofj3EGdObeHpPXq+3l6kVFFFfdn52FFFFABRRRQAUUUUAFFFFABRRRQAUUUUAFFFFAHpHgfxSuoQpYXbgXUY/duxwJFGABknlv6V1p4FeGRSvDIskbFHQhlZTggjuK9S8IeLotbgW2uWWO+QYweBKPUe/qKiUVJHdQrOPus6BnIxj86eW4B4P060hXAJ/AVA74PWvOqUz3qVbQGOWOQQPX3qRHESLz7mod2SVJ461HI4z97A+tckonoQqGlBPkhs5Gc9ateZhhyRk549Kx4pSOFPHoanimZs7mI9hXO4HVGodXZyBoRGDhiM5z1qyroAnZicNnrk9TXN216YBnco7ZJqdNQnnfeoVcHAL9/eud02ehCskjqnlCKqIy4xnGepxUMOoq7bUQySYwQOinvWOjtPnfMeOyHANWbEhd2z5QDnn2rPkSR0qvzaHQpMQS07hkCcIrcE+/+FbWm6qxeKRDhycInYD/GuQE/mYXOQ3J5rVgv0VkIHzIu0ex9a5507o66eIt6HcQ6v9j3xMvmzSAgFu2fSrJuhDZKoART9498Y5rjotVBbzGPAGMg8+9NvfEheEIp+XsfSuP2LbNnirrc6K51NTEArq3Jwxbt2H1rCuNZDSFieh2gZ9+1YtxqrJASrAjB+grN/tDBAY5PWtY0DnliTWur0GZmaTLPk4rB1DU9qMu8gZx1xUF5qGXJzkj07e1YeoX4lOGOB7etdtOkeTXrolvtTJQgHt1zWDeXw2kdSRxio7u65OG4rIubggV6VOlY8StXuQXk48x/fnFczrGpbMwxn5z94jsP8asaxq4h3IhBmP8A47XNsxZiSSSeSTXsUqdtWfNYmvf3YhRRRXWeaFFFFABRRRQAUUUUAFFFFABRRRQAUUUUAFFFFAH0V8EvinHrNgvh/VJQuoRLiCVyAJkAUAZJyX69uQM9jXuWnXZG2MkEYr4HtrmWzuIp4JHhniYOkiHDKwOQQexr6e+D3xbg8XwxafqMiQa1EuOeFuAABuXn73qPxHHTmq0lLVHrYTFOPuSZ7taamkMTJyC5yua2tE1WSOZQ2GZTu471w8UrPKoboOMVft9UMFyhV8FfU15cqJ9BDEbM9PTVxcIELeWwPQHirM3lOyl8spizuU158dXk84yFk8thyoPerSeIm8pQHOduMZ4rglRfQ9iGK7mjqd2PtEkbSYixtC9KpXAiWAJFtfHJOcgnFZst0ZCXc9TkkmoBqWEIBwM5znms3TsdlPENpiyzEylgoHGCMcVk3eJZjnsM/KKlv70EnaTxzjPWsae7YzCRXIz6VcY9TGVRbE97pzT2m9BuZfmHBzTNOUSKC2V/z0qW31jYNnG09TUVvcAiYjlC5ximrrQU5xmrm/aMVKKGG0EdRXVaXfPBgEq6g5wDzXBWl2N4b06VvWV2JSGLYI7E0pLuc17O6PRdO1SOaTDI0Y9WHFdbp11HtyuXPTgZry3TdVKOoONvrXVWOqMwXY+G9c1xzizaMovc7u0vGEmBE6gtxxgYro4Lo7o/LiVcAZJHJrz60v7l5UYOGGQTmuu0q5eZCCMsTnKnpWDg7lOaS0Oy05F8xcjc55BPOK7TQLYy3CnBLZ6CuK0CPzHU7j6YNer+D9NJZSQB05/Kq5LLU8qvWtsdx4Z0cbVZ1Ix3NdZFCsa4UYqppkPk26ir+a66EYv3mfJV6jqTYh6V+ev/AAU1/bwg+FPh+9+FfgTUEl8a6pB5eq39uyuumWkiyo8aukgaO6JCEAr8qNu4LIa7X/goD/wUC0r9nHQLrwf4QurfU/iZfQlAEYSR6RGwI86XB4l6FIz7Mw24DfiFrWtah4k1i+1bVb2fUtUvp3ubq8upDJLPK7Fnd2PLMSSST1Jr2cPhlUaqSWi28zjcuiKZOTRRRXtGYUUUUAFFFFABRRRQAUUUUAFFFFABRRRQAUUUUAFKrFGDKSCOQRSUUAbenasJMRzHa/Zux/8Ar1rxn3rja0tP1l7UhZcyR+vcVzzp9UbxqW0Z1ceBzVqKTFZlteR3CBo3DD2PSrCS45zXJKPc3jI1I5uRVy3nIOcisaObmrEc2O9YSidMZm9HcYYHPvV1LksBg8Vz8dx71ahuiOM1zSgdcahuxXbRv1yPrV+C53kMDtb1HeudW4wM5qxFeFfasJQudkKh21lfhAAxG8Dpng1rW+pblPTHXnvXCpe4COTyCMn2rSg1IcYPvXDOidUax266kUhzu5Y4wTUsWssXJDY44571xZ1M+vT3p0WqH+92/WuZ0DoVc7+HXSqAF/mznipX8Ql5gxfJCk4Jrz46vhWG73yDTDrDdd/buaj6smarE2O8PiMKVJbB69ao32uLIWYN17Vxcmr5xhunHWsrWPFltpULS3MyxqBwC3LewHetYYS70RjPFJK7Z1F5rjoxyxAPUg15h48+KC2okstLl825PDzA5WPqDgg/eHHtXJeK/iLda2Wgsy9radznEj9euDwOelcdX0eFy9QtKp9x85isxc/dp/eOmmkuJXlldpJHJZnc5LE9STTaKK9w8MKKKKACiiigAooooAKKKKACiiigAooooAKKKKACiiigAp0cjwyK8bFHU5VlOCD602igD0bwp42S+EdpfOIrkcLKeFfoBnn7x/KvRIbwxW+zaAGPJxXzrXX+GPiDcaTst77dd2g6MTmROmMZPI9q8rEYTm96H3HuYTMHT92p957RYFZJV+Yhs/hXRWdsIJw0jlVHzMc8GuP8Paxp2owi5t7hJVOCQrDK98Edj7GtifVGfbtOQeBmvnatOV7H2mGxcXFO51T+KGhlRFlwq/OOf8806e9l1MCck7R1Of1rhml3TglsL0zXR2NyqWZeSXbEOgzyf/rVxToKFmj6KhjXLRvQ37G6dVXcoIHOD3rSa/R1Z2Plux4jXhQuO3NcYNa3YCsBjoKbLrDKSxbtx6ZrmdBtntQx0Yrc73Rp1urkEzbFTJAJ+8ewq5qPibLxxxgIUXaSO3WvN7PXXiICuVLHk5robe6WSWBSyvvAOfx71zzw9neR208xuvdZ2ulamY9kio7yYzubkZrsrrXj/YqR7mEmcnb0+79a4a11KytrHy2/1xyMgjr2rfN7bw6UsbhZXaPdu9yK8urSTadj1aWYtRabJU1+YRqfO2bQApQ4I+tO0zXpIy4kffuH3s81w+pamCzpEWTJxycVXtNSl8xVd8hjt65rb6qmiXmtup7ZpOrxRaf5hCtG3ykdTjjpUOr+Mra0heC2UeW4OGl6j6VxMGuDSrWCVXLErtKkZH5Vympa/Ldzs5kwoJwuelc9PBc8rvYxnm6gt9T1GX4mLNpX2IxhSBhpEHUYx61g2fjVYoJ7JykkXmFwG9D+NebjVmAY78c9j1rmtd8Y2mgK91eXSW8YB+82C2OcKO59hXp0cui3yxR8/jc65VzNnu8NzAim5t2BDDgE14V8Zf2mY/Dltc6J4akS51hiVmvRh4rfIZSFIbmQHBxggd89K8f8d/H3V/EFo+maRJLpmmt9+VWKzy8EEEg4CnI4HPHXtXlNfVYHJFB+0xGvZf5n5hmnEMqydLD7d/8AL/MmvL241G7murqaS5uZnMks0rFndicliTyST3qGiivrttEfEbhRRRQAUUUUAFFFFABRRRQAUUUUAFFFFABRRRQAUUUUAFOileCRZI3ZJEIZWU4IPqDTaKAPSPC/jmPUI0tNQZY7kcLKeFk6AZOfvHn2ro5l5zmvFK6bQPGs+nBYLvdc246NnLr7DJ5HtWc48x20a/LpI74tznpioZHBI54qG21S31CES28iyL1ODyPYjsaa8m5uOgrz5R1Pap1U1oW45ecdh3qwGYD296zFcqfY1YFxuGM/WudxO2M9C5HPmU5GVAAAPr61qW0xKg5yP5VhW8md5PQtxWgkhRcA1nKNzohUNdZtoJAA4wKt28h2qSflxk1jxzZXac5q1HOyk+grJwN1WNaKfBJz8x6VaguCCvI6c89ayIpd444o88g7ckCs3Tuaquak125wu7aOnBpjXXlxhCeT3rMa5w3U4Hc1DJcljgnIqfZEPEGjc3ZSHaD361lT3zbjg44xmori7/hz0rOnn54Jq40jCpiNCxLettPPFY95elieelE1zwRmsfUb+K0jLyyBB2yeT9K64UjzKmI63JZ7knPOK5vWdfCZigIZ+hcdB/8AXqhqniCS9ykOYovX+I1k16VOilrI8WtinL3YisxdizEkk5JPekoorrPOCiiigAooooAKKKKACiiigAooooAKKKKACiiigAooooAKktrqayuYri3leCeJg8csbFWRhyCCOhqOigD6Q+Ffxzh1yKHS9elW21NQEjujhY5wAoAYk/6wnPse3pXqUt60RJU5x0NfDtemeAfjTfeHVjstX8zUdOH3ZCS00fQAAk4KjHQ+vXtUOCkdlPEyhoz6msNWFwmH6jmrxuVMAzkHsRxXnuieLLDW7ZbrTbqOeJgCwRgWXIzhhng+xroH1HMQKvkEdDXnVaTTPcoYlSR0D6i5gAJUgcknrWbdX7DcykAdeTWQ2p7Opzn3qtJqW4MrHIHSuR0z0Y1+hNLqjtJ944z1zTG1LABzweOO1Y1xeKztzt5ziqxvQrHJyKOQFWNuXUeNuTntg1c0vU8RtGTlt2ea5U3fPXIpY7toZA6k7TwaPZ3Vhe2adzvEucMCOp6jtWvY3IByGOQM4P8ASuIs9RYYy2fetm01Q8Beue1ZOmy1iEnqdzp10JJNzNj6GulsLsiUbWOBXA2d35jKQdpxXS6bdsGU464BIrJ0mxSxCR6LpV63ygfXmu40Sc7kb1xxXnmhHzNpJ4r0PQUAZe4OKz9mcs8Q1sz07wtGC6HHB6+lew+FIVUIR7cV5D4WcJsziuk8YfG3wf8ABXwzLrni7XLPSLSJGaNJ5lWW4ZVLeXEhIMjkA4Vck1zTi2+WKuzzqlZbt6Hvts22EZOOOa/P79u//gpvpPwrtNQ8CfCq9ttb8aSK0F5rcRWaz0xWWRHWN0kBN0jBCAVKLn5txBWvlD9rr/gp/wCLfjVb3Phf4fm78GeDXwJbpJGh1O9GHVkd0cqkTBhlFyTt5Ygla+GycnJ5NexhMBKPvVvu/wAzxJzu9C5rWtah4k1e91XVr641PU72Z7i6vbuVpZp5WOWd3YksxJJJJyc1Toor3jMKKKKACiiigAooooAKKKKACiiigAooooAKKK7j4WeLfDHhK+u7jxN4bi8SoULW1tOpMYkEMypvw6MVDvGxAPOznOMUAcPRX0F8Rfi18HtZsI28MfDv7Bf2/kJCl3bKsRjiiCKJDHNl2LKWdyMyecQcGNWav4f+Lvwv0qMTP8PrKfUriC9jnS6s/Mso2lSfyCEMrP8AJJJFl1KkIgCruXc4B4LRXsieOfhlbXmoNH4ckSA31qLSFbBJ1W2hmXc7vJNudpIwxeMCPcxUB41Db/MPFd9Y6n4l1O70yD7Np81w7wRCEQhUJ4xGGYIP9nc23pubG4gGVRRRQA+GeS3fdG5RvY1s2fiHjbcLz/eQfzFYdFTKKluNNrY7S3vIpxmORW+h6VaSXHeuDjkeJtyMUb1U4NXrfXbqBdpIlH+31/OuaVHsbRq23O1jm96sxzDA5wa5ODxNFgeZG6n/AGeRWjBrtpKB++VfZuK55UpLodMaqOjW46c1ZjuQO/Nc9Fqlu54njP0cVbS8XGQ4x9a55UzpjVR0MV36t+dSwX+zcuec+vaueW+VOS4A9zTX1u1TlrmJT7uP8ay9lfobKsu51P8AaHAGfenDUCAfm/WuNm8V2MC5Nwrn0T5v5Vn3Hj6FVIhgkdu2/AH86aw05bITxUY7s9B/tIFetUb3xDb2KEzTxxAjgM3J+grzK98YahdqVV1gU/8APLIP51jzTyXD75ZGkf8AvOcmumGB/mZzzx38qO41f4lMVMenxnOcGSYcfgM/z/KuLvb+41GYy3MzzSHu5zj2HoKgor0KdKFP4UefUqzqfEwooorYxCiiigAooooAKKKKACiiigAooooAKKKKACiiigAooruPhZ4t8MeEr67uPE3huLxKhQtbW06kxiQQzKm/DoxUO8bEA87Oc4xQBw9FfQXxF+LXwe1mwjbwx8O/sF/b+QkKXdsqxGOKIIokMc2XYspZ3IzJ5xBwY1Zq/h/4u/C/SoxM/wAPrKfUriC9jnS6s/Mso2lSfyCEMrP8kkkWXUqQiAKu5dzgHgtFe+aN8VvhNpiapaT+At8A1O0uLC5gt4ppfIhkwVdpywO9F3uNu2RnZSqABq8m+IOt6R4g8TPdaHYDT9OS2trdV8lIGmeKBI3naNCVRpGRpCqkgFyMnqQDnKKKKALFhqN1pk4mtZ3gkHUo2M+x9R7V6DoXxZ2xiLU4MN0E0A4x6kE/y/KvNqKxqUYVfiR0Uq9Si7wZ7/pmqWmroZLa6ilUDcQjgkfUVca+ldSqsdgGCK+eLe6mtJPMgleGTpujYqfzFdJpfxF1fTkCO0d2g7zglsfUEfrmvLqYB7wdz3qGb20qK3oewf2htAxww602TUS55P5V5/H8S7KaJfOtp4ZT94phl/mDV+18YabcfMLqNPaU7T+tcbws47xPap5pSnopHaRX2WJHAB61q2OrSRMGDc9K4e38QWMinbeQls8ASKf61oQapHhSJAQTngiuadB7NHowxy3TPULHUPtOz94CyrvI9Pat3+2hJHAu7cwHP1FeWWeqeWfMMoC56lsVabxrpsDES6laxkZPzTKP6158sI5PRHZ/aSitWdrqmtwMSgTD8Zb+tRG8EVqswJJPI+teaap8RdFti0h1GGUgfdiPmE/lWPe/HazS28u3s7id1+6JMIh4+pP6V0QwFWSXLE4KmcUofFM9em8S3ExiBPypwB71n6t4n07Sbcy6hfQ2xOSA8gUn6Dqfwr5/1r4ua7qyMkRh09CetspDY/3iT+YxXIXd7cahMZbq4luZTwXmcs35mvSpZT/O7eh4dfP3r7NX9T1rxP8AHNQrQ6Hblm3EG4ul4x6qoOffn8q8r1XWL3W7pri+uZLmUk4MjEhcnOAOw9hVOivco4enQXuI+ZxGMrYp3qy+XQKKKK6TjCiiigAooooAKKKKACiiigAooooAKKKKACiiigAooruPhZ4t8MeEr67uPE3huLxKhQtbW06kxiQQzKm/DoxUO8bEA87Oc4xQBw9FfQXxF+LXwe1mwjbwx8O/sF/b+QkKXdsqxGOKIIokMc2XYspZ3IzJ5xBwY1Zq/h/4u/C/SoxM/wAPrKfUriC9jnS6s/Mso2lSfyCEMrP8kkkWXUqQiAKu5dzgHgtFexjxz8NLa61FoPDzxR/brX7FENPS4RLeGZSXkaSYNIZY1YyRgRhmKgPGoYP5b4insLrXtQm0uOSLTXndrdJUCMIyTtyoLBeP4dzY6bmxkgGdRRRQBLbXc1nIJIJGjb1U4z9fWujsPGRA23cfP9+MfzFcvRUyipbmkKkqb91nolvqcN3gxzK49AeRVlbjAwDya80jleJtyOyN6qcGtG18Q3dtgFhKB/f6/nXNKh2PQhjP5kekQyDaBnGBViOcsetcPa+MosATRSKe+zBH862bTxLYTKMXKJ/10O3H51k6LXQ7Fi4S2Z1cU20etWo58ZPY1z9trFnJgLdwN7CQH+taUVyjL8rqc+hqHSNViF3NWGfA4PenNJnjv61n/aERSS6qPUmoX1uwh/1l9bofRpVH9aj2QfWLLc1DKBx1qrNN1xWPeeMNJtVJN7HIfSI7yfyrCvfiPabW+z280jdt+FH8zTVCT6GMsXFdTqpZRwSeTxWZqGp29kpM8yRdxuYAn6CuF1DxrqN8pVSluvrEDn8yaxJp5Lhy8sjSuf4nYk1vHD9zjnjL/CdNqfjENlbNCfV5B/IZrmri5lu5C80jSN6selR0V1xhGOxwTqSn8TCiiirMwooooAKKKKACiiigAooooAKKKKACiiigAooooAKKK7j4WeLfDHhK+u7jxN4bi8SoULW1tOpMYkEMypvw6MVDvGxAPOznOMUAcPRX0F8Rfi18HtZsI28MfDv7Bf2/kJCl3bKsRjiiCKJDHNl2LKWdyMyecQcGNWav4f8Ai78L9KjEz/D6yn1K4gvY50urPzLKNpUn8ghDKz/JJJFl1KkIgCruXc4B4LRXuOnfEr4YWE2pRN4SU2ialZ3OnBNOjuG2QSbT50ksu50kjy0kICCRiBuiC7j5D4muNOu9fvptJjki055SYUlQRtt9dgLBATkhdzbQQNzY3EAzKKKKALmlazfaHdC4sLqW1lGMmNiAwznBHcexr1Tw18diI/J1q3IbIAntl4+rKT+PH5V4/RSaT0ZcZuDuj6ftPFdjrMW+zu4bgYyQjgkfUdvxpZtUIXg9O9fMltdz2Uokt5pIJB/HGxU/mK6LT/iLrFlGEkkS7Ud5wS2PqD/OsJUU9jthi2tJHtb3xfLAjP1pq34cAHr615pa/E+BlUT28sbd9mGH8xWtZ+NdMuRuF2kZ9JTt/nWTpM6I4mL6nb/ahyc1PFdB4yuRXJQeI7KU4S9gb6Sqf61p21/G2CJVKnuGqfZs0+sJ7M6yyuCUHPtW1ZS4wRXGWWoRRffmQL1yW4Falv4t0e0OJ9Us4vZ7hF/maXs2Zuuu56PpcuNvOc11+juGYdSPSvFJPi94W0WPfLq0MxH8NsfNJ/75rNvP2sdH0+BxpmlXt1cDhTOFjjJ9chif0qfYyeyMHiV3PrrQnCbcH5a6LUfiZ4Z8BWS3XiHXbDSYwpZVurhUZwBkhFJyx46AE1+c/ib9qzx1r1o9ra3FvocTE/PpyssuPTezHH1XB4rynV9b1HxBeG71S/utSuiMGe7maVyPTcxJ70LCX+JmEsRJ7H3V8Uf+ClS6fbtY/DfSTJcB2R9U1mLEe3kboo1fJPQgvj3U18V+PPiP4n+J+tyav4p1y+1y+Ytte8mZxEpYtsjUnCJknCqAB6VzlFdlOjCl8KOZty1bCiiithBRRRQAUUUUAFFFFABRRRQAUUUUAf/Z;" vertex="1" parent="1">
          <mxGeometry x="190" y="290" width="1280" height="480" as="geometry" />
        </mxCell>
        <mxCell id="wSA2hBQYsME_1oKIK_U6-2" value="&lt;font size=&quot;1&quot; style=&quot;&quot;&gt;&lt;b style=&quot;font-size: 40px;&quot;&gt;RetCam3 Images&lt;/b&gt;&lt;/font&gt;" style="text;html=1;strokeColor=none;fillColor=none;align=center;verticalAlign=middle;whiteSpace=wrap;rounded=0;rotation=-90;" vertex="1" parent="1">
          <mxGeometry x="-20" y="400" width="290" height="30" as="geometry" />
        </mxCell>
        <mxCell id="wSA2hBQYsME_1oKIK_U6-3" value="&lt;font style=&quot;font-size: 40px;&quot;&gt;&lt;b&gt;ICON &lt;br&gt;Images&lt;/b&gt;&lt;/font&gt;" style="text;html=1;strokeColor=none;fillColor=none;align=center;verticalAlign=middle;whiteSpace=wrap;rounded=0;rotation=-90;" vertex="1" parent="1">
          <mxGeometry x="-40" y="620" width="330" height="30" as="geometry" />
        </mxCell>
      </root>
    </mxGraphModel>
  </diagram>
</mxfile>
